<svg width="2529" height="352" viewBox="0 0 2529 352" fill="none" xmlns="http://www.w3.org/2000/svg">
<path fill-rule="evenodd" clip-rule="evenodd" d="M475.054 41.3692C484.023 17.2688 508.246 0 536.72 0C561.016 0 582.216 12.5717 593.487 31.2319C599.534 27.9048 606.559 26 614.052 26C622.978 26 631.238 28.7022 637.973 33.2912C655.696 18.7967 678.988 10 704.5 10C749.69 10 787.914 37.6001 800.56 75.5777C810.444 71.744 821.337 69.6205 832.779 69.6205C867.702 69.6205 897.501 89.3997 909.145 117.21C923.328 106.469 941.625 100 961.598 100C993.95 100 1021.9 116.974 1035.1 141.584C1045.54 134.32 1058.63 130 1072.83 130C1077.29 130 1081.63 130.425 1085.81 131.232C1085.68 129.172 1085.6 127.098 1085.6 125.011C1085.6 63.9355 1146.19 14.4243 1220.92 14.4243C1269.38 14.4243 1311.88 35.2352 1335.79 66.5161C1348.12 53.2895 1365.83 45 1385.5 45C1414.99 45 1440.06 63.6254 1449.25 89.5854C1454.7 88.546 1460.34 88 1466.12 88C1512.02 88 1558 147.513 1558 190V190.003V352H0.132248V282.858C0.0444864 281.402 0 279.912 0 278.389C0 234.468 33.9215 198.063 78.2662 191.467C94.5259 166.04 123.982 149.051 157.62 149.051C178.628 149.051 198.004 155.677 213.554 166.846C219.471 142.265 241.603 124 268 124C281.914 124 294.643 129.074 304.436 137.473C310.678 133.838 318.023 131.742 325.884 131.742C327.475 131.742 329.044 131.828 330.587 131.995C329.167 125.875 328.418 119.515 328.418 112.99C328.418 64.3958 369.943 25.0021 421.166 25.0021C441.262 25.0021 459.865 31.0656 475.054 41.3692Z" fill="white"/>
<path fill-rule="evenodd" clip-rule="evenodd" d="M2053.14 41.3692C2044.17 17.2688 2019.95 0 1991.47 0C1967.18 0 1945.98 12.5717 1934.71 31.2319C1928.66 27.9048 1921.64 26 1914.14 26C1905.22 26 1896.96 28.7022 1890.22 33.2912C1872.5 18.7967 1849.21 10 1823.7 10C1778.51 10 1740.28 37.6001 1727.64 75.5777C1717.75 71.744 1706.86 69.6205 1695.42 69.6205C1660.49 69.6205 1630.69 89.3997 1619.05 117.21C1604.87 106.469 1586.57 100 1566.6 100C1521.53 100 1485 132.936 1485 173.564C1485 183.117 1487.02 192.244 1490.69 200.618V352H2528.06V282.858C2528.15 281.402 2528.2 279.912 2528.2 278.389C2528.2 234.468 2494.27 198.063 2449.93 191.467C2433.67 166.04 2404.21 149.051 2370.58 149.051C2349.57 149.051 2330.19 155.677 2314.64 166.846C2308.72 142.265 2286.59 124 2260.2 124C2246.28 124 2233.55 129.074 2223.76 137.473C2217.52 133.838 2210.17 131.742 2202.31 131.742C2200.72 131.742 2199.15 131.828 2197.61 131.995C2199.03 125.875 2199.78 119.515 2199.78 112.99C2199.78 64.3958 2158.25 25.0021 2107.03 25.0021C2086.93 25.0021 2068.33 31.0656 2053.14 41.3692Z" fill="white"/>
</svg>
