<svg width="73" height="73" viewBox="0 0 73 73" fill="none" xmlns="http://www.w3.org/2000/svg">
<path d="M35.5752 0.156121C34.9193 0.455556 0.983323 31.3544 0.612593 31.9961C0.0279819 32.9799 0.270382 34.5912 1.09739 35.3469C1.76756 35.96 2.26662 36.0313 5.77429 36.0313H9.12511L9.15362 44.9288L9.1964 53.8406L11.1641 50.7892C12.262 49.1066 13.3885 47.4526 13.6879 47.1247C14.8429 45.8128 16.7536 45.0714 18.6357 45.1855C20.0474 45.2853 21.2879 45.8984 22.4856 47.1104C23.2984 47.9374 23.555 48.3794 25.3231 51.9014L27.2766 55.7655L30.7985 48.7216C33.3081 43.7025 34.5058 41.4639 34.9336 40.9934C35.3328 40.5371 35.8889 40.1378 36.6161 39.7814C37.6998 39.2395 37.6998 39.2395 39.4821 39.2395C41.1789 39.2395 41.3215 39.2681 42.0487 39.6388C42.9755 40.1378 44.0592 41.193 44.5012 42.0343C44.6723 42.3765 45.699 44.6864 46.7684 47.1532C47.8521 49.62 48.7931 51.659 48.8787 51.6875C48.9642 51.716 49.1924 51.4451 49.4063 51.0886C49.9338 50.2046 50.8321 49.4061 51.9871 48.85C52.8997 48.408 53.0708 48.3652 54.3969 48.3652C56.4786 48.3652 57.3056 48.7074 58.8171 50.2188C59.7154 51.1171 60.1289 51.6732 60.742 52.8139L61.5263 54.2826H62.781H64.0215V45.1569V36.0313H67.3724C71.151 36.0313 71.3363 35.9885 72.1776 35.0617C73.0189 34.1349 73.2327 32.8944 72.7337 31.7964C72.5198 31.3259 69.0692 28.1177 55.5803 15.8693C46.3121 7.42812 38.484 0.41278 38.2131 0.28445C37.5572 -0.0292437 36.1313 -0.100538 35.5752 0.156121ZM33.3366 23.9398L33.2938 26.977H30.2995H27.3051L27.2623 23.9398L27.2338 20.917H30.2995H33.3651L33.3366 23.9398ZM45.4851 23.9826V27.0482L42.4622 27.0197L39.4251 26.977L39.3823 23.9398L39.3538 20.917H42.4194H45.4851V23.9826ZM33.3651 33.037V36.0313H30.2995H27.2338V33.037V30.0426H30.2995H33.3651V33.037ZM45.4851 33.037V36.0313H42.4194H39.3538V33.037V30.0426H42.4194H45.4851V33.037Z" fill="#FF883A"/>
<path d="M38.6699 42.3195C37.9285 42.4621 37.3153 42.8043 36.9446 43.3034C36.7877 43.5172 34.6204 47.8662 32.1109 52.9708C29.6013 58.0755 27.4767 62.3674 27.4054 62.4957C27.2914 62.6954 26.6212 61.4548 23.9548 56.122C22.1297 52.486 20.547 49.3919 20.4044 49.235C19.7199 48.4508 18.1372 48.2084 17.0393 48.7075C16.2551 49.0639 15.9699 49.4204 13.1181 53.6125L10.6371 57.277H5.31854H0V60.3426V63.4226L6.38795 63.3798C14.4157 63.3227 13.6599 63.6079 16.0127 59.8436C16.8111 58.546 17.5241 57.5051 17.5954 57.5194C17.6524 57.5337 19.2066 60.6136 21.046 64.3636C22.8854 68.1137 24.5679 71.3505 24.7676 71.5786C25.3094 72.1347 26.222 72.5339 26.9634 72.5339C27.7904 72.5339 28.9597 71.9778 29.4017 71.379C29.587 71.1081 31.7686 66.7734 34.2354 61.74C36.7022 56.7066 38.7412 52.5858 38.784 52.5858C38.8268 52.5716 40.2384 55.6943 41.9209 59.5156C45.5427 67.8143 45.7708 68.2563 46.4552 68.7411C47.1824 69.2259 48.0807 69.4113 48.9648 69.2401C50.2481 68.9977 50.5047 68.6841 52.4867 64.7629C53.827 62.125 54.3118 61.2837 54.3831 61.4976C54.5257 61.9539 55.5381 62.895 56.2796 63.2657C57.0353 63.6507 56.6503 63.6364 68.4851 63.8931L72.4348 63.9786V60.913V57.8474H71.6933C70.6524 57.8474 59.4307 57.2913 59.4022 57.2485C59.388 57.22 58.8747 56.122 58.2473 54.8102C56.9782 52.101 56.5505 51.5877 55.31 51.2883C54.4687 51.0887 53.7415 51.1885 52.9715 51.6448C52.1873 52.101 52.0304 52.3434 50.3479 55.8939C49.5209 57.5907 48.8079 58.9453 48.7509 58.8882C48.6939 58.817 47.2537 55.5945 45.5569 51.7161C42.0778 43.8024 42.0065 43.6456 41.5787 43.1893C40.9228 42.4478 39.7536 42.1056 38.6699 42.3195Z" fill="#3C6822"/>
</svg>
