<svg width="40" height="40" viewBox="0 0 40 40" fill="none" xmlns="http://www.w3.org/2000/svg">
<g clip-path="url(#clip0_322_85)">
<path d="M25.4685 7.49996C25.8597 7.68161 26.0339 7.91423 26.2497 8.28121C26.3239 8.49122 26.3712 8.7042 26.4175 8.92187C26.4316 8.98461 26.4458 9.04735 26.4604 9.112C26.5069 9.31959 26.5521 9.52747 26.5973 9.73537C26.6301 9.88294 26.663 10.0305 26.696 10.178C26.783 10.5685 26.8689 10.9591 26.9545 11.3499C27.039 11.7348 27.1247 12.1194 27.2102 12.5041C27.362 13.1869 27.5124 13.8699 27.6624 14.5531C27.7635 15.0139 27.8654 15.4746 27.968 15.9351C28.0344 16.2338 28.1007 16.5326 28.1668 16.8314C28.1981 16.9722 28.2295 17.113 28.261 17.2538C28.3042 17.4473 28.3471 17.6409 28.3898 17.8345C28.4027 17.8914 28.4155 17.9482 28.4287 18.0068C28.4851 18.2639 28.5153 18.4848 28.5153 18.75C29.8817 18.7242 31.2481 18.6984 32.656 18.6718C32.7849 18.414 32.9138 18.1562 33.0466 17.8906C33.6394 17.0689 34.4602 16.4348 35.4685 16.25C36.724 16.1278 37.7539 16.2919 38.7497 17.1093C39.3879 17.6473 39.8748 18.3844 39.9997 19.2187C40.1114 20.5817 39.9073 21.59 39.0109 22.6535C38.3227 23.3952 37.4701 23.7455 36.4742 23.7854C35.3909 23.8046 34.4762 23.5845 33.6716 22.8125C33.3206 22.4698 33.0591 22.1465 32.8419 21.7055C32.807 21.6349 32.7721 21.5643 32.7361 21.4916C32.7097 21.4376 32.6832 21.3837 32.656 21.3281C32.5518 21.3277 32.5518 21.3277 32.4456 21.3272C31.7904 21.3243 31.1352 21.3198 30.48 21.3137C30.1432 21.3106 29.8064 21.3081 29.4696 21.3069C29.1443 21.3057 28.8192 21.303 28.494 21.2993C28.3701 21.2982 28.2461 21.2975 28.1222 21.2975C27.9483 21.2973 27.7745 21.2952 27.6005 21.2926C27.5016 21.2919 27.4028 21.2912 27.3009 21.2905C26.8764 21.2268 26.6503 21.0477 26.3856 20.7166C26.2421 20.4549 26.171 20.2309 26.1067 19.94C26.0894 19.864 26.0894 19.864 26.0719 19.7866C26.0346 19.6209 25.9987 19.4549 25.9628 19.2889C25.9371 19.1729 25.9113 19.057 25.8854 18.9411C25.8315 18.6989 25.7782 18.4566 25.7255 18.2141C25.6579 17.9036 25.5892 17.5933 25.52 17.2831C25.4668 17.0441 25.4139 16.8049 25.3612 16.5657C25.336 16.4513 25.3107 16.3369 25.2853 16.2224C25.25 16.0627 25.2152 15.9028 25.1804 15.7429C25.1606 15.652 25.1407 15.5611 25.1202 15.4675C25.0778 15.2343 25.0778 15.2343 25.0778 14.9218C25.0263 14.9218 24.9747 14.9218 24.9216 14.9218C24.9116 15.0238 24.9016 15.1258 24.8913 15.2309C24.8507 15.5951 24.7827 15.9472 24.7022 16.3044C24.6808 16.4013 24.6808 16.4013 24.659 16.5002C24.6115 16.7147 24.5636 16.9291 24.5156 17.1435C24.4813 17.2981 24.447 17.4527 24.4128 17.6072C24.32 18.0257 24.2267 18.444 24.1333 18.8624C24.0553 19.212 23.9776 19.5617 23.8998 19.9114C23.7163 20.7364 23.5325 21.5613 23.3484 22.3862C23.1586 23.2365 22.9695 24.0869 22.7806 24.9374C22.6182 25.6684 22.4555 26.3994 22.2925 27.1303C22.1953 27.5665 22.0981 28.0027 22.0013 28.439C21.9103 28.8492 21.8188 29.2592 21.727 29.6692C21.6934 29.8195 21.66 29.9698 21.6267 30.1201C21.5812 30.3257 21.5352 30.5312 21.489 30.7367C21.4695 30.8253 21.4695 30.8253 21.4497 30.9158C21.3062 31.5479 21.1735 32.0365 20.6247 32.4218C20.2977 32.5854 19.8871 32.5331 19.531 32.5C19.0631 32.2827 18.8319 31.9311 18.6482 31.4563C18.6187 31.3601 18.5892 31.2639 18.5588 31.1647C18.542 31.1108 18.5252 31.0569 18.508 31.0014C18.4524 30.822 18.398 30.6423 18.3435 30.4626C18.3038 30.3335 18.264 30.2045 18.2241 30.0754C18.1165 29.7261 18.0098 29.3765 17.9032 29.0269C17.7917 28.6613 17.6792 28.296 17.5669 27.9306C17.3069 27.0844 17.0483 26.2378 16.7901 25.3911C16.7186 25.1566 16.647 24.922 16.5755 24.6875C16.4345 24.2255 16.2936 23.7634 16.1527 23.3014C16.13 23.227 16.1073 23.1527 16.084 23.0761C15.8644 22.356 15.645 21.6358 15.4263 20.9154C15.346 20.6509 15.2657 20.3864 15.1853 20.1219C15.1301 19.9402 15.0751 19.7585 15.0201 19.5768C14.9872 19.4684 14.9542 19.36 14.9213 19.2516C14.8929 19.158 14.8645 19.0643 14.8352 18.9678C14.7735 18.7563 14.7735 18.7563 14.6872 18.5937C14.6565 18.6579 14.6258 18.7222 14.5942 18.7883C14.4789 19.0283 14.3626 19.2677 14.2457 19.5069C14.1954 19.6101 14.1456 19.7135 14.0961 19.8171C14.0246 19.9668 13.9517 20.1157 13.8785 20.2645C13.8351 20.3541 13.7918 20.4437 13.7471 20.5361C13.5458 20.8573 13.3121 21.0782 12.9685 21.25C12.7906 21.2594 12.6125 21.2638 12.4344 21.266C12.3795 21.2668 12.3246 21.2675 12.268 21.2683C12.0863 21.2708 11.9045 21.2728 11.7227 21.2747C11.5968 21.2763 11.4709 21.2779 11.3451 21.2796C11.0134 21.2839 10.6818 21.2878 10.3502 21.2915C10.0119 21.2955 9.67362 21.2998 9.33534 21.3041C8.67138 21.3125 8.00742 21.3205 7.34346 21.3281C7.30402 21.4087 7.30402 21.4087 7.26379 21.491C7.22902 21.5614 7.19425 21.6319 7.15842 21.7045C7.12408 21.7743 7.08973 21.8442 7.05434 21.9162C6.64111 22.7025 5.86139 23.2998 5.04853 23.6279C4.10272 23.9102 2.91613 23.8887 2.03096 23.4375C1.09717 22.8915 0.319586 22.0986 0.0366314 21.0278C-0.13148 19.9052 -0.0685805 18.8299 0.570994 17.8662C1.17577 17.0654 1.94535 16.4048 2.96846 16.25C4.07318 16.1499 5.07979 16.2202 6.00556 16.8945C6.63273 17.4342 6.96552 17.916 7.34346 18.6718C8.78721 18.6976 10.231 18.7234 11.7185 18.75C11.7958 18.5179 11.7958 18.5179 11.8747 18.2812C11.9377 18.14 12.0034 18 12.0715 17.8613C12.1106 17.7812 12.1498 17.7012 12.1901 17.6187C12.2533 17.4909 12.2533 17.4909 12.3178 17.3605C12.3616 17.2719 12.4053 17.1833 12.4504 17.0921C12.543 16.9052 12.6357 16.7183 12.7286 16.5316C12.847 16.2934 12.9642 16.0546 13.081 15.8156C13.1935 15.5862 13.3075 15.3577 13.4213 15.1291C13.4629 15.0437 13.5044 14.9583 13.5472 14.8703C13.8001 14.3673 14.0146 14.0082 14.531 13.75C14.963 13.7105 15.3443 13.6923 15.7419 13.8769C16.1152 14.2315 16.3028 14.6231 16.4481 15.11C16.4656 15.1664 16.4831 15.2228 16.5011 15.2808C16.5589 15.4678 16.6157 15.655 16.6724 15.8422C16.7134 15.9757 16.7545 16.109 16.7956 16.2424C16.9059 16.6003 17.0152 16.9585 17.1243 17.3167C17.2374 17.6876 17.3514 18.0582 17.4653 18.4288C17.6721 19.1021 17.8782 19.7757 18.084 20.4493C18.2856 21.1093 18.4881 21.7691 18.6907 22.4289C19.0498 23.5981 19.408 24.7677 19.7653 25.9375C20.0215 25.0174 20.2344 24.0905 20.4395 23.1579C20.4745 22.9994 20.5096 22.841 20.5447 22.6825C20.6197 22.3436 20.6945 22.0047 20.7693 21.6658C20.8875 21.1296 21.0062 20.5934 21.1249 20.0573C21.4624 18.5336 21.7992 17.0098 22.1357 15.4859C22.3219 14.6424 22.5085 13.799 22.6954 12.9556C22.8134 12.4229 22.9311 11.8902 23.0484 11.3573C23.1215 11.026 23.1949 10.6949 23.2684 10.3637C23.3024 10.2104 23.3362 10.0571 23.3698 9.90375C23.4158 9.69405 23.4624 9.48448 23.5091 9.27493C23.5222 9.21463 23.5352 9.15432 23.5487 9.09219C23.6917 8.45691 23.8233 7.96527 24.3747 7.57809C24.7017 7.41457 25.1123 7.46686 25.4685 7.49996ZM2.70478 19.3457C2.53259 19.7033 2.51555 20.0004 2.57783 20.3906C2.75984 20.7686 2.98107 20.9898 3.35908 21.1718C3.74927 21.2341 4.04637 21.2171 4.404 21.0449C4.68401 20.7915 4.88997 20.5887 4.95149 20.2032C4.97149 19.7592 4.9166 19.4805 4.60908 19.1406C4.26919 18.8331 3.9905 18.7782 3.54646 18.7982C3.16101 18.8597 2.95812 19.0657 2.70478 19.3457ZM35.2048 19.3457C35.0326 19.7033 35.0156 20.0004 35.0778 20.3906C35.2598 20.7686 35.4811 20.9898 35.8591 21.1718C36.2493 21.2341 36.5464 21.2171 36.904 21.0449C37.184 20.7915 37.39 20.5887 37.4515 20.2032C37.4715 19.7592 37.4166 19.4805 37.1091 19.1406C36.7692 18.8331 36.4905 18.7782 36.0465 18.7982C35.661 18.8597 35.4581 19.0657 35.2048 19.3457Z" fill="#71717A"/>
</g>
<defs>
<clipPath id="clip0_322_85">
<rect width="40" height="40" fill="white"/>
</clipPath>
</defs>
</svg>
