<svg width="73" height="73" viewBox="0 0 73 73" fill="none" xmlns="http://www.w3.org/2000/svg">
<path d="M29.6562 4.5625C28.3909 4.5625 27.375 5.57837 27.375 6.84375V11.4062C27.375 12.6716 28.3909 13.6875 29.6562 13.6875H34.2187C35.4841 13.6875 36.5 12.6716 36.5 11.4062V6.84375C36.5 5.57837 35.4841 4.5625 34.2187 4.5625H29.6562ZM12.5825 11.6201C11.9944 11.6201 11.4241 11.8518 10.9785 12.3152L7.75269 15.541C6.84375 16.4321 6.84375 17.8579 7.75269 18.749L10.9785 21.9749C11.8696 22.8838 13.2954 22.8838 14.2043 21.9749L17.4302 18.749C18.3213 17.8579 18.3213 16.4321 17.4302 15.541L14.2043 12.3152C13.741 11.8518 13.1707 11.6201 12.5825 11.6201ZM51.2925 11.6201C50.7043 11.6201 50.134 11.8518 49.6707 12.3152L46.4448 15.541C45.5537 16.4321 45.5537 17.8579 46.4448 18.749L49.6707 21.9749C50.5796 22.8838 52.0054 22.8838 52.8965 21.9749L56.1223 18.749C57.0312 17.8579 57.0312 16.4321 56.1223 15.541L52.8965 12.3152C52.4509 11.8518 51.8806 11.6201 51.2925 11.6201ZM2.28125 31.9375C1.01587 31.9375 0 32.9534 0 34.2187V38.7812C0 40.0466 1.01587 41.0625 2.28125 41.0625H6.84375C8.10913 41.0625 9.125 40.0466 9.125 38.7812V34.2187C9.125 32.9534 8.10913 31.9375 6.84375 31.9375H2.28125ZM57.0312 31.9375C55.7659 31.9375 54.75 32.9534 54.75 34.2187V38.7812C54.75 38.8704 54.7678 38.9417 54.7856 39.0308C55.7837 39.6189 56.7461 40.314 57.655 41.0625H61.5937C62.8591 41.0625 63.875 40.0466 63.875 38.7812V34.2187C63.875 32.9534 62.8591 31.9375 61.5937 31.9375H57.0312ZM12.5825 50.3479C11.9944 50.3479 11.4241 50.5618 10.9785 51.0251L7.75269 54.251C6.84375 55.1421 6.84375 56.5679 7.75269 57.459L10.9785 60.6848C11.8162 61.5403 13.1707 61.5759 14.0618 60.7917C14.6499 58.3679 15.9153 56.2292 17.644 54.5361C17.5906 54.4292 17.5015 54.3223 17.4302 54.251L14.2043 51.0251C13.741 50.5618 13.1707 50.3479 12.5825 50.3479Z" fill="#FB923C"/>
<path d="M45.625 41.0625C37.5693 41.0803 30.7791 47.0864 29.7988 55.0886C28.9968 54.8569 28.1948 54.75 27.375 54.75C22.3313 54.75 18.25 58.8313 18.25 63.875C18.25 68.9187 22.3313 73 27.375 73H61.5937C67.885 73 73 67.885 73 61.5938C73 55.3025 67.885 50.1875 61.5937 50.1875C61.0947 50.1875 60.5957 50.2231 60.0967 50.2944C57.4768 44.6626 51.8271 41.0625 45.625 41.0625Z" fill="#C0F4EA"/>
<path d="M32.0234 17.9056C22.0073 17.9056 13.7734 26.1574 13.7734 36.1556C13.7734 42.4825 17.0527 48.0609 22.0073 51.3402C23.4509 50.7164 25.0193 50.3065 26.6589 50.1818C29.4392 42.037 36.8711 36.1556 45.7644 36.1378C47.3149 36.1378 48.812 36.3517 50.2378 36.726C50.2556 36.5299 50.2734 36.3517 50.2734 36.1556C50.2734 26.1574 42.0396 17.9056 32.0234 17.9056Z" fill="#FCD34D"/>
</svg>
