<svg width="191" height="191" viewBox="0 0 191 191" fill="none" xmlns="http://www.w3.org/2000/svg">
<path d="M30.9939 105.585H70.9695C78.9212 105.585 86.5471 108.84 92.1698 114.633C97.7924 120.426 100.951 128.283 100.951 136.476C100.951 144.668 97.7924 152.525 92.1698 158.318C86.5471 164.111 78.9212 167.366 70.9695 167.366C65.712 167.343 60.5489 165.925 55.9787 163.247C54.7843 162.603 53.7287 161.717 52.8754 160.643C52.022 159.568 51.3885 158.326 51.0129 156.992C50.6374 155.659 50.5276 154.26 50.6901 152.882C50.8526 151.503 51.2841 150.173 51.9587 148.97C52.6332 147.768 53.5368 146.719 54.6151 145.886C55.6935 145.052 56.9243 144.453 58.2334 144.122C59.5426 143.792 60.9031 143.738 62.2331 143.963C63.5631 144.189 64.8351 144.689 65.9726 145.434C67.51 146.286 69.2238 146.745 70.9695 146.772C73.6201 146.772 76.162 145.688 78.0363 143.757C79.9105 141.826 80.9634 139.206 80.9634 136.476C80.9634 133.745 79.9105 131.126 78.0363 129.195C76.162 127.264 73.6201 126.179 70.9695 126.179H30.9939C28.3434 126.179 25.8014 125.094 23.9272 123.163C22.0529 121.232 21 118.613 21 115.882C21 113.151 22.0529 110.532 23.9272 108.601C25.8014 106.67 28.3434 105.585 30.9939 105.585Z" fill="#CFDF8C"/>
<path d="M139.936 84.9919H69.7857C67.1278 84.9919 64.5788 83.9496 62.6994 82.0943C60.82 80.239 59.7642 77.7227 59.7642 75.0989C59.7642 72.4751 60.82 69.9588 62.6994 68.1035C64.5788 66.2483 67.1278 65.206 69.7857 65.206H139.936C142.594 65.206 145.143 64.1637 147.022 62.3084C148.901 60.4531 149.957 57.9368 149.957 55.313C149.957 52.6892 148.901 50.1729 147.022 48.3176C145.143 46.4624 142.594 45.4201 139.936 45.4201C138.185 45.4462 136.467 45.8873 134.925 46.7061C133.787 47.3644 132.529 47.7944 131.222 47.9716C129.916 48.1488 128.587 48.0697 127.311 47.7389C126.036 47.408 124.839 46.8319 123.79 46.0435C122.74 45.2551 121.859 44.27 121.196 43.1447C120.533 42.0156 120.103 40.7682 119.931 39.4744C119.759 38.1806 119.848 36.866 120.192 35.6062C120.537 34.3464 121.131 33.1664 121.939 32.1341C122.748 31.1018 123.755 30.2376 124.904 29.5913C129.486 27.0186 134.664 25.6557 139.936 25.6342C147.909 25.6342 155.556 28.761 161.194 34.3269C166.833 39.8928 170 47.4417 170 55.313C170 63.1843 166.833 70.7333 161.194 76.2991C155.556 81.865 147.909 84.9919 139.936 84.9919Z" fill="#CFDF8C"/>
<path d="M37.9595 84.3659C36.1666 85.5638 34.0587 86.2033 31.9024 86.2033C29.0109 86.2033 26.2379 85.0546 24.1933 83.01C22.1487 80.9654 21 78.1923 21 75.3008C21 73.1445 21.6394 71.0366 22.8374 69.2438C24.0354 67.4509 25.7381 66.0535 27.7303 65.2283C29.7224 64.4031 31.9145 64.1872 34.0294 64.6079C36.1443 65.0285 38.0869 66.0669 39.6116 67.5916C41.1364 69.1164 42.1747 71.059 42.5954 73.1739C43.0161 75.2887 42.8002 77.4808 41.975 79.473C41.1498 81.4652 39.7524 83.1679 37.9595 84.3659Z" fill="#CFDF8C"/>
</svg>
