<svg width="191" height="191" viewBox="0 0 191 191" fill="none" xmlns="http://www.w3.org/2000/svg">
<path d="M59.6875 71.625H115.396C121.728 71.625 127.801 69.1096 132.278 64.6322C136.755 60.1547 139.271 54.082 139.271 47.75C139.271 41.418 136.755 35.3453 132.278 30.8678C127.801 26.3904 121.728 23.875 115.396 23.875C111.209 23.8923 107.098 24.9887 103.458 27.0583C102.546 27.5783 101.746 28.2734 101.104 29.1039C100.462 29.9343 99.9906 30.8836 99.717 31.897C99.4433 32.9104 99.3728 33.9679 99.5095 35.0087C99.6463 36.0495 99.9876 37.0529 100.514 37.9612C101.04 38.8665 101.74 39.659 102.574 40.2932C103.407 40.9274 104.358 41.3908 105.37 41.657C106.383 41.9232 107.439 41.9868 108.476 41.8442C109.514 41.7017 110.513 41.3557 111.417 40.8262C112.641 40.1675 114.006 39.8127 115.396 39.7917C117.507 39.7917 119.531 40.6301 121.023 42.1226C122.516 43.6151 123.354 45.6393 123.354 47.75C123.354 49.8607 122.516 51.8849 121.023 53.3774C119.531 54.8699 117.507 55.7083 115.396 55.7083H59.6875C57.5768 55.7083 55.5526 56.5468 54.0601 58.0393C52.5676 59.5318 51.7292 61.556 51.7292 63.6667C51.7292 65.7773 52.5676 67.8016 54.0601 69.2941C55.5526 70.7865 57.5768 71.625 59.6875 71.625ZM147.229 87.5417H115.396C113.285 87.5417 111.261 88.3801 109.768 89.8726C108.276 91.3651 107.437 93.3893 107.437 95.5C107.437 97.6107 108.276 99.6349 109.768 101.127C111.261 102.62 113.285 103.458 115.396 103.458H147.229C149.34 103.458 151.364 104.297 152.857 105.789C154.349 107.282 155.187 109.306 155.187 111.417C155.187 113.527 154.349 115.552 152.857 117.044C151.364 118.537 149.34 119.375 147.229 119.375C145.118 119.375 143.094 120.213 141.602 121.706C140.109 123.198 139.271 125.223 139.271 127.333C139.271 129.444 140.109 131.468 141.602 132.961C143.094 134.453 145.118 135.292 147.229 135.292C153.561 135.292 159.634 132.776 164.111 128.299C168.589 123.821 171.104 117.749 171.104 111.417C171.104 105.085 168.589 99.0119 164.111 94.5345C159.634 90.0571 153.561 87.5417 147.229 87.5417ZM99.4792 119.375H67.6458C65.5352 119.375 63.5109 120.213 62.0184 121.706C60.526 123.198 59.6875 125.223 59.6875 127.333C59.6875 129.444 60.526 131.468 62.0184 132.961C63.5109 134.453 65.5352 135.292 67.6458 135.292H99.4792C101.59 135.292 103.614 136.13 105.107 137.623C106.599 139.115 107.437 141.139 107.437 143.25C107.437 145.361 106.599 147.385 105.107 148.877C103.614 150.37 101.59 151.208 99.4792 151.208C98.089 151.187 96.7243 150.832 95.5 150.174C94.5942 149.598 93.5813 149.211 92.5222 149.037C91.4631 148.863 90.3797 148.905 89.3372 149.16C88.2947 149.415 87.3146 149.879 86.4559 150.523C85.5972 151.167 84.8776 151.978 84.3405 152.907C83.8033 153.836 83.4597 154.865 83.3303 155.93C83.2009 156.996 83.2883 158.076 83.5874 159.107C83.8864 160.138 84.3909 161.098 85.0705 161.929C85.75 162.759 86.5906 163.444 87.5417 163.942C91.181 166.011 95.2925 167.108 99.4792 167.125C105.811 167.125 111.884 164.61 116.361 160.132C120.839 155.655 123.354 149.582 123.354 143.25C123.354 136.918 120.839 130.845 116.361 126.368C111.884 121.89 105.811 119.375 99.4792 119.375Z" fill="#114381"/>
<path d="M83.5625 103.458H27.8542C25.7435 103.458 23.7193 102.62 22.2268 101.127C20.7343 99.6349 19.8958 97.6107 19.8958 95.5C19.8958 93.3893 20.7343 91.3651 22.2268 89.8726C23.7193 88.3802 25.7435 87.5417 27.8542 87.5417H83.5625C85.6732 87.5417 87.6974 88.3802 89.1899 89.8726C90.6824 91.3651 91.5208 93.3893 91.5208 95.5C91.5208 97.6107 90.6824 99.6349 89.1899 101.127C87.6974 102.62 85.6732 103.458 83.5625 103.458Z" fill="#3DB8C1"/>
<path d="M27.8542 119.375H35.8125C37.9232 119.375 39.9474 120.213 41.4399 121.706C42.9324 123.198 43.7708 125.223 43.7708 127.333C43.7708 129.444 42.9324 131.468 41.4399 132.961C39.9474 134.453 37.9232 135.292 35.8125 135.292H27.8542C25.7435 135.292 23.7193 134.453 22.2268 132.961C20.7343 131.468 19.8958 129.444 19.8958 127.333C19.8958 125.223 20.7343 123.198 22.2268 121.706C23.7193 120.213 25.7435 119.375 27.8542 119.375Z" fill="#3DB8C1"/>
<path d="M32.2756 70.2838C30.9668 71.1582 29.4282 71.625 27.8542 71.625C25.7435 71.625 23.7193 70.7865 22.2268 69.294C20.7343 67.8016 19.8958 65.7773 19.8958 63.6666C19.8958 62.0926 20.3626 60.554 21.2371 59.2452C22.1115 57.9365 23.3545 56.9165 24.8086 56.3141C26.2628 55.7118 27.863 55.5542 29.4068 55.8612C30.9505 56.1683 32.3686 56.9263 33.4816 58.0393C34.5946 59.1523 35.3525 60.5703 35.6596 62.1141C35.9667 63.6578 35.8091 65.258 35.2067 66.7122C34.6044 68.1664 33.5843 69.4093 32.2756 70.2838Z" fill="#114381"/>
<path d="M167.567 70.2838C166.259 71.1582 164.72 71.625 163.146 71.625C161.035 71.625 159.011 70.7865 157.518 69.294C156.026 67.8016 155.188 65.7773 155.188 63.6666C155.188 62.0926 155.654 60.554 156.529 59.2452C157.403 57.9365 158.646 56.9165 160.1 56.3141C161.555 55.7118 163.155 55.5542 164.698 55.8612C166.242 56.1683 167.66 56.9263 168.773 58.0393C169.886 59.1523 170.644 60.5703 170.951 62.1141C171.258 63.6578 171.101 65.258 170.498 66.7122C169.896 68.1664 168.876 69.4093 167.567 70.2838Z" fill="#3DB8C1"/>
</svg>
