<svg width="259" height="69" viewBox="0 0 259 69" fill="none" xmlns="http://www.w3.org/2000/svg">
<path d="M37.1648 32.7457H18.2679C17.5519 32.7457 16.8653 32.4624 16.359 31.9579C15.8528 31.4535 15.5684 30.7693 15.5684 30.0559C15.5684 29.3425 15.8528 28.6584 16.359 28.1539C16.8653 27.6495 17.5519 27.3661 18.2679 27.3661H37.1648C37.8808 27.3661 38.5674 27.6495 39.0737 28.1539C39.5799 28.6584 39.8644 29.3425 39.8644 30.0559C39.8644 30.7693 39.5799 31.4535 39.0737 31.9579C38.5674 32.4624 37.8808 32.7457 37.1648 32.7457Z" fill="#3DB8C1"/>
<path d="M213.593 38.5933H224.443C226.602 38.5933 228.671 39.4681 230.198 41.0253C231.724 42.5825 232.581 44.6945 232.581 46.8966C232.581 49.0988 231.724 51.2108 230.198 52.768C228.671 54.3252 226.602 55.2 224.443 55.2C223.016 55.194 221.615 54.8127 220.374 54.0929C220.05 53.9199 219.763 53.6817 219.532 53.3928C219.3 53.1039 219.128 52.7701 219.026 52.4116C218.924 52.0531 218.895 51.6772 218.939 51.3067C218.983 50.9361 219.1 50.5785 219.283 50.2553C219.466 49.9321 219.711 49.6501 220.004 49.4261C220.297 49.2021 220.631 49.0409 220.986 48.9521C221.342 48.8633 221.711 48.8487 222.072 48.9093C222.433 48.9699 222.778 49.1044 223.087 49.3046C223.504 49.5337 223.969 49.6571 224.443 49.6644C225.163 49.6644 225.853 49.3728 226.361 48.8538C226.87 48.3347 227.156 47.6307 227.156 46.8966C227.156 46.1626 226.87 45.4586 226.361 44.9395C225.853 44.4205 225.163 44.1289 224.443 44.1289H213.593C212.873 44.1289 212.183 43.8372 211.674 43.3182C211.166 42.7991 210.88 42.0951 210.88 41.3611C210.88 40.627 211.166 39.923 211.674 39.4039C212.183 38.8849 212.873 38.5933 213.593 38.5933Z" fill="#3DB8C1"/>
<path d="M243.281 32.7458H224.218C223.495 32.7458 222.803 32.4624 222.292 31.958C221.781 31.4535 221.494 30.7694 221.494 30.056C221.494 29.3426 221.781 28.6584 222.292 28.154C222.803 27.6495 223.495 27.3661 224.218 27.3661H243.281C244.003 27.3661 244.696 27.0827 245.207 26.5783C245.718 26.0739 246.005 25.3897 246.005 24.6763C246.005 23.9629 245.718 23.2787 245.207 22.7743C244.696 22.2699 244.003 21.9865 243.281 21.9865C242.805 21.9936 242.338 22.1135 241.92 22.3362C241.61 22.5151 241.268 22.632 240.913 22.6802C240.558 22.7284 240.197 22.7069 239.85 22.6169C239.504 22.527 239.179 22.3703 238.893 22.156C238.608 21.9416 238.369 21.6738 238.188 21.3678C238.008 21.0608 237.892 20.7217 237.845 20.3699C237.798 20.0181 237.822 19.6607 237.916 19.3182C238.009 18.9756 238.171 18.6548 238.391 18.3741C238.61 18.0934 238.884 17.8585 239.196 17.6827C240.442 16.9832 241.849 16.6127 243.281 16.6068C245.448 16.6068 247.526 17.457 249.058 18.9703C250.591 20.4836 251.451 22.5361 251.451 24.6763C251.451 26.8165 250.591 28.869 249.058 30.3823C247.526 31.8956 245.448 32.7458 243.281 32.7458Z" fill="#3DB8C1"/>
<path d="M123.335 17.4767C123.371 21.4882 123.371 21.4882 123.335 22.6577C122.961 23.0278 122.961 23.0278 121.545 23.0698C120.914 23.0697 120.282 23.0676 119.651 23.0639C119.154 23.0631 119.154 23.0631 118.646 23.0623C117.583 23.0602 116.52 23.0556 115.456 23.0509C114.737 23.049 114.018 23.0474 113.299 23.0458C111.532 23.0418 109.765 23.0354 107.999 23.0278C107.999 23.7605 107.999 24.4933 107.999 25.2482C108.344 25.2215 108.689 25.1948 109.045 25.1673C113.19 24.8755 117.31 24.8402 121.464 24.8781C121.507 31.18 121.478 37.4751 121.301 43.7749C121.29 44.1916 121.29 44.1916 121.279 44.6166C121.257 45.4121 121.233 46.2075 121.209 47.0029C121.195 47.4566 121.181 47.9103 121.167 48.3778C121.089 49.6897 120.923 50.9658 120.716 52.2635C119.695 52.0963 118.674 51.9263 117.654 51.7546C117.366 51.7079 117.079 51.6611 116.782 51.6129C113.061 50.9809 113.061 50.9809 112.113 50.043C112.098 49.303 112.097 48.5626 112.113 47.8226C113.68 47.0932 114.357 47.0824 116.228 47.0824C116.228 41.4648 116.228 35.8471 116.228 30.0591C113.389 30.0591 110.55 30.0591 107.625 30.0591C107.629 30.7885 107.633 31.5179 107.638 32.2695C107.662 38.2057 107.583 44.1136 107.251 50.043C105.576 50.6743 104.638 50.7832 102.762 50.7832C102.762 43.9442 102.762 37.1053 102.762 30.0591C99.9229 30.1813 97.0838 30.3034 94.1587 30.4292C94.1617 31.368 94.1617 31.368 94.1647 32.3257C94.1707 34.3892 94.175 36.4528 94.1781 38.5163C94.1801 39.7679 94.1827 41.0195 94.1869 42.2711C94.1918 43.7086 94.1936 45.1462 94.1953 46.5837C94.1972 47.0351 94.1991 47.4865 94.2011 47.9516C94.2012 48.5739 94.2012 48.5739 94.2012 49.2088C94.202 49.5762 94.2029 49.9435 94.2037 50.322C94.1587 51.1532 94.1587 51.1532 93.7847 51.5233C92.2885 51.5764 90.7929 51.5389 89.2961 51.5233C88.8934 45.7007 88.8779 39.8947 88.8986 34.0605C88.9005 33.1298 88.9022 32.1991 88.9037 31.2684C88.9078 29.0149 88.9143 26.7615 88.922 24.5081C90.5267 24.5081 92.1314 24.5081 93.7847 24.5081C93.9081 24.9966 94.0316 25.4851 94.1587 25.9883C94.3723 25.9616 94.5859 25.9349 94.806 25.9074C97.4641 25.6064 100.089 25.581 102.762 25.6183C102.762 24.7634 102.762 23.9085 102.762 23.0278C102.105 23.0307 102.105 23.0307 101.435 23.0336C99.8132 23.0403 98.1918 23.0446 96.5703 23.0481C95.8679 23.05 95.1655 23.0525 94.463 23.0557C93.4547 23.0602 92.4464 23.0623 91.4381 23.0639C91.1229 23.0658 90.8076 23.0677 90.4828 23.0697C88.2591 23.0699 88.2591 23.0699 87.4258 22.6577C87.2709 21.893 87.2709 21.893 87.192 20.9692C87.1641 20.6635 87.1361 20.3577 87.1073 20.0426C87.089 19.8065 87.0706 19.5703 87.0518 19.3271C88.3551 18.8972 89.4703 18.8505 90.8443 18.7791C91.1152 18.7646 91.3861 18.7501 91.6651 18.7352C92.5635 18.6875 93.4619 18.6422 94.3604 18.597C94.9893 18.5645 95.6182 18.5318 96.2471 18.4991C97.5696 18.4306 98.8922 18.3632 100.215 18.2966C101.892 18.2121 103.569 18.1248 105.246 18.0365C106.548 17.9684 107.85 17.9018 109.153 17.8356C109.77 17.8041 110.387 17.7721 111.004 17.7395C115.118 17.5237 119.215 17.4375 123.335 17.4767Z" fill="#114381"/>
<path d="M191.039 15.9963C192.52 16.1185 194.001 16.2406 195.527 16.3664C195.713 19.8469 195.713 19.8469 195.902 23.3978C197.928 22.7911 197.928 22.7911 199.952 22.1799C200.207 22.1047 200.461 22.0296 200.723 21.9522C200.982 21.8747 201.24 21.7971 201.507 21.7173C202.26 21.5474 202.26 21.5474 203.757 21.5474C203.845 24.9889 203.607 28.3725 203.298 31.7962C203.218 32.6826 203.142 33.5692 203.066 34.4558C203.016 35.0223 202.967 35.5887 202.916 36.1551C202.883 36.5506 202.883 36.5506 202.848 36.9541C202.747 38.0523 202.614 39 202.26 40.051C199.939 39.8722 197.772 39.5576 195.527 38.9408C195.404 39.7957 195.281 40.6505 195.153 41.5313C193.635 42.0903 192.705 42.2715 191.039 42.2715C190.915 38.1192 190.792 33.967 190.665 29.689C189.369 29.8722 189.369 29.8722 188.046 30.0591C188.17 35.4325 188.293 40.806 188.42 46.3422C192.145 46.4028 192.145 46.4028 195.738 46.0416C196.093 45.9857 196.449 45.9299 196.815 45.8724C197.878 45.5722 198.476 45.2529 199.268 44.4919C199.602 43.7443 199.602 43.7443 199.736 42.9422C199.828 42.4766 199.921 42.011 200.016 41.5313C200.757 41.5313 201.497 41.5313 202.26 41.5313C202.577 42.6557 202.887 43.7818 203.196 44.9082C203.285 45.225 203.374 45.5417 203.466 45.8681C203.923 47.5477 204.247 49.0261 204.131 50.7831C200.337 51.1288 196.528 51.2321 192.719 51.2798C192.177 51.2879 191.635 51.2992 191.093 51.3139C190.317 51.334 189.542 51.3418 188.767 51.3469C188.313 51.3542 187.86 51.3616 187.392 51.3691C185.834 51.0924 185.296 50.4947 184.306 49.3028C182.721 46.1659 183.432 41.0548 183.347 37.5762C183.331 36.9529 183.315 36.3296 183.298 35.7063C183.259 34.194 183.221 32.6817 183.184 31.1693C182.567 31.1693 181.949 31.1693 181.314 31.1693C181.19 29.9481 181.067 28.7268 180.939 27.4686C181.557 27.3464 182.174 27.2243 182.81 27.0985C182.808 26.8538 182.806 26.6091 182.804 26.357C182.796 25.2549 182.791 24.1529 182.786 23.0508C182.783 22.6656 182.78 22.2804 182.777 21.8835C182.776 21.5174 182.774 21.1513 182.773 20.774C182.771 20.4349 182.769 20.0957 182.767 19.7463C182.81 18.9569 182.81 18.9569 183.184 18.5868C183.933 18.6105 184.681 18.6611 185.428 18.7256C185.837 18.759 186.246 18.7924 186.667 18.8268C187.672 18.9569 187.672 18.9569 188.046 19.327C188.074 20.3864 188.081 21.4367 188.07 22.4957C188.068 22.7941 188.066 23.0925 188.065 23.3999C188.06 24.1394 188.054 24.8788 188.046 25.6182C188.91 25.2518 189.775 24.8855 190.665 24.508C190.788 21.6991 190.912 18.8903 191.039 15.9963ZM195.527 28.2087C195.527 30.8954 195.527 33.5822 195.527 36.3503C196.515 36.1061 197.502 35.8618 198.52 35.6102C198.52 33.0456 198.52 30.481 198.52 27.8386C197.515 27.8386 196.519 28.0452 195.527 28.2087Z" fill="#114381"/>
<path d="M158.87 24.138C159.507 24.9388 159.507 24.9388 160.085 25.8496C160.377 26.3032 160.377 26.3032 160.676 26.7661C160.82 26.9979 160.965 27.2298 161.114 27.4686C159.258 29.9132 157.345 32.3616 155.129 34.5C153.633 35.9441 152.09 37.3474 150.868 38.3727C149.792 39.2527 148.396 40.4212 147.274 41.1613C145.434 42.2403 143.946 43.3664 142.037 44.1219C142.037 44.3661 142.037 44.6104 142.037 44.862C149.163 46.2796 156.524 45.546 163.732 45.2321C164.238 46.7343 163.789 47.368 163.195 48.8172C162.929 49.4719 162.929 49.4719 162.658 50.1399C162.519 50.4743 162.38 50.8087 162.236 51.1532C160.114 51.1716 157.991 51.185 155.869 51.1939C155.148 51.1976 154.427 51.2026 153.706 51.2091C152.665 51.2181 151.624 51.2223 150.583 51.2255C150.265 51.2293 149.947 51.2332 149.62 51.2371C146.136 51.2377 143.285 50.4164 140.167 48.9328C139.789 48.7802 139.411 48.6275 139.022 48.4702C137.408 47.5193 136.207 46.2119 134.93 44.862C134.181 45.6029 133.827 46.2075 133.341 47.1287C132.4 48.8432 131.291 50.367 130.068 51.8934C127.987 51.7144 127.987 51.7144 127.308 50.9205C126.958 49.6002 127.576 48.725 128.174 47.5682C130.128 43.5236 131.174 39.193 132.312 34.8701C133.696 34.469 134.375 34.588 135.725 35.1245C136.05 35.2481 136.375 35.3716 136.71 35.4989C137.549 35.9803 137.549 35.9803 138.082 36.6568C138.38 37.7721 138.064 38.3031 137.572 39.3341C136.839 40.7539 136.839 40.7539 137.175 42.2715C138.814 41.7269 140.065 40.8471 141.406 39.7967C141.62 39.6315 141.833 39.4664 142.053 39.2962C146.049 36.1854 149.213 32.8645 152.511 28.9489C141.587 28.7657 141.587 28.7657 130.442 28.5789C130.009 27.2935 130.042 26.2249 130.068 24.8781C135.828 24.3385 141.571 24.0264 147.354 23.8945C150.344 23.8284 150.344 23.8284 153.329 23.6496C153.71 23.6193 153.71 23.6193 154.1 23.5885C154.803 23.53 155.506 23.4656 156.209 23.4008C157.381 23.3978 157.916 23.49 158.87 24.138Z" fill="#3DB8C1"/>
<path d="M48.8987 17.4767C50.6268 17.4767 52.355 17.4767 54.1354 17.4767C54.1354 17.8431 54.1354 18.2095 54.1354 18.5869C54.5358 18.5533 54.9362 18.5197 55.3486 18.485C56.8898 18.3567 58.4314 18.234 59.9731 18.1126C60.6299 18.0602 61.2866 18.0064 61.9431 17.9511C67.6994 17.4673 73.4218 17.413 79.1969 17.4767C79.1991 17.7186 79.2013 17.9604 79.2035 18.2096C79.2277 20.7557 79.2593 23.3016 79.295 25.8476C79.3074 26.7943 79.3179 27.7411 79.3265 28.6878C79.3956 36.2863 79.3956 36.2863 80.6931 43.7518C81.1868 43.1412 81.6806 42.5306 82.1893 41.9015C82.9299 42.2678 82.9299 42.2678 83.6855 42.6416C83.119 45.7755 82.2926 48.8265 81.4412 51.8934C80.0463 51.7989 79.3772 51.6983 78.3626 50.7138C74.0191 44.5381 74.2157 37.7559 74.1004 30.4755C74.0541 27.8956 74.0078 25.3158 73.9602 22.6577C67.418 22.5356 60.8758 22.4135 54.1354 22.2877C54.1509 23.8829 54.1663 25.4781 54.1822 27.1217C54.1884 32.7596 53.5869 37.6525 52.1483 43.1042C52.0422 43.5076 51.9361 43.911 51.8268 44.3266C51.0928 46.9813 50.1273 49.4248 48.8987 51.8934C48.1581 51.7713 47.4175 51.6492 46.6544 51.5234C46.2001 50.1749 46.4158 49.6376 46.7801 48.2765C47.4388 45.5902 47.7662 42.9406 48.0104 40.1899C48.0451 39.8127 48.0451 39.8127 48.0805 39.4278C48.7421 32.1303 48.8032 24.7988 48.8987 17.4767Z" fill="#114381"/>
<path d="M171.588 17.4767C173.316 17.4767 175.044 17.4767 176.824 17.4767C177.149 19.4017 177.245 21.2402 177.222 23.1897C177.22 23.4604 177.218 23.7311 177.217 24.01C177.212 24.6695 177.206 25.3289 177.198 25.9883C177.684 25.9807 178.171 25.9731 178.671 25.9652C179.178 25.9573 179.685 25.9619 180.191 25.9883C180.565 26.3584 180.565 26.3584 180.615 27.353C180.614 27.7575 180.613 28.1621 180.612 28.5788C180.613 29.1856 180.613 29.1856 180.615 29.8047C180.565 30.7993 180.565 30.7993 180.191 31.1693C178.956 31.1693 177.722 31.1693 176.45 31.1693C176.45 34.2224 176.45 37.2755 176.45 40.4211C177.561 40.1769 178.672 39.9327 179.817 39.681C180.311 39.681 180.804 39.681 181.313 39.681C181.57 40.8143 181.57 40.8143 181.313 42.2715C179.124 44.2798 176.262 45.3092 173.494 46.2917C172.159 46.7767 170.887 47.355 169.608 47.97C169.292 48.0802 169.292 48.0802 168.969 48.1927C168.722 48.0705 168.476 47.9484 168.221 47.8226C167.755 45.9786 167.818 44.1586 167.847 42.2715C169.699 41.9051 169.699 41.9051 171.588 41.5314C171.588 38.1119 171.588 34.6924 171.588 31.1693C170.6 31.1693 169.613 31.1693 168.595 31.1693C168.03 29.667 167.847 28.7468 167.847 27.0986C169.082 26.9764 170.316 26.8543 171.588 26.7285C171.588 23.6754 171.588 20.6223 171.588 17.4767Z" fill="#114381"/>
<path d="M146.9 15.9964C147.147 16.1185 147.394 16.2406 147.648 16.3665C148.397 16.9216 149.02 17.6008 149.519 18.5869C149.772 20.757 149.772 20.757 149.127 21.8279C148.458 22.6341 147.851 23.2977 146.9 23.7679C145.36 23.9117 144.548 23.9375 143.23 23.0971C142.172 22.0507 141.698 21.4348 141.5 19.9515C141.716 18.1521 142.255 17.6316 143.534 16.3665C144.651 15.814 145.669 15.9529 146.9 15.9964Z" fill="#3DB8C1"/>
<path d="M100.892 39.3109C101.713 39.9918 101.958 40.4539 102.131 41.4938C102.214 42.8732 102.184 43.5337 101.313 44.6538C99.9841 45.6207 99.1784 45.7304 97.526 45.6021C96.474 45.2552 96.474 45.2552 95.6557 44.4919C95.1569 42.9206 95.1065 41.6139 95.7025 40.0742C97.3379 38.2943 98.713 38.4324 100.892 39.3109Z" fill="#114381"/>
<path d="M112.802 38.7934C113.954 39.0036 114.441 39.4894 115.106 40.4211C115.646 41.4901 115.621 42.1962 115.48 43.3817C114.566 44.5783 113.939 45.1304 112.488 45.579C111.237 45.6048 110.563 45.5076 109.495 44.862C108.769 43.7199 108.745 43.0469 108.817 41.6933C109.424 39.1546 110.234 38.686 112.802 38.7934Z" fill="#3DB8C1"/>
<path d="M111.482 31.0074C112.928 31.0257 113.126 31.0639 114.218 32.1177C114.919 33.0197 114.545 35.4252 114.358 35.9803C114.171 36.5354 113.61 37.2755 112.862 37.4606C112.114 37.6456 110.6 37.702 109.355 36.8592C108.598 35.7643 108.4 35.0882 108.373 33.7599C108.56 32.0945 109.483 31.1143 111.482 31.0074Z" fill="#114381"/>
<path d="M99.3964 31.1694C100.622 32.1953 100.867 32.7791 101.033 34.3613C100.912 35.4393 100.479 36.9251 99.3964 37.4606C98.3273 37.5488 97.452 37.6169 96.404 37.4606C95.2785 36.5141 94.9568 35.9429 94.7441 34.5C94.9276 33.2554 95.2753 32.5445 96.0299 31.5395C97.2002 30.9606 98.1082 31.0375 99.3964 31.1694Z" fill="#3DB8C1"/>
<path d="M67.6015 49.8764H57.128C56.7312 49.8764 56.3507 49.701 56.0701 49.3887C55.7895 49.0764 55.6318 48.6528 55.6318 48.2111C55.6318 47.7694 55.7895 47.3458 56.0701 47.0335C56.3507 46.7212 56.7312 46.5458 57.128 46.5458H67.6015C67.9983 46.5458 68.3789 46.7212 68.6595 47.0335C68.94 47.3458 69.0977 47.7694 69.0977 48.2111C69.0977 48.6528 68.94 49.0764 68.6595 49.3887C68.3789 49.701 67.9983 49.8764 67.6015 49.8764Z" fill="#3DB8C1"/>
<path d="M73.3009 49.7008C72.9934 49.9041 72.6318 50.0126 72.2619 50.0126C71.7658 50.0126 71.2901 49.8177 70.9394 49.4707C70.5886 49.1236 70.3916 48.653 70.3916 48.1622C70.3916 47.7963 70.5013 47.4385 70.7068 47.1342C70.9123 46.83 71.2044 46.5928 71.5461 46.4527C71.8879 46.3127 72.2639 46.276 72.6267 46.3474C72.9895 46.4188 73.3228 46.5951 73.5843 46.8538C73.8459 47.1126 74.024 47.4423 74.0962 47.8013C74.1683 48.1602 74.1313 48.5322 73.9897 48.8704C73.8482 49.2085 73.6085 49.4974 73.3009 49.7008Z" fill="#3DB8C1"/>
<path fill-rule="evenodd" clip-rule="evenodd" d="M55.4588 30.5513C56.4159 30.1455 58.246 29.8229 59.2888 30.1456C59.8166 30.3088 59.8745 30.4111 60.0559 30.731L60.0559 30.731C60.1059 30.8192 60.1654 30.9241 60.2466 31.0513C63.1191 30.0514 72.6961 30.5513 72.6961 30.5513L72.2173 42.5513C72.2173 42.5513 67.9076 43.5513 64.5558 43.5513C61.204 43.5513 56.4163 43.0513 56.4163 43.0513C56.4163 43.0513 54.0228 31.9569 55.4588 30.5513ZM62.6407 34.6455H60.2466L60.2466 36.512L60.2467 38.6455C60.3056 38.6455 60.3817 38.6475 60.4704 38.6499H60.4705C61.1026 38.6665 62.3752 38.7001 62.6407 38.1455V34.6455ZM65.9928 34.6455H68.3869V38.1455C68.1214 38.7001 66.8488 38.6665 66.2167 38.6499C66.1279 38.6475 66.0518 38.6455 65.9929 38.6455C65.9928 38.1162 65.9928 37.3069 65.9928 36.5139C65.9929 35.8086 65.9929 35.1162 65.9928 34.6455Z" fill="#114381"/>
<rect x="62.6611" y="28.0139" width="3.8306" height="6" fill="#114381"/>
<path d="M55.6585 29.0492C55.0005 28.5139 55.0011 27.5139 55.1797 26.5492C57.8736 26.0139 70.9805 22.5492 71.4593 23.0492C71.9382 23.5492 73.6747 27.5139 72.717 28.0139C71.7594 28.5139 57.095 29.5492 55.6585 29.0492Z" fill="#114381"/>
<path d="M20.8501 43.505H10.2857C9.55958 43.505 8.8632 43.2216 8.34975 42.7172C7.8363 42.2128 7.54785 41.5286 7.54785 40.8152C7.54785 40.1018 7.8363 39.4176 8.34975 38.9132C8.8632 38.4088 9.55958 38.1254 10.2857 38.1254H20.8501C21.5762 38.1254 22.2726 38.4088 22.786 38.9132C23.2995 39.4176 23.5879 40.1018 23.5879 40.8152C23.5879 41.5286 23.2995 42.2128 22.786 42.7172C22.2726 43.2216 21.5762 43.505 20.8501 43.505Z" fill="#3DB8C1"/>
<path d="M215.467 32.4869C214.982 32.8082 214.412 32.9797 213.828 32.9797C213.046 32.9797 212.296 32.6716 211.743 32.1233C211.191 31.575 210.88 30.8314 210.88 30.0559C210.88 29.4777 211.053 28.9124 211.377 28.4316C211.701 27.9508 212.161 27.576 212.7 27.3548C213.239 27.1335 213.832 27.0756 214.404 27.1884C214.976 27.3012 215.501 27.5797 215.913 27.9885C216.326 28.3974 216.607 28.9184 216.72 29.4855C216.834 30.0527 216.776 30.6406 216.553 31.1748C216.329 31.709 215.951 32.1657 215.467 32.4869Z" fill="#3DB8C1"/>
<path d="M33.1287 43.0123C32.6438 43.3336 32.0737 43.5051 31.4905 43.5051C30.7085 43.5051 29.9586 43.197 29.4056 42.6487C28.8526 42.1004 28.542 41.3567 28.542 40.5813C28.542 40.0031 28.7149 39.4378 29.0389 38.957C29.3629 38.4762 29.8234 38.1014 30.3622 37.8801C30.901 37.6589 31.4938 37.601 32.0658 37.7138C32.6377 37.8266 33.1631 38.105 33.5755 38.5139C33.9878 38.9228 34.2687 39.4438 34.3824 40.0109C34.4962 40.5781 34.4378 41.1659 34.2146 41.7002C33.9915 42.2344 33.6135 42.691 33.1287 43.0123Z" fill="#3DB8C1"/>
</svg>
