<svg width="258" height="69" viewBox="0 0 258 69" fill="none" xmlns="http://www.w3.org/2000/svg">
<path d="M37.0034 32.7458H18.1888C17.4759 32.7458 16.7923 32.4624 16.2882 31.9579C15.7842 31.4535 15.501 30.7693 15.501 30.0559C15.501 29.3425 15.7842 28.6584 16.2882 28.1539C16.7923 27.6495 17.4759 27.3661 18.1888 27.3661H37.0034C37.7163 27.3661 38.3999 27.6495 38.904 28.1539C39.4081 28.6584 39.6912 29.3425 39.6912 30.0559C39.6912 30.7693 39.4081 31.4535 38.904 31.9579C38.3999 32.4624 37.7163 32.7458 37.0034 32.7458Z" fill="#CFDF8C"/>
<path d="M212.663 38.5932H223.466C225.615 38.5932 227.676 39.468 229.196 41.0252C230.715 42.5824 231.569 44.6944 231.569 46.8966C231.569 49.0988 230.715 51.2108 229.196 52.768C227.676 54.3252 225.615 55.2 223.466 55.2C222.045 55.194 220.65 54.8126 219.415 54.0929C219.092 53.9198 218.807 53.6817 218.576 53.3927C218.346 53.1038 218.174 52.77 218.073 52.4115C217.971 52.053 217.942 51.6772 217.986 51.3066C218.03 50.936 218.146 50.5784 218.329 50.2552C218.511 49.9321 218.755 49.65 219.046 49.426C219.338 49.2021 219.67 49.0408 220.024 48.952C220.378 48.8632 220.746 48.8487 221.105 48.9093C221.465 48.9698 221.808 49.1043 222.116 49.3046C222.531 49.5337 222.994 49.6571 223.466 49.6644C224.182 49.6644 224.869 49.3728 225.376 48.8537C225.882 48.3347 226.167 47.6307 226.167 46.8966C226.167 46.1625 225.882 45.4585 225.376 44.9395C224.869 44.4204 224.182 44.1288 223.466 44.1288H212.663C211.946 44.1288 211.259 43.8372 210.753 43.3181C210.246 42.7991 209.962 42.0951 209.962 41.361C209.962 40.6269 210.246 39.9229 210.753 39.4039C211.259 38.8848 211.946 38.5932 212.663 38.5932Z" fill="#CFDF8C"/>
<path d="M242.223 32.7457H223.242C222.523 32.7457 221.833 32.4623 221.324 31.9579C220.816 31.4535 220.53 30.7693 220.53 30.0559C220.53 29.3425 220.816 28.6583 221.324 28.1539C221.833 27.6495 222.523 27.3661 223.242 27.3661H242.223C242.942 27.3661 243.631 27.0827 244.14 26.5782C244.648 26.0738 244.934 25.3896 244.934 24.6762C244.934 23.9629 244.648 23.2787 244.14 22.7742C243.631 22.2698 242.942 21.9864 242.223 21.9864C241.749 21.9935 241.284 22.1134 240.867 22.3361C240.559 22.5151 240.218 22.632 239.865 22.6802C239.511 22.7283 239.152 22.7068 238.807 22.6169C238.462 22.5269 238.138 22.3703 237.854 22.1559C237.57 21.9416 237.331 21.6737 237.152 21.3678C236.973 21.0607 236.856 20.7216 236.81 20.3698C236.763 20.0181 236.787 19.6606 236.88 19.3181C236.974 18.9756 237.134 18.6547 237.353 18.3741C237.572 18.0934 237.845 17.8584 238.155 17.6827C239.395 16.9832 240.796 16.6126 242.223 16.6068C244.38 16.6068 246.449 17.4569 247.975 18.9703C249.5 20.4836 250.357 22.5361 250.357 24.6762C250.357 26.8164 249.5 28.8689 247.975 30.3822C246.449 31.8956 244.38 32.7457 242.223 32.7457Z" fill="#CFDF8C"/>
<path d="M122.798 17.4767C122.834 21.4882 122.834 21.4882 122.798 22.6577C122.426 23.0278 122.426 23.0278 121.016 23.0698C120.387 23.0697 119.759 23.0676 119.13 23.0639C118.635 23.0631 118.635 23.0631 118.13 23.0623C117.071 23.0602 116.013 23.0556 114.954 23.0509C114.238 23.049 113.522 23.0474 112.806 23.0458C111.047 23.0418 109.288 23.0354 107.529 23.0278C107.529 23.7605 107.529 24.4933 107.529 25.2482C107.872 25.2215 108.216 25.1948 108.57 25.1673C112.697 24.8755 116.799 24.8402 120.936 24.8781C120.978 31.18 120.95 37.4751 120.773 43.7749C120.762 44.1916 120.762 44.1916 120.751 44.6166C120.729 45.4121 120.706 46.2075 120.681 47.0029C120.668 47.4566 120.654 47.9103 120.64 48.3778C120.562 49.6897 120.397 50.9658 120.191 52.2635C119.174 52.0963 118.158 51.9263 117.142 51.7546C116.855 51.7079 116.569 51.6611 116.274 51.6129C112.569 50.9809 112.569 50.9809 111.625 50.043C111.61 49.303 111.609 48.5626 111.625 47.8226C113.185 47.0932 113.859 47.0824 115.722 47.0824C115.722 41.4648 115.722 35.8471 115.722 30.0591C112.895 30.0591 110.068 30.0591 107.156 30.0591C107.16 30.7885 107.165 31.5179 107.169 32.2695C107.193 38.2057 107.115 44.1136 106.784 50.043C105.116 50.6743 104.183 50.7832 102.315 50.7832C102.315 43.9442 102.315 37.1053 102.315 30.0591C99.4879 30.1813 96.6612 30.3034 93.7489 30.4292C93.7518 31.368 93.7518 31.368 93.7548 32.3257C93.7608 34.3892 93.7651 36.4528 93.7682 38.5163C93.7701 39.7679 93.7728 41.0195 93.777 42.2711C93.7818 43.7086 93.7836 45.1462 93.7853 46.5837C93.7872 47.0351 93.7891 47.4865 93.7911 47.9516C93.7911 48.5739 93.7911 48.5739 93.7912 49.2088C93.792 49.5762 93.7928 49.9435 93.7937 50.322C93.7489 51.1532 93.7489 51.1532 93.3765 51.5233C91.8868 51.5764 90.3977 51.5389 88.9074 51.5233C88.5065 45.7007 88.4911 39.8947 88.5117 34.0605C88.5136 33.1298 88.5153 32.1991 88.5168 31.2684C88.5208 29.0149 88.5272 26.7615 88.535 24.5081C90.1327 24.5081 91.7304 24.5081 93.3765 24.5081C93.4994 24.9966 93.6223 25.4851 93.7489 25.9883C93.9616 25.9616 94.1742 25.9349 94.3934 25.9074C97.0399 25.6064 99.6529 25.581 102.315 25.6183C102.315 24.7634 102.315 23.9085 102.315 23.0278C101.661 23.0307 101.661 23.0307 100.993 23.0336C99.3788 23.0403 97.7644 23.0446 96.15 23.0481C95.4506 23.05 94.7512 23.0525 94.0519 23.0557C93.0479 23.0602 92.044 23.0623 91.0401 23.0639C90.7262 23.0658 90.4124 23.0677 90.089 23.0697C87.8749 23.0699 87.8749 23.0699 87.0453 22.6577C86.8911 21.893 86.8911 21.893 86.8125 20.9692C86.7847 20.6635 86.7568 20.3577 86.7281 20.0426C86.7099 19.8065 86.6916 19.5703 86.6729 19.3271C87.9705 18.8972 89.0808 18.8505 90.4489 18.7791C90.7186 18.7646 90.9883 18.7501 91.2662 18.7352C92.1606 18.6875 93.0551 18.6422 93.9497 18.597C94.5758 18.5645 95.202 18.5318 95.8282 18.4991C97.1449 18.4306 98.4617 18.3632 99.7786 18.2966C101.448 18.2121 103.118 18.1248 104.788 18.0365C106.084 17.9684 107.381 17.9018 108.678 17.8356C109.292 17.8041 109.906 17.7721 110.521 17.7395C114.617 17.5237 118.696 17.4375 122.798 17.4767Z" fill="#3C6822"/>
<path d="M190.207 15.9964C191.682 16.1185 193.156 16.2406 194.676 16.3665C194.86 19.847 194.86 19.847 195.048 23.3978C197.065 22.7911 197.065 22.7911 199.081 22.1799C199.335 22.1048 199.588 22.0297 199.849 21.9522C200.107 21.8747 200.364 21.7972 200.629 21.7173C201.38 21.5475 201.38 21.5475 202.869 21.5475C202.957 24.989 202.72 28.3725 202.412 31.7963C202.333 32.6826 202.257 33.5692 202.182 34.4559C202.132 35.0224 202.083 35.5888 202.033 36.1552C201.999 36.5507 201.999 36.5507 201.964 36.9542C201.864 38.0524 201.732 39.0001 201.38 40.0511C199.068 39.8723 196.911 39.5577 194.676 38.9409C194.553 39.7957 194.43 40.6506 194.303 41.5314C192.792 42.0904 191.866 42.2715 190.207 42.2715C190.084 38.1193 189.961 33.9671 189.834 29.6891C188.544 29.8722 188.544 29.8722 187.227 30.0591C187.35 35.4326 187.473 40.806 187.6 46.3423C191.308 46.4028 191.308 46.4028 194.885 46.0416C195.239 45.9858 195.593 45.93 195.958 45.8725C197.016 45.5722 197.611 45.2529 198.4 44.4919C198.733 43.7444 198.733 43.7444 198.866 42.9423C198.958 42.4767 199.05 42.0111 199.145 41.5314C199.882 41.5314 200.62 41.5314 201.38 41.5314C201.694 42.6558 202.003 43.7818 202.311 44.9083C202.399 45.225 202.488 45.5418 202.58 45.8681C203.035 47.5478 203.358 49.0261 203.242 50.7832C199.464 51.1289 195.672 51.2322 191.88 51.2798C191.34 51.2879 190.8 51.2993 190.26 51.314C189.488 51.3341 188.717 51.3419 187.945 51.3469C187.493 51.3543 187.041 51.3616 186.576 51.3692C185.025 51.0925 184.489 50.4948 183.503 49.3029C181.925 46.166 182.633 41.0549 182.549 37.5762C182.533 36.9529 182.516 36.3296 182.5 35.7063C182.461 34.194 182.423 32.6817 182.386 31.1693C181.771 31.1693 181.157 31.1693 180.524 31.1693C180.401 29.9481 180.278 28.7269 180.151 27.4686C180.766 27.3465 181.38 27.2244 182.013 27.0986C182.012 26.8539 182.01 26.6092 182.008 26.3571C182 25.255 181.995 24.153 181.99 23.0509C181.987 22.6657 181.984 22.2805 181.981 21.8836C181.98 21.5174 181.978 21.1513 181.977 20.7741C181.975 20.4349 181.973 20.0958 181.971 19.7464C182.013 18.957 182.013 18.957 182.386 18.5869C183.132 18.6106 183.877 18.6612 184.62 18.7257C185.028 18.7591 185.435 18.7925 185.854 18.8269C186.855 18.957 186.855 18.957 187.227 19.327C187.255 20.3864 187.262 21.4367 187.251 22.4958C187.249 22.7942 187.247 23.0926 187.246 23.4C187.241 24.1394 187.235 24.8789 187.227 25.6183C188.088 25.2519 188.948 24.8855 189.834 24.5081C189.957 21.6992 190.08 18.8904 190.207 15.9964ZM194.676 28.2088C194.676 30.8955 194.676 33.5822 194.676 36.3504C195.659 36.1061 196.642 35.8619 197.655 35.6102C197.655 33.0456 197.655 30.481 197.655 27.8387C196.654 27.8387 195.663 28.0453 194.676 28.2088Z" fill="#3C6822"/>
<path d="M158.178 24.138C158.812 24.9388 158.812 24.9388 159.388 25.8496C159.679 26.3032 159.679 26.3032 159.976 26.7661C160.12 26.9979 160.264 27.2298 160.413 27.4686C158.565 29.9132 156.66 32.3616 154.454 34.5C152.964 35.9441 151.428 37.3474 150.211 38.3728C149.14 39.2527 147.75 40.4212 146.633 41.1613C144.801 42.2403 143.32 43.3664 141.419 44.1219C141.419 44.3661 141.419 44.6104 141.419 44.862C148.514 46.2796 155.843 45.546 163.02 45.2321C163.524 46.7343 163.076 47.368 162.484 48.8172C162.22 49.4719 162.22 49.4719 161.95 50.1399C161.812 50.4743 161.673 50.8087 161.53 51.1532C159.417 51.1716 157.304 51.185 155.19 51.1939C154.473 51.1976 153.755 51.2026 153.037 51.2091C152.001 51.2181 150.964 51.2223 149.928 51.2255C149.611 51.2293 149.295 51.2332 148.968 51.2371C145.5 51.2377 142.661 50.4164 139.557 48.9328C139.181 48.7802 138.804 48.6275 138.416 48.4702C136.81 47.5193 135.614 46.2119 134.343 44.862C133.597 45.6029 133.245 46.2075 132.76 47.1287C131.823 48.8432 130.719 50.367 129.502 51.8934C127.43 51.7144 127.43 51.7144 126.753 50.9205C126.405 49.6002 127.021 48.725 127.616 47.5682C129.562 43.5236 130.603 39.193 131.736 34.8701C133.114 34.469 133.79 34.588 135.134 35.1245C135.458 35.2481 135.782 35.3716 136.115 35.4989C136.95 35.9803 136.95 35.9803 137.481 36.6568C137.778 37.7721 137.463 38.3031 136.973 39.3341C136.243 40.7539 136.243 40.7539 136.578 42.2715C138.21 41.7269 139.455 40.8471 140.791 39.7967C141.003 39.6315 141.216 39.4664 141.435 39.2962C145.413 36.1854 148.563 32.8645 151.847 28.9489C140.97 28.7657 140.97 28.7657 129.874 28.5789C129.443 27.2935 129.476 26.2249 129.502 24.8781C135.237 24.3385 140.955 24.0264 146.712 23.8945C149.689 23.8284 149.689 23.8284 152.661 23.6496C153.041 23.6193 153.041 23.6193 153.429 23.5885C154.129 23.53 154.829 23.4656 155.529 23.4008C156.695 23.3978 157.229 23.49 158.178 24.138Z" fill="#CFDF8C"/>
<path d="M48.6857 17.4767C50.4063 17.4767 52.1269 17.4767 53.8996 17.4767C53.8996 17.843 53.8996 18.2094 53.8996 18.5869C54.2982 18.5532 54.6968 18.5196 55.1075 18.485C56.642 18.3566 58.1769 18.2339 59.7119 18.1125C60.3658 18.0601 61.0196 18.0064 61.6733 17.951C67.4045 17.4672 73.102 17.4129 78.852 17.4767C78.8542 17.7185 78.8564 17.9604 78.8586 18.2095C78.8827 20.7556 78.9141 23.3016 78.9497 25.8476C78.962 26.7943 78.9725 27.741 78.981 28.6878C79.0499 36.2863 79.0499 36.2863 80.3417 43.7518C80.8333 43.1412 81.3249 42.5305 81.8314 41.9014C82.5688 42.2678 82.5688 42.2678 83.3211 42.6416C82.7571 45.7755 81.9343 48.8264 81.0865 51.8934C79.6977 51.7989 79.0315 51.6983 78.0213 50.7138C73.6967 44.5381 73.8925 37.7558 73.7777 30.4754C73.7316 27.8956 73.6855 25.3157 73.6381 22.6577C67.1244 22.5355 60.6107 22.4134 53.8996 22.2876C53.915 23.8828 53.9303 25.4781 53.9462 27.1217C53.9523 32.7595 53.3535 37.6524 51.9211 43.1042C51.8155 43.5076 51.7098 43.911 51.601 44.3266C50.8703 46.9813 49.909 49.4247 48.6857 51.8934C47.9483 51.7712 47.2109 51.6491 46.4512 51.5233C45.9988 50.1749 46.2135 49.6375 46.5763 48.2765C47.2321 45.5902 47.558 42.9405 47.8012 40.1898C47.8358 39.8126 47.8358 39.8126 47.8711 39.4277C48.5298 32.1302 48.5906 24.7987 48.6857 17.4767Z" fill="#3C6822"/>
<path d="M170.841 17.4767C172.561 17.4767 174.282 17.4767 176.055 17.4767C176.378 19.4017 176.474 21.2402 176.45 23.1897C176.449 23.4604 176.447 23.7311 176.445 24.01C176.441 24.6695 176.434 25.3289 176.427 25.9883C176.911 25.9807 177.395 25.9731 177.894 25.9652C178.398 25.9573 178.903 25.9619 179.407 25.9883C179.779 26.3584 179.779 26.3584 179.828 27.353C179.828 27.7575 179.827 28.1621 179.826 28.5788C179.827 29.1856 179.827 29.1856 179.828 29.8047C179.779 30.7993 179.779 30.7993 179.407 31.1693C178.178 31.1693 176.949 31.1693 175.682 31.1693C175.682 34.2224 175.682 37.2755 175.682 40.4211C176.788 40.1769 177.895 39.9327 179.034 39.681C179.526 39.681 180.017 39.681 180.524 39.681C180.78 40.8143 180.78 40.8143 180.524 42.2715C178.345 44.2798 175.495 45.3092 172.739 46.2917C171.409 46.7767 170.143 47.355 168.87 47.97C168.555 48.0802 168.555 48.0802 168.234 48.1927C167.988 48.0705 167.742 47.9484 167.489 47.8226C167.025 45.9786 167.088 44.1586 167.117 42.2715C168.96 41.9051 168.96 41.9051 170.841 41.5314C170.841 38.1119 170.841 34.6924 170.841 31.1693C169.858 31.1693 168.874 31.1693 167.861 31.1693C167.299 29.667 167.117 28.7468 167.117 27.0986C168.346 26.9764 169.575 26.8543 170.841 26.7285C170.841 23.6754 170.841 20.6223 170.841 17.4767Z" fill="#3C6822"/>
<path d="M146.261 15.9964C146.506 16.1185 146.752 16.2406 147.005 16.3665C147.75 16.9216 148.371 17.6008 148.868 18.5869C149.12 20.757 149.12 20.757 148.478 21.8279C147.811 22.6341 147.207 23.2977 146.261 23.7679C144.727 23.9117 143.918 23.9375 142.606 23.0971C141.553 22.0507 141.081 21.4348 140.884 19.9515C141.099 18.1521 141.636 17.6316 142.909 16.3665C144.021 15.814 145.035 15.9529 146.261 15.9964Z" fill="#CFDF8C"/>
<path d="M100.453 39.3109C101.27 39.9918 101.514 40.4539 101.687 41.4938C101.769 42.8732 101.739 43.5337 100.872 44.6538C99.5486 45.6207 98.7463 45.7303 97.1011 45.6021C96.0537 45.2552 96.0537 45.2552 95.239 44.4919C94.7424 42.9206 94.6921 41.6139 95.2856 40.0742C96.9139 38.2943 98.283 38.4324 100.453 39.3109Z" fill="#3C6822"/>
<path d="M112.311 38.7934C113.457 39.0036 113.943 39.4894 114.605 40.4211C115.143 41.4901 115.118 42.1962 114.977 43.3817C114.067 44.5783 113.443 45.1304 111.998 45.579C110.753 45.6048 110.081 45.5076 109.018 44.862C108.296 43.7199 108.272 43.0469 108.343 41.6933C108.947 39.1546 109.754 38.686 112.311 38.7934Z" fill="#CFDF8C"/>
<path d="M110.997 31.0074C112.437 31.0257 112.634 31.0639 113.72 32.1177C114.419 33.0197 114.046 35.4252 113.86 35.9803C113.674 36.5354 113.115 37.2755 112.37 37.4606C111.626 37.6456 110.119 37.702 108.879 36.8592C108.125 35.7643 107.928 35.0882 107.901 33.7599C108.088 32.0945 109.007 31.1143 110.997 31.0074Z" fill="#3C6822"/>
<path d="M98.9631 31.1693C100.183 32.1953 100.428 32.779 100.592 34.3612C100.472 35.4393 100.041 36.9251 98.9631 37.4606C97.8987 37.5487 97.0272 37.6169 95.9837 37.4606C94.8631 36.5141 94.5428 35.9428 94.3311 34.5C94.5137 33.2553 94.8599 32.5444 95.6113 31.5394C96.7764 30.9605 97.6805 31.0375 98.9631 31.1693Z" fill="#CFDF8C"/>
<path d="M67.3072 49.8764H56.8793C56.4843 49.8764 56.1053 49.701 55.826 49.3887C55.5466 49.0764 55.3896 48.6528 55.3896 48.2111C55.3896 47.7694 55.5466 47.3458 55.826 47.0335C56.1053 46.7212 56.4843 46.5458 56.8793 46.5458H67.3072C67.7023 46.5458 68.0812 46.7212 68.3606 47.0335C68.6399 47.3458 68.7969 47.7694 68.7969 48.2111C68.7969 48.6528 68.6399 49.0764 68.3606 49.3887C68.0812 49.701 67.7023 49.8764 67.3072 49.8764Z" fill="#CFDF8C"/>
<path d="M72.9816 49.7008C72.6754 49.9041 72.3154 50.0126 71.9471 50.0126C71.4532 50.0126 70.9796 49.8177 70.6304 49.4707C70.2811 49.1236 70.085 48.653 70.085 48.1622C70.085 47.7963 70.1942 47.4385 70.3988 47.1342C70.6034 46.83 70.8942 46.5928 71.2345 46.4527C71.5747 46.3127 71.9491 46.276 72.3104 46.3474C72.6716 46.4188 73.0034 46.5951 73.2638 46.8538C73.5242 47.1126 73.7016 47.4423 73.7734 47.8013C73.8453 48.1602 73.8084 48.5322 73.6674 48.8704C73.5265 49.2085 73.2878 49.4974 72.9816 49.7008Z" fill="#CFDF8C"/>
<path fill-rule="evenodd" clip-rule="evenodd" d="M55.2175 30.5513C56.1705 30.1455 57.9926 29.8229 59.0309 30.1456C59.5564 30.3088 59.6141 30.4111 59.7946 30.731C59.8444 30.8192 59.9036 30.9241 59.9845 31.0513C62.8445 30.0513 72.3798 30.5513 72.3798 30.5513L71.9031 42.5513C71.9031 42.5513 67.6121 43.5513 64.2749 43.5513C60.9378 43.5513 56.1709 43.0513 56.1709 43.0513C56.1709 43.0513 53.7878 31.9569 55.2175 30.5513ZM62.3682 34.6455H59.9846L59.9846 36.5129L59.9846 38.6455C60.0432 38.6455 60.119 38.6475 60.2074 38.6499H60.2074C60.8368 38.6665 62.1039 38.7001 62.3682 38.1455V34.6455ZM65.7057 34.6455H68.0894V38.1455C67.825 38.7001 66.558 38.6665 65.9286 38.6499C65.8402 38.6475 65.7644 38.6455 65.7058 38.6455C65.7057 38.116 65.7057 37.3062 65.7057 36.5129C65.7058 35.8079 65.7058 35.116 65.7057 34.6455Z" fill="#3C6822"/>
<rect x="62.3887" y="28.0139" width="3.81393" height="6" fill="#3C6822"/>
<path d="M55.4158 29.0492C54.7606 28.5139 54.7612 27.5139 54.939 26.5492C57.6212 26.0139 70.6711 22.5492 71.1478 23.0492C71.6246 23.5492 73.3535 27.5139 72.4 28.0139C71.4465 28.5139 56.846 29.5492 55.4158 29.0492Z" fill="#3C6822"/>
<path d="M20.76 43.5051H10.2416C9.5186 43.5051 8.82524 43.2217 8.31403 42.7173C7.80282 42.2128 7.51562 41.5286 7.51562 40.8153C7.51562 40.1019 7.80282 39.4177 8.31403 38.9133C8.82524 38.4088 9.5186 38.1254 10.2416 38.1254H20.76C21.4829 38.1254 22.1763 38.4088 22.6875 38.9133C23.1987 39.4177 23.4859 40.1019 23.4859 40.8153C23.4859 41.5286 23.1987 42.2128 22.6875 42.7173C22.1763 43.2217 21.4829 43.5051 20.76 43.5051Z" fill="#CFDF8C"/>
<path d="M214.529 32.4869C214.046 32.8082 213.478 32.9797 212.898 32.9797C212.119 32.9797 211.372 32.6716 210.822 32.1233C210.271 31.575 209.962 30.8314 209.962 30.0559C209.962 29.4777 210.134 28.9124 210.457 28.4316C210.779 27.9508 211.238 27.576 211.774 27.3548C212.311 27.1335 212.901 27.0756 213.47 27.1884C214.04 27.3012 214.563 27.5797 214.973 27.9885C215.384 28.3974 215.664 28.9184 215.777 29.4855C215.89 30.0527 215.832 30.6406 215.61 31.1748C215.388 31.709 215.011 32.1657 214.529 32.4869Z" fill="#CFDF8C"/>
<path d="M32.9847 43.0124C32.5019 43.3336 31.9343 43.5051 31.3537 43.5051C30.5751 43.5051 29.8284 43.1971 29.2778 42.6488C28.7273 42.1005 28.418 41.3568 28.418 40.5814C28.418 40.0031 28.5901 39.4379 28.9127 38.957C29.2353 38.4762 29.6938 38.1015 30.2302 37.8802C30.7667 37.6589 31.3569 37.601 31.9264 37.7138C32.4959 37.8266 33.019 38.1051 33.4295 38.514C33.8401 38.9229 34.1197 39.4438 34.233 40.011C34.3463 40.5781 34.2881 41.166 34.0659 41.7002C33.8437 42.2345 33.4674 42.6911 32.9847 43.0124Z" fill="#CFDF8C"/>
</svg>
