<svg width="73" height="73" viewBox="0 0 73 73" fill="none" xmlns="http://www.w3.org/2000/svg">
<path d="M35.5762 0.622185C34.9203 0.92162 0.984299 31.8205 0.61357 32.4621C0.0289585 33.446 0.271358 35.0572 1.09837 35.8129C1.76853 36.4261 2.26759 36.4974 5.77526 36.4974H9.12608L9.1546 45.3949L9.19738 54.3066L11.1651 51.2552C12.263 49.5727 13.3895 47.9187 13.6889 47.5907C14.8439 46.2789 16.7545 45.5375 18.6367 45.6515C20.0483 45.7513 21.2889 46.3645 22.4866 47.5765C23.2993 48.4035 23.556 48.8455 25.3241 52.3674L27.2776 56.2316L30.7995 49.1877C33.309 44.1686 34.5068 41.93 34.9345 41.4594C35.3338 41.0032 35.8899 40.6039 36.6171 40.2474C37.7008 39.7056 37.7008 39.7056 39.4831 39.7056C41.1799 39.7056 41.3225 39.7341 42.0497 40.1048C42.9765 40.6039 44.0602 41.6591 44.5022 42.5003C44.6733 42.8425 45.6999 45.1525 46.7694 47.6192C47.853 50.086 48.7941 52.125 48.8797 52.1535C48.9652 52.1821 49.1934 51.9111 49.4072 51.5547C49.9348 50.6706 50.8331 49.8721 51.9881 49.316C52.9007 48.874 53.0718 48.8312 54.3978 48.8312C56.4796 48.8312 57.3066 49.1735 58.8181 50.6849C59.7164 51.5832 60.1299 52.1393 60.743 53.28L61.5272 54.7487H62.782H64.0225V45.623V36.4974H67.3733C71.1519 36.4974 71.3373 36.4546 72.1786 35.5278C73.0198 34.6009 73.2337 33.3604 72.7347 32.2625C72.5208 31.792 69.0702 28.5837 55.5813 16.3354C46.3131 7.89418 38.485 0.878844 38.2141 0.750515C37.5582 0.436821 36.1323 0.365527 35.5762 0.622185ZM33.3376 24.4059L33.2948 27.443H30.3004H27.3061L27.2633 24.4059L27.2348 21.383H30.3004H33.3661L33.3376 24.4059ZM45.4861 24.4487V27.5143L42.4632 27.4858L39.4261 27.443L39.3833 24.4059L39.3548 21.383H42.4204H45.4861V24.4487ZM33.3661 33.503V36.4974H30.3004H27.2348V33.503V30.5087H30.3004H33.3661V33.503ZM45.4861 33.503V36.4974H42.4204H39.3548V33.503V30.5087H42.4204H45.4861V33.503Z" fill="#EF4444"/>
<path d="M38.6699 42.7856C37.9285 42.9282 37.3153 43.2704 36.9446 43.7694C36.7877 43.9833 34.6204 48.3322 32.1109 53.4369C29.6013 58.5416 27.4767 62.8335 27.4054 62.9618C27.2914 63.1614 26.6212 61.9209 23.9548 56.5881C22.1297 52.9521 20.547 49.8579 20.4044 49.7011C19.7199 48.9169 18.1372 48.6745 17.0393 49.1735C16.2551 49.53 15.9699 49.8865 13.1181 54.0785L10.6371 57.7431H5.31854H0V60.8087V63.8886L6.38795 63.8458C14.4157 63.7888 13.6599 64.074 16.0127 60.3097C16.8111 59.0121 17.5241 57.9712 17.5954 57.9855C17.6524 57.9997 19.2066 61.0796 21.046 64.8297C22.8854 68.5798 24.5679 71.8165 24.7676 72.0447C25.3094 72.6008 26.222 73 26.9634 73C27.7904 73 28.9597 72.4439 29.4017 71.845C29.587 71.5741 31.7686 67.2394 34.2354 62.2061C36.7022 57.1727 38.7412 53.0519 38.784 53.0519C38.8268 53.0377 40.2384 56.1603 41.9209 59.9817C45.5427 68.2803 45.7708 68.7224 46.4552 69.2072C47.1824 69.692 48.0807 69.8773 48.9648 69.7062C50.2481 69.4638 50.5047 69.1501 52.4867 65.2289C53.827 62.5911 54.3118 61.7498 54.3831 61.9637C54.5257 62.42 55.5381 63.361 56.2796 63.7318C57.0353 64.1168 56.6503 64.1025 68.4851 64.3592L72.4348 64.4447V61.3791V58.3134H71.6933C70.6524 58.3134 59.4307 57.7573 59.4022 57.7145C59.388 57.686 58.8747 56.5881 58.2473 55.2763C56.9782 52.5671 56.5505 52.0538 55.31 51.7544C54.4687 51.5547 53.7415 51.6545 52.9715 52.1108C52.1873 52.5671 52.0304 52.8095 50.3479 56.36C49.5209 58.0568 48.8079 59.4113 48.7509 59.3543C48.6939 59.283 47.2537 56.0605 45.5569 52.1821C42.0778 44.2685 42.0065 44.1116 41.5787 43.6554C40.9228 42.9139 39.7536 42.5717 38.6699 42.7856Z" fill="#4B7AAE"/>
</svg>
