<svg width="47" height="41" viewBox="0 0 47 41" fill="none" xmlns="http://www.w3.org/2000/svg">
<path d="M0 21.4708C0 18.8635 0.816208 16.5509 2.44862 14.5104C4.08104 12.4699 6.14423 11.1775 8.6382 10.588C9.34105 7.50458 10.9508 4.96527 13.4221 2.97009C15.8934 0.974916 18.7274 0 21.9243 0C25.0531 0 27.8191 0.974916 30.2677 2.90207C32.7164 4.82923 34.3034 7.3232 35.0289 10.3613H35.7545C37.7723 10.3613 39.6541 10.8601 41.3772 11.835C43.1003 12.8099 44.4834 14.1703 45.4809 15.8707C46.4785 17.5712 47 19.453 47 21.4708C47 23.466 46.5239 25.3025 45.5716 27.0029C44.6194 28.7033 43.3044 30.0637 41.6493 31.0839C39.9942 32.1042 38.1804 32.6483 36.2079 32.6937C35.9132 32.6937 35.7545 32.5576 35.7545 32.3083V29.2928C35.7545 29.0207 35.9132 28.8847 36.2079 28.8847C38.1351 28.794 39.7902 28.0232 41.1505 26.5721C42.5109 25.1211 43.191 23.4206 43.191 21.4481C43.191 19.4756 42.4428 17.7752 40.9691 16.3242C39.4954 14.8731 37.7496 14.1476 35.7318 14.1476H32.0815C31.8095 14.1476 31.6734 14.0116 31.6734 13.7622L31.492 12.4472C31.2426 9.99855 30.177 7.93536 28.3406 6.30294C26.4814 4.64785 24.3502 3.83165 21.8789 3.83165C19.4076 3.83165 17.2311 4.64785 15.4173 6.30294C13.5808 7.95803 12.5605 9.99855 12.3338 12.4472L12.1751 13.6488C12.1751 13.9209 12.0164 14.0796 11.7217 14.0796L10.52 14.1476C8.6382 14.3743 7.05113 15.1905 5.7588 16.5736C4.46647 17.9566 3.83164 19.589 3.83164 21.4708C3.83164 23.4433 4.51182 25.1438 5.87217 26.5948C7.23251 28.0458 8.8876 28.8167 10.8148 28.9074C11.0642 28.9074 11.2002 29.0434 11.2002 29.3155V32.3309C11.2002 32.5803 11.0642 32.7164 10.8148 32.7164C7.77665 32.5803 5.21466 31.424 3.10613 29.2475C0.997589 27.0709 0 24.4863 0 21.4708Z" fill="black"/>
<path d="M18.9429 25.6183C18.481 25.2077 18.25 24.6945 18.25 24.0786C18.25 23.4884 18.4553 23.0008 18.8915 22.5902C19.3278 22.2053 19.841 22 20.4569 22H36.5688C37.159 22 37.6722 22.2053 38.1085 22.5902C38.5447 23.0008 38.75 23.4884 38.75 24.0786C38.75 24.6945 38.5447 25.2077 38.1085 25.644C37.6722 26.0802 37.159 26.2855 36.5688 26.2855H20.4569C19.841 26.2855 19.3535 26.0546 18.9429 25.6183Z" fill="black"/>
<path d="M14.9429 32.6183C14.481 32.2077 14.25 31.6945 14.25 31.0786C14.25 30.4884 14.4553 30.0008 14.8915 29.5902C15.3278 29.2053 15.841 29 16.4569 29H30.5688C31.159 29 31.6722 29.2053 32.1085 29.5902C32.5447 30.0008 32.75 30.4884 32.75 31.0786C32.75 31.6945 32.5447 32.2077 32.1085 32.644C31.6722 33.0802 31.159 33.2855 30.5688 33.2855H16.4569C15.841 33.2855 15.3535 33.0546 14.9429 32.6183Z" fill="black"/>
<path d="M19.9429 39.6183C19.481 39.2077 19.25 38.6945 19.25 38.0786C19.25 37.4884 19.4553 37.0008 19.8915 36.5902C20.3278 36.2053 20.841 36 21.4569 36H35.5688C36.159 36 36.6722 36.2053 37.1085 36.5902C37.5447 37.0008 37.75 37.4884 37.75 38.0786C37.75 38.6945 37.5447 39.2077 37.1085 39.644C36.6722 40.0802 36.159 40.2855 35.5688 40.2855H21.4569C20.841 40.2855 20.3535 40.0546 19.9429 39.6183Z" fill="black"/>
</svg>
