<svg width="49" height="48" viewBox="0 0 49 48" fill="none" xmlns="http://www.w3.org/2000/svg">
<path d="M0 22.1182C0 19.4231 0.836401 17.0301 2.5092 14.9391C4.18201 12.8481 6.31948 11.4773 8.87515 10.8965C9.59538 7.71348 11.2217 5.11134 13.7542 3.06681C16.2866 1.02227 19.214 0 22.5131 0C24.395 0 26.1143 0.302034 27.6245 0.929335C27.6245 0.952569 27.6245 0.952569 27.6477 0.975802C29.5993 1.71927 31.3186 2.9274 32.7823 4.57697H32.852C34.4319 6.27301 35.4774 8.29432 36.035 10.6641H36.7552C39.2644 10.6641 41.4483 11.3379 43.3302 12.6622V12.639C44.5616 13.4754 45.6071 14.4976 46.4435 15.729C47.2799 16.9604 47.8375 18.3079 48.1396 19.7716C48.2325 20.2595 48.279 20.6545 48.3254 20.9797V21.1191C48.3254 21.1424 48.3254 21.2585 48.3487 21.5141C48.3719 21.7697 48.3719 21.9555 48.3719 22.0717V22.1414C48.3719 24.1859 47.884 26.0911 46.885 27.8336C45.9092 29.5761 44.5616 30.9933 42.8423 32.0388C41.1463 33.0843 39.2644 33.6419 37.2199 33.7116C36.9178 33.7116 36.7552 33.5722 36.7552 33.3167V30.2034C36.7552 29.9014 36.9178 29.762 37.2199 29.762C39.2179 29.669 40.8907 28.8791 42.2847 27.3921C43.6787 25.9052 44.3757 24.1627 44.3757 22.1414C44.3757 20.0736 43.6323 18.3079 42.1221 16.821C40.6352 15.334 38.8462 14.5906 36.7552 14.5906H33.0146C32.7358 14.5906 32.5964 14.4512 32.5964 14.1956L32.4106 12.8248C32.1782 10.5015 31.2024 8.50342 29.4599 6.80738C29.4367 6.78415 29.4367 6.76091 29.4135 6.73768C29.3902 6.71445 29.367 6.69121 29.367 6.66798C29.3438 6.64475 29.3205 6.62151 29.2741 6.62151C29.2741 6.57505 29.2508 6.55181 29.2276 6.55181C27.5315 5.01841 25.5567 4.13554 23.2798 3.94967C23.1172 3.92644 22.8616 3.92644 22.4899 3.92644C19.9342 3.92644 17.7271 4.78608 15.8452 6.48211C13.9633 8.17815 12.8945 10.2924 12.6622 12.8016L12.4763 14.1724C12.4066 14.3815 12.2208 14.4976 11.9652 14.4976L10.8268 14.5673C8.87515 14.7997 7.22558 15.6361 5.92451 17.0533C4.62344 18.4705 3.97291 20.1666 3.97291 22.1182V22.2111H4.04261C4.06584 23.3263 4.29817 24.3718 4.73961 25.3476C5.20428 26.3466 5.80834 27.183 6.59828 27.8801C7.08618 28.2983 7.64378 28.67 8.31755 28.9953V29.0185C9.24688 29.4599 10.1762 29.7155 11.1288 29.762C11.3844 29.762 11.5238 29.9014 11.5238 30.1802V33.2934C11.5238 33.549 11.3844 33.6884 11.1288 33.6884C9.92065 33.6187 8.78222 33.3864 7.69025 32.9914V33.0146C5.76188 32.3409 4.11231 31.2257 2.788 29.6923C1.4637 28.1588 0.580834 26.3466 0.2091 24.3253V24.2556C0.185866 24.2324 0.185867 24.2092 0.185867 24.1627C0.0464666 23.5586 0 22.8616 0 22.1182ZM12.7784 38.7765C12.7784 38.7068 12.8016 38.6139 12.8248 38.4745C12.8481 38.3583 12.8713 38.2654 12.8713 38.1957L13.0804 36.8249C13.243 36.2673 13.5451 35.8723 14.033 35.5935C14.5209 35.3147 15.032 35.2683 15.6128 35.4077C16.1472 35.5703 16.5189 35.8956 16.7977 36.3602C17.0533 36.8481 17.0998 37.336 16.9604 37.8239L16.6351 39.2179C16.4028 40.2402 15.8219 40.7513 14.8694 40.7513C14.7997 40.7513 14.6835 40.7281 14.5441 40.7049C14.4047 40.6816 14.3118 40.6584 14.2188 40.6584C13.7309 40.519 13.3824 40.2634 13.1501 39.8917C12.8945 39.5432 12.7784 39.1715 12.7784 38.7765ZM14.4976 31.9459C14.4976 31.3883 14.6835 30.9469 15.032 30.5751C15.3805 30.2034 15.8452 30.0408 16.4028 30.0408C16.9604 30.0408 17.4018 30.2266 17.7735 30.5751C18.1453 30.9236 18.3079 31.3883 18.3079 31.9459C18.3079 32.4803 18.122 32.9217 17.7735 33.2934C17.425 33.6652 16.9604 33.8278 16.4028 33.8278C15.8684 33.8278 15.427 33.6419 15.0785 33.2702C14.7067 32.8985 14.4976 32.457 14.4976 31.9459ZM18.3079 45.8627C18.3079 45.7697 18.3311 45.6071 18.4008 45.3283L18.7029 43.9575C18.8655 43.4232 19.1908 43.0282 19.6554 42.7726C20.1433 42.4938 20.6312 42.4474 21.1191 42.61C21.6535 42.7029 22.0717 43.005 22.3505 43.4696C22.6293 43.9343 22.699 44.4687 22.5364 45.0495L22.2343 46.4203C22.002 47.3729 21.3747 47.8375 20.3757 47.8375C20.213 47.8375 20.0039 47.8143 19.8181 47.7678C19.3069 47.6284 18.9352 47.3729 18.6796 47.0011C18.4473 46.6294 18.3079 46.2577 18.3079 45.8627ZM20.1433 39.1018C20.1433 38.5674 20.3292 38.1027 20.6777 37.7542C21.0494 37.3825 21.4909 37.2199 22.0485 37.2199C22.6061 37.2199 23.0475 37.4057 23.4192 37.7542C23.791 38.126 23.9536 38.5674 23.9536 39.1018C23.9536 39.6594 23.7677 40.1008 23.4192 40.4725C23.0475 40.8443 22.6061 41.0069 22.0485 41.0069C21.5141 41.0069 21.0727 40.821 20.7009 40.4493C20.3292 40.0776 20.1433 39.6361 20.1433 39.1018ZM21.5838 33.8278C21.5838 33.5955 21.607 33.3864 21.6535 33.2005L22.1879 31.1095C22.3505 30.5751 22.6758 30.1569 23.1404 29.8781C23.6283 29.5993 24.1162 29.5296 24.6274 29.6923C25.185 29.8549 25.5799 30.1569 25.8587 30.6216C26.1375 31.0863 26.184 31.5742 26.0214 32.0853L25.4173 34.1763C25.2314 34.8268 24.9062 35.245 24.4647 35.4774C24.0233 35.7097 23.5122 35.7562 22.9778 35.6168C22.5131 35.5238 22.1646 35.2915 21.9323 34.9198C21.6535 34.548 21.5606 34.1763 21.5838 33.8278ZM27.9962 38.7997C27.9962 38.73 27.9962 38.6139 28.0194 38.4977C28.0427 38.3815 28.0427 38.2886 28.0427 38.2421L28.2518 36.8714C28.4144 36.3138 28.7165 35.9188 29.2044 35.64C29.6923 35.3612 30.2034 35.3147 30.7842 35.4541C31.3186 35.6168 31.7136 35.942 31.9691 36.4067C32.2479 36.8946 32.2944 37.3825 32.1318 37.8704L31.8065 39.2644C31.5742 40.2867 30.9933 40.7978 30.0408 40.7978C29.9711 40.7978 29.8549 40.7746 29.7155 40.7513C29.5761 40.7281 29.4599 40.7049 29.3902 40.7049C28.9256 40.5655 28.5771 40.3099 28.3447 39.9382C28.1356 39.5664 27.9962 39.1947 27.9962 38.7997ZM29.7155 31.9691C29.7155 31.4115 29.9014 30.9701 30.2499 30.5984C30.6216 30.2266 31.063 30.064 31.6206 30.064C32.1782 30.064 32.6197 30.2499 32.9914 30.5984C33.3631 30.9701 33.5258 31.4115 33.5258 31.9691C33.5258 32.5035 33.3399 32.9682 32.9914 33.3167C32.6429 33.6652 32.2015 33.851 31.6439 33.851C31.0863 33.851 30.6448 33.6652 30.2963 33.2934C29.9246 32.9449 29.7155 32.5035 29.7155 31.9691Z" fill="black"/>
</svg>
