<svg width="64" height="64" viewBox="0 0 64 64" fill="none" xmlns="http://www.w3.org/2000/svg">
<rect width="64" height="64" fill="white"/>
<path d="M4.84839 36.9443C4.84839 38.86 5.31667 40.6266 6.25322 42.2443C7.18977 43.862 8.46689 45.1391 10.0846 46.0757C11.7023 47.0122 13.4477 47.4805 15.342 47.4805H38.394C40.2884 47.4805 42.0551 47.0122 43.6728 46.0757C45.2905 45.1391 46.5889 43.862 47.5254 42.2443C48.462 40.6266 48.9515 38.86 48.9515 36.9443C48.9515 35.5395 48.6535 34.1133 48.0576 32.6872C49.6752 30.729 50.4841 28.3663 50.4841 25.6631C50.4841 24.1518 50.1861 22.7044 49.6114 21.3209C49.0367 19.9373 48.2278 18.7666 47.2274 17.7662C46.227 16.7658 45.0563 15.957 43.6728 15.3823C42.2892 14.7863 40.8418 14.5096 39.3306 14.5096C36.1804 14.5096 33.4346 15.7441 31.0719 18.2132C29.4329 17.2767 27.5172 16.8084 25.3249 16.8084C22.3236 16.8084 19.6842 17.7449 17.3854 19.5968C15.0866 21.4486 13.5966 23.8325 12.9581 26.7273C10.5741 27.2808 8.63717 28.494 7.12592 30.4097C5.61466 32.3254 4.84839 34.4965 4.84839 36.9443ZM8.48818 36.9443C8.48818 35.1563 9.08416 33.6238 10.2761 32.3254C11.4681 31.027 12.9581 30.282 14.7461 30.0691L15.8103 30.0053C16.0657 30.0053 16.2147 29.8776 16.2147 29.6221L16.3637 28.4727C16.6617 26.1739 17.6621 24.237 19.365 22.7044C21.0678 21.1506 23.0686 20.3843 25.3461 20.3843C27.6875 20.3843 29.7309 21.1719 31.455 22.7257C33.2004 24.2795 34.1583 26.1952 34.3711 28.494L34.5201 29.7286C34.5627 29.9627 34.7117 30.0904 34.9671 30.0904H38.394C40.2671 30.0904 41.8848 30.7716 43.2471 32.1338C44.6093 33.4961 45.2905 35.0925 45.2905 36.9656C45.2905 38.9025 44.6093 40.5415 43.2684 41.9038C41.9274 43.266 40.2884 43.9472 38.4153 43.9472H15.342C13.4689 43.9472 11.8725 43.266 10.5103 41.8825C9.16931 40.4989 8.48818 38.86 8.48818 36.9443ZM22.7493 10.8272C22.7493 11.3381 22.9196 11.7851 23.2602 12.1682L24.665 13.5305C25.1971 13.9349 25.6441 14.1052 26.0273 14.0626C26.4743 14.0626 26.8574 13.871 27.198 13.5092C27.5385 13.1473 27.7088 12.7003 27.7088 12.1895C27.7088 11.6786 27.5172 11.2529 27.1554 10.9336L25.8996 9.52882C25.5164 9.18825 25.0907 9.01797 24.6012 9.01797C24.0903 9.01797 23.6433 9.18825 23.2815 9.5501C22.9196 9.89067 22.7493 10.3164 22.7493 10.8272ZM34.1157 20.2566C35.5844 18.8305 37.3298 18.1281 39.3306 18.1281C41.4378 18.1281 43.2258 18.8518 44.6945 20.3205C46.1632 21.7892 46.9082 23.5558 46.9082 25.6631C46.9082 26.9828 46.5463 28.3025 45.8226 29.5796C43.7579 27.5362 41.2888 26.5145 38.394 26.5145H37.7129C37.1808 24.1944 35.9888 22.1084 34.1157 20.2566ZM37.5852 9.01797C37.5852 9.57139 37.7555 9.99709 38.0748 10.3377C38.394 10.6782 38.8197 10.8272 39.3306 10.8272C39.884 10.8272 40.3097 10.6569 40.6503 10.3377C40.9908 9.99709 41.1398 9.57139 41.1398 9.01797V4.65448C41.1398 4.14364 40.9696 3.73921 40.629 3.39865C40.2884 3.05809 39.8627 2.90909 39.3306 2.90909C38.8197 2.90909 38.4153 3.07937 38.0748 3.39865C37.7342 3.71793 37.5852 4.14364 37.5852 4.65448V9.01797ZM49.3347 13.8923C49.3347 14.4457 49.4837 14.8714 49.803 15.212C50.2499 15.5526 50.6969 15.7228 51.1226 15.7228C51.5058 15.7228 51.9315 15.5526 52.3785 15.212L55.4223 12.1682C55.7628 11.7851 55.9331 11.3381 55.9331 10.8059C55.9331 10.2951 55.7628 9.86938 55.4223 9.52882C55.0817 9.18825 54.656 9.01797 54.1664 9.01797C53.6556 9.01797 53.2512 9.18825 52.9319 9.52882L49.803 12.5726C49.4837 12.977 49.3347 13.4027 49.3347 13.8923ZM51.0162 39.0941C51.0162 39.605 51.1865 40.0519 51.5483 40.4351L52.9319 41.7761C53.2512 42.1166 53.6556 42.2869 54.1664 42.2869C54.6773 42.2869 55.103 42.1166 55.4436 41.7548C55.7841 41.3929 55.9544 40.9672 55.9544 40.4351C55.9544 39.9668 55.7841 39.5411 55.4436 39.2005L54.06 37.817C53.7195 37.4764 53.315 37.3061 52.8468 37.3061C52.3359 37.3061 51.9102 37.4764 51.5696 37.817C51.2078 38.1576 51.0162 38.5833 51.0162 39.0941ZM54.1452 25.6631C54.1452 26.1526 54.3367 26.5571 54.6986 26.8976C55.0391 27.2382 55.4861 27.4085 55.997 27.4085H60.3392C60.8287 27.4085 61.2332 27.2382 61.5737 26.9189C61.9143 26.5996 62.0633 26.1739 62.0633 25.6631C62.0633 25.1522 61.893 24.7265 61.5737 24.386C61.2544 24.0454 60.8287 23.8538 60.3392 23.8538H55.997C55.4861 23.8538 55.0604 24.0241 54.6986 24.386C54.3154 24.7478 54.1452 25.1735 54.1452 25.6631Z" fill="black"/>
<path d="M28.1662 59.0241C28.1436 59.1593 28.1211 59.2494 28.1211 59.317C28.1211 59.7 28.2337 60.0605 28.4816 60.3984C28.7069 60.7589 29.0448 61.0067 29.5179 61.1419C29.608 61.1419 29.6981 61.1644 29.8333 61.187C29.9685 61.2095 30.0811 61.232 30.1487 61.232C31.0724 61.232 31.6357 60.7364 31.861 59.7451L32.1764 58.3933C32.3116 57.9202 32.2665 57.4471 32.0187 56.974C31.7483 56.5234 31.3878 56.208 30.8697 56.0503C30.3064 55.9151 29.8108 55.9601 29.3377 56.2305C28.8646 56.5008 28.5717 56.8838 28.414 57.4246L28.2112 58.7538C28.2112 58.8214 28.1887 58.9115 28.1662 59.0241Z" fill="black"/>
<path d="M30.3064 51.3642C29.9685 51.7246 29.7883 52.1527 29.7883 52.6934C29.7883 53.189 29.991 53.6171 30.3515 53.9776C30.6894 54.338 31.1175 54.5183 31.6357 54.5183C32.1764 54.5183 32.627 54.3606 32.9649 54.0001C33.3028 53.6396 33.4831 53.2116 33.4831 52.6934C33.4831 52.1527 33.3254 51.7021 32.9649 51.3642C32.6044 51.0262 32.1764 50.846 31.6357 50.846C31.095 50.846 30.6444 51.0037 30.3064 51.3642Z" fill="black"/>
<path d="M35.7811 58.3257C35.4431 58.6637 35.2629 59.1143 35.2629 59.6324C35.2629 60.1506 35.4431 60.5787 35.8036 60.9391C36.1641 61.2996 36.5921 61.4798 37.1103 61.4798C37.651 61.4798 38.0791 61.3221 38.4395 60.9617C38.7775 60.6012 38.9577 60.1731 38.9577 59.6324C38.9577 59.1143 38.8 58.6862 38.4395 58.3257C38.0791 57.9878 37.651 57.8075 37.1103 57.8075C36.5696 57.8075 36.1415 57.9653 35.7811 58.3257Z" fill="black"/>
<path d="M36.7273 53.91C36.6822 54.0902 36.6597 54.293 36.6597 54.5183C36.6372 54.8562 36.7273 55.2167 36.9977 55.5771C37.2229 55.9376 37.5609 56.1629 38.0115 56.253C38.5296 56.3882 39.0253 56.3431 39.4533 56.1179C39.8814 55.8926 40.1968 55.487 40.3771 54.8562L40.9628 52.8286C41.1205 52.3329 41.0755 51.8598 40.8051 51.4092C40.5348 50.9586 40.1518 50.6657 39.6111 50.508C39.1154 50.3503 38.6423 50.4179 38.1692 50.6883C37.7186 50.9586 37.4032 51.3642 37.2455 51.8823L36.7273 53.91Z" fill="black"/>
<rect x="2" y="36" width="27" height="17" fill="white"/>
<path d="M6.48999 42.2965C6.04207 41.8984 5.81812 41.4007 5.81812 40.8035C5.81812 40.2312 6.01719 39.7584 6.44022 39.3602C6.86325 38.9869 7.36094 38.7879 7.95816 38.7879H23.5818C24.1541 38.7879 24.6518 38.9869 25.0748 39.3602C25.4978 39.7584 25.6969 40.2312 25.6969 40.8035C25.6969 41.4007 25.4978 41.8984 25.0748 42.3214C24.6518 42.7445 24.1541 42.9435 23.5818 42.9435H7.95816C7.36094 42.9435 6.88814 42.7196 6.48999 42.2965Z" fill="black"/>
<path d="M2.61133 49.0844C2.16341 48.6863 1.93945 48.1886 1.93945 47.5914C1.93945 47.019 2.13853 46.5462 2.56156 46.1481C2.98459 45.7748 3.48227 45.5757 4.07949 45.5757H17.7637C18.336 45.5757 18.8337 45.7748 19.2567 46.1481C19.6798 46.5462 19.8788 47.019 19.8788 47.5914C19.8788 48.1886 19.6798 48.6863 19.2567 49.1093C18.8337 49.5323 18.336 49.7314 17.7637 49.7314H4.07949C3.48227 49.7314 3.00947 49.5074 2.61133 49.0844Z" fill="black"/>
<path d="M7.45971 55.8723C7.0118 55.4742 6.78784 54.9765 6.78784 54.3793C6.78784 53.8069 6.98692 53.3341 7.40995 52.936C7.83298 52.5627 8.33066 52.3636 8.92788 52.3636H22.6121C23.1844 52.3636 23.6821 52.5627 24.1051 52.936C24.5282 53.3341 24.7272 53.8069 24.7272 54.3793C24.7272 54.9765 24.5282 55.4742 24.1051 55.8972C23.6821 56.3202 23.1844 56.5193 22.6121 56.5193H8.92788C8.33066 56.5193 7.85786 56.2953 7.45971 55.8723Z" fill="black"/>
</svg>
