<svg width="50" height="48" viewBox="0 0 50 48" fill="none" xmlns="http://www.w3.org/2000/svg">
<path d="M0 22.66C0 19.9083 0.868307 17.4676 2.60492 15.3141C4.34153 13.1605 6.53642 11.7966 9.18958 11.1745C9.93729 7.92024 11.6498 5.24028 14.2788 3.1346C16.9079 1.02891 19.9228 0 23.3237 0C26.6522 0 29.5948 1.02891 32.1997 3.06281C34.8046 5.09671 36.493 7.72881 37.2648 10.9352H38.0367C40.1833 10.9352 42.1852 11.4616 44.0183 12.4905C45.8514 13.5194 47.3227 14.9551 48.384 16.7497C49.4452 18.5444 50 20.5304 50 22.66C50 24.7657 49.4935 26.7039 48.4805 28.4985C47.4674 30.2931 46.0685 31.7288 44.3078 32.8056C42.547 33.8824 40.6175 34.4566 38.5191 34.5045C38.2055 34.5045 38.0367 34.3609 38.0367 34.0977V30.9153C38.0367 30.6281 38.2055 30.4845 38.5191 30.4845C40.5692 30.3888 42.33 29.5753 43.7771 28.0439C45.2243 26.5125 45.9479 24.7178 45.9479 22.6361C45.9479 20.5543 45.1519 18.7597 43.5842 17.2283C42.0164 15.6969 40.1592 14.9312 38.0125 14.9312H34.1293C33.8398 14.9312 33.6951 14.7876 33.6951 14.5244L33.5022 13.1366C33.2369 10.5523 32.1032 8.37488 30.1495 6.65204C28.1717 4.90528 25.9045 4.04387 23.2754 4.04387C20.6464 4.04387 18.3309 4.90528 16.4013 6.65204C14.4477 8.3988 13.3623 10.5523 13.1211 13.1366L12.9522 14.4048C12.9522 14.6919 12.7834 14.8594 12.4699 14.8594L11.1915 14.9312C9.18958 15.1705 7.5012 16.0319 6.12639 17.4915C4.75157 18.9511 4.07622 20.674 4.07622 22.66C4.07622 24.7418 4.79981 26.5364 6.24698 28.0678C7.69416 29.5992 9.4549 30.4128 11.5051 30.5085C11.7704 30.5085 11.9151 30.652 11.9151 30.9392V34.1216C11.9151 34.3848 11.7704 34.5284 11.5051 34.5284C8.27303 34.3848 5.54752 33.1645 3.30439 30.8674C1.06126 28.5703 0 25.8425 0 22.66ZM12.904 38.668C12.904 38.5723 12.9281 38.4048 13.0005 38.1894L16.932 24.3828C17.0767 23.9282 17.342 23.5693 17.7038 23.33C18.0656 23.0907 18.4515 22.9711 18.8133 22.9711C18.9821 22.9711 19.1751 22.995 19.3922 23.0429C19.9711 23.1386 20.4052 23.4497 20.6946 23.9282C20.9841 24.4068 21.0564 24.9332 20.8876 25.5314L16.9561 39.2423C16.6667 40.2712 15.9913 40.7737 14.9783 40.7737C14.8818 40.7737 14.8095 40.7497 14.713 40.7258C14.5683 40.678 14.4959 40.654 14.4718 40.654C13.9411 40.5105 13.5552 40.2473 13.2899 39.8644C13.0246 39.4576 12.904 39.0748 12.904 38.668ZM19.2233 45.3918L25.1085 24.4068C25.205 23.9521 25.4462 23.5932 25.8321 23.3539C26.218 23.1147 26.604 22.995 27.014 22.995C27.2311 22.995 27.4481 23.0189 27.6652 23.0668C28.1959 23.2104 28.5818 23.5214 28.8471 24C29.1124 24.4786 29.1606 24.9811 29.0159 25.5314L23.1548 46.5404C23.0584 46.9472 22.8413 47.2821 22.4554 47.5693C22.0695 47.8564 21.6835 48 21.2253 48C21.0082 48 20.7911 47.9521 20.6223 47.8804C20.1399 47.7607 19.7299 47.4496 19.3681 46.9472C19.1028 46.5164 19.0545 46.014 19.2233 45.3918ZM29.1848 38.7159C29.1848 38.6201 29.2089 38.4526 29.2812 38.1655L33.2127 24.3589C33.3575 23.9043 33.5986 23.5454 33.9363 23.3061C34.2981 23.0668 34.6599 22.9472 35.0458 22.9472C35.2388 22.9472 35.4559 22.9711 35.6729 23.0189C36.1794 23.1625 36.5412 23.4018 36.7824 23.7607C37.0236 24.1196 37.1442 24.5025 37.1442 24.8853C37.1442 24.9571 37.1201 25.0768 37.096 25.2203C37.0719 25.3639 37.0478 25.4596 37.0478 25.5075L33.1163 39.2183C33.0198 39.673 32.8027 40.0558 32.4409 40.319C32.0791 40.5823 31.6691 40.7258 31.2108 40.7258L30.6319 40.6062C30.1495 40.4626 29.7877 40.2233 29.5224 39.8405C29.3054 39.4816 29.1848 39.0987 29.1848 38.7159Z" fill="black"/>
</svg>
