<svg width="47" height="53" viewBox="0 0 47 53" fill="none" xmlns="http://www.w3.org/2000/svg">
<path d="M0 21.4708C0 18.8635 0.816208 16.5509 2.44862 14.5104C4.08104 12.4699 6.14423 11.1775 8.6382 10.588C9.34105 7.50458 10.9508 4.96527 13.4221 2.97009C15.8934 0.974915 18.7274 0 21.9243 0C25.0531 0 27.8191 0.974916 30.2677 2.90207C32.7164 4.82923 34.3034 7.3232 35.0289 10.3613H35.7545C37.7723 10.3613 39.6541 10.8601 41.3772 11.835C43.1003 12.8099 44.4834 14.1703 45.4809 15.8707C46.4785 17.5712 47 19.453 47 21.4708C47 23.466 46.5239 25.3025 45.5716 27.0029C44.6194 28.7033 43.3044 30.0637 41.6493 31.0839C39.9942 32.1042 38.1804 32.6483 36.2079 32.6937C35.9132 32.6937 35.7545 32.5576 35.7545 32.3082V29.2928C35.7545 29.0207 35.9132 28.8847 36.2079 28.8847C38.1351 28.794 39.7902 28.0232 41.1505 26.5721C42.5109 25.1211 43.191 23.4206 43.191 21.4481C43.191 19.4756 42.4428 17.7752 40.9691 16.3242C39.4954 14.8731 37.7496 14.1476 35.7318 14.1476H32.0815C31.8095 14.1476 31.6734 14.0116 31.6734 13.7622L31.492 12.4472C31.2426 9.99855 30.177 7.93536 28.3406 6.30294C26.4814 4.64785 24.3502 3.83165 21.8789 3.83165C19.4076 3.83165 17.2311 4.64785 15.4173 6.30294C13.5808 7.95803 12.5605 9.99855 12.3338 12.4472L12.1751 13.6488C12.1751 13.9209 12.0164 14.0796 11.7217 14.0796L10.52 14.1476C8.6382 14.3743 7.05113 15.1905 5.7588 16.5736C4.46647 17.9566 3.83164 19.589 3.83164 21.4708C3.83164 23.4433 4.51182 25.1438 5.87217 26.5948C7.23251 28.0458 8.8876 28.8167 10.8148 28.9074C11.0642 28.9074 11.2002 29.0434 11.2002 29.3155V32.3309C11.2002 32.5803 11.0642 32.7164 10.8148 32.7164C7.77665 32.5803 5.21467 31.424 3.10613 29.2475C0.997589 27.0709 0 24.4863 0 21.4708ZM12.1298 36.6387C12.1298 36.548 12.1524 36.3893 12.2205 36.1852L15.9161 23.1032C16.0521 22.6725 16.3015 22.3324 16.6416 22.1056C16.9817 21.8789 17.3444 21.7656 17.6845 21.7656C17.8432 21.7656 18.0246 21.7882 18.2287 21.8336C18.7728 21.9243 19.1809 22.219 19.453 22.6725C19.725 23.1259 19.7931 23.6247 19.6343 24.1915L15.9387 37.1828C15.6667 38.1577 15.0318 38.6339 14.0796 38.6339C13.9889 38.6339 13.9209 38.6112 13.8302 38.5885C13.6942 38.5432 13.6261 38.5205 13.6035 38.5205C13.1047 38.3845 12.7419 38.1351 12.4925 37.7723C12.2431 37.3869 12.1298 37.0241 12.1298 36.6387ZM18.0699 43.0096L23.602 23.1259C23.6927 22.6951 23.9194 22.355 24.2822 22.1283C24.645 21.9016 25.0077 21.7882 25.3931 21.7882C25.5972 21.7882 25.8013 21.8109 26.0053 21.8562C26.5041 21.9923 26.8669 22.287 27.1163 22.7405C27.3657 23.1939 27.411 23.67 27.275 24.1915L21.7656 44.0979C21.6749 44.4834 21.4708 44.8008 21.1081 45.0728C20.7453 45.3449 20.3825 45.4809 19.9518 45.4809C19.7477 45.4809 19.5437 45.4356 19.3849 45.3676C18.9315 45.2542 18.5461 44.9595 18.206 44.4834C17.9566 44.0753 17.9112 43.5991 18.0699 43.0096ZM27.4337 36.684C27.4337 36.5933 27.4563 36.4346 27.5244 36.1626L31.22 23.0806C31.356 22.6498 31.5827 22.3097 31.9001 22.083C32.2402 21.8562 32.5803 21.7429 32.9431 21.7429C33.1245 21.7429 33.3285 21.7656 33.5326 21.8109C34.0087 21.9469 34.3488 22.1737 34.5755 22.5137C34.8022 22.8538 34.9156 23.2166 34.9156 23.5794C34.9156 23.6474 34.8929 23.7607 34.8702 23.8968C34.8476 24.0328 34.8249 24.1235 34.8249 24.1688L31.1293 37.1602C31.0386 37.5909 30.8345 37.9537 30.4945 38.2031C30.1544 38.4525 29.7689 38.5885 29.3382 38.5885L28.794 38.4752C28.3406 38.3391 28.0005 38.1124 27.7511 37.7496C27.547 37.4096 27.4337 37.0468 27.4337 36.684Z" fill="black"/>
<path d="M23.0713 45.6938C23.1335 45.5978 23.2256 45.525 23.3334 45.4866H23.4574C23.5326 45.4754 23.6094 45.4809 23.6822 45.5027C23.7551 45.5245 23.8222 45.5621 23.8789 45.6128C23.9356 45.6635 23.9805 45.726 24.0103 45.796C24.0401 45.8659 24.0541 45.9416 24.0514 46.0176V47.7366L25.2704 46.5176C25.3192 46.4678 25.3776 46.4283 25.442 46.4015C25.5064 46.3747 25.5756 46.3611 25.6454 46.3616C25.7533 46.3547 25.8606 46.3818 25.9524 46.4389C26.0441 46.4961 26.1157 46.5806 26.157 46.6805C26.1984 46.7803 26.2074 46.8907 26.1829 46.996C26.1584 47.1012 26.1016 47.1962 26.0204 47.2676L24.8014 48.4866H26.5204C26.6612 48.4866 26.7963 48.5426 26.8959 48.6421C26.9954 48.7417 27.0514 48.8768 27.0514 49.0176C27.0514 49.1584 26.9954 49.2935 26.8959 49.3931C26.7963 49.4927 26.6612 49.5486 26.5204 49.5486H24.8014L26.0204 50.7676C26.0696 50.8169 26.1087 50.8753 26.1353 50.9397C26.162 51.004 26.1757 51.073 26.1757 51.1426C26.1757 51.2123 26.162 51.2812 26.1353 51.3456C26.1087 51.4099 26.0696 51.4684 26.0204 51.5176C25.9711 51.5669 25.9127 51.6059 25.8483 51.6326C25.784 51.6592 25.715 51.6729 25.6454 51.6729C25.5757 51.6729 25.5068 51.6592 25.4424 51.6326C25.3781 51.6059 25.3196 51.5669 25.2704 51.5176L24.0514 50.2986V52.0176C24.0514 52.1584 23.9954 52.2935 23.8959 52.3931C23.7963 52.4927 23.6612 52.5486 23.5204 52.5486C23.3796 52.5486 23.2445 52.4927 23.1449 52.3931C23.0453 52.2935 22.9894 52.1584 22.9894 52.0176V50.2986L21.7704 51.5176C21.7211 51.5669 21.6627 51.6059 21.5983 51.6326C21.534 51.6592 21.465 51.6729 21.3954 51.6729C21.3257 51.6729 21.2568 51.6592 21.1924 51.6326C21.1281 51.6059 21.0696 51.5669 21.0204 51.5176C20.9711 51.4684 20.9321 51.4099 20.9054 51.3456C20.8788 51.2812 20.8651 51.2123 20.8651 51.1426C20.8651 51.073 20.8788 51.004 20.9054 50.9397C20.9321 50.8753 20.9711 50.8169 21.0204 50.7676L22.2394 49.5486H20.5204C20.45 49.5539 20.3793 49.5451 20.3123 49.5228C20.2454 49.5005 20.1835 49.4651 20.1304 49.4187C20.0773 49.3722 20.0339 49.3157 20.0028 49.2523C19.9718 49.189 19.9536 49.1201 19.9494 49.0496C19.9452 48.9792 19.9551 48.9086 19.9785 48.842C20.0018 48.7754 20.0382 48.7141 20.0855 48.6617C20.1328 48.6093 20.19 48.5669 20.2538 48.5368C20.3177 48.5067 20.3869 48.4897 20.4574 48.4866H22.2394L21.0204 47.2676C20.9433 47.1998 20.8881 47.1106 20.8618 47.0113C20.8355 46.912 20.8394 46.8072 20.8728 46.7101C20.9062 46.613 20.9678 46.528 21.0496 46.466C21.1314 46.4039 21.2299 46.3676 21.3324 46.3616C21.4125 46.3518 21.4938 46.3609 21.5698 46.3879C21.6458 46.415 21.7145 46.4594 21.7704 46.5176L22.9894 47.7366V46.0176C22.9803 45.9036 23.0091 45.7898 23.0713 45.6938Z" fill="black"/>
<path d="M35.0776 38.539C35.1389 38.4431 35.2297 38.3704 35.3359 38.3321H35.4581C35.5322 38.3209 35.6078 38.3264 35.6797 38.3481C35.7515 38.3699 35.8176 38.4075 35.8735 38.4581C35.9294 38.5087 35.9736 38.5712 36.003 38.6411C36.0323 38.711 36.0462 38.7866 36.0435 38.8625V40.5797L37.2448 39.362C37.2929 39.3122 37.3505 39.2727 37.414 39.246C37.4774 39.2192 37.5456 39.2056 37.6144 39.2061C37.7207 39.1993 37.8265 39.2263 37.9169 39.2834C38.0073 39.3405 38.0778 39.4249 38.1186 39.5246C38.1593 39.6244 38.1683 39.7346 38.1441 39.8398C38.12 39.945 38.064 40.0399 37.9839 40.1112L36.7826 41.3289H38.4767C38.6155 41.3289 38.7486 41.3848 38.8467 41.4842C38.9449 41.5837 39 41.7186 39 41.8593C39 42 38.9449 42.1349 38.8467 42.2344C38.7486 42.3339 38.6155 42.3897 38.4767 42.3897H36.7826L37.9839 43.6074C38.0325 43.6566 38.071 43.715 38.0972 43.7793C38.1235 43.8436 38.137 43.9125 38.137 43.982C38.137 44.0516 38.1235 44.1205 38.0972 44.1848C38.071 44.249 38.0325 44.3075 37.9839 44.3566C37.9354 44.4058 37.8778 44.4449 37.8144 44.4715C37.751 44.4981 37.683 44.5118 37.6144 44.5118C37.5457 44.5118 37.4778 44.4981 37.4144 44.4715C37.3509 44.4449 37.2933 44.4058 37.2448 44.3566L36.0435 43.1389V44.8561C36.0435 44.9968 35.9883 45.1317 35.8902 45.2312C35.792 45.3307 35.6589 45.3865 35.5202 45.3865C35.3814 45.3865 35.2483 45.3307 35.1501 45.2312C35.052 45.1317 34.9968 44.9968 34.9968 44.8561V43.1389L33.7955 44.3566C33.747 44.4058 33.6894 44.4449 33.6259 44.4715C33.5625 44.4981 33.4946 44.5118 33.4259 44.5118C33.3573 44.5118 33.2893 44.4981 33.2259 44.4715C33.1625 44.4449 33.1049 44.4058 33.0564 44.3566C33.0078 44.3075 32.9693 44.249 32.9431 44.1848C32.9168 44.1205 32.9033 44.0516 32.9033 43.982C32.9033 43.9125 32.9168 43.8436 32.9431 43.7793C32.9693 43.715 33.0078 43.6566 33.0564 43.6074L34.2577 42.3897H32.5636C32.4943 42.395 32.4246 42.3863 32.3586 42.364C32.2926 42.3417 32.2316 42.3063 32.1793 42.26C32.1269 42.2136 32.0842 42.1571 32.0535 42.0938C32.0229 42.0305 32.005 41.9616 32.0009 41.8913C31.9968 41.8209 32.0065 41.7504 32.0296 41.6839C32.0526 41.6174 32.0884 41.5561 32.135 41.5038C32.1816 41.4515 32.238 41.409 32.3009 41.379C32.3639 41.349 32.432 41.3319 32.5015 41.3289H34.2577L33.0564 40.1112C32.9804 40.0434 32.926 39.9543 32.9001 39.8551C32.8742 39.7559 32.878 39.6512 32.9109 39.5542C32.9439 39.4572 33.0045 39.3724 33.0852 39.3104C33.1658 39.2484 33.2628 39.2121 33.3638 39.2061C33.4428 39.1964 33.5229 39.2054 33.5978 39.2324C33.6727 39.2595 33.7404 39.3038 33.7955 39.362L34.9968 40.5797V38.8625C34.9879 38.7486 35.0163 38.6349 35.0776 38.539Z" fill="black"/>
</svg>
