<svg width="59" height="59" viewBox="0 0 59 59" fill="none" xmlns="http://www.w3.org/2000/svg">
<path d="M0 35.0988C0 37.0743 0.482911 38.8962 1.44873 40.5645C2.41455 42.2327 3.73158 43.5497 5.39982 44.5156C7.06805 45.4814 8.86799 45.9643 10.8216 45.9643H34.5939C36.5475 45.9643 38.3694 45.4814 40.0377 44.5156C41.7059 43.5497 43.0449 42.2327 44.0107 40.5645C44.9765 38.8962 45.4814 37.0743 45.4814 35.0988C45.4814 33.6501 45.1741 32.1794 44.5595 30.7087C46.2277 28.6893 47.0618 26.2528 47.0618 23.4651C47.0618 21.9066 46.7545 20.4139 46.1618 18.9872C45.5692 17.5604 44.7351 16.3531 43.7034 15.3214C42.6717 14.2898 41.4644 13.4556 40.0377 12.863C38.6109 12.2484 37.1182 11.963 35.5598 11.963C32.3111 11.963 29.4795 13.2361 27.043 15.7824C25.3528 14.8166 23.3773 14.3337 21.1164 14.3337C18.0213 14.3337 15.2995 15.2995 12.9288 17.2092C10.5582 19.1189 9.02164 21.5773 8.36313 24.5626C5.90468 25.1333 3.90718 26.3845 2.3487 28.36C0.790217 30.3356 0 32.5745 0 35.0988ZM3.75353 35.0988C3.75353 33.255 4.36814 31.6745 5.59737 30.3356C6.8266 28.9966 8.36313 28.2283 10.207 28.0088L11.3045 27.943C11.5679 27.943 11.7216 27.8112 11.7216 27.5478L11.8752 26.3625C12.1825 23.9919 13.2142 21.9944 14.9702 20.4139C16.7263 18.8116 18.7896 18.0213 21.1383 18.0213C23.5529 18.0213 25.6601 18.8335 27.4381 20.4359C29.238 22.0383 30.2258 24.0138 30.4453 26.3845L30.599 27.6576C30.6429 27.899 30.7965 28.0308 31.0599 28.0308H34.5939C36.5256 28.0308 38.1938 28.7332 39.5986 30.138C41.0035 31.5428 41.7059 33.1891 41.7059 35.1208C41.7059 37.1182 41.0035 38.8084 39.6206 40.2133C38.2377 41.6181 36.5475 42.3205 34.6159 42.3205H10.8216C8.88994 42.3205 7.24365 41.6181 5.83882 40.1913C4.45594 38.7645 3.75353 37.0743 3.75353 35.0988ZM18.4603 8.16558C18.4603 8.69239 18.6359 9.15335 18.9872 9.54846L20.4359 10.9533C20.9846 11.3703 21.4456 11.5459 21.8407 11.502C22.3017 11.502 22.6968 11.3045 23.048 10.9313C23.3992 10.5582 23.5748 10.0972 23.5748 9.57041C23.5748 9.04359 23.3772 8.60458 23.0041 8.27533L21.709 6.8266C21.3139 6.47539 20.8749 6.29979 20.37 6.29979C19.8432 6.29979 19.3823 6.47539 19.0091 6.84855C18.6359 7.19975 18.4603 7.63876 18.4603 8.16558ZM30.1819 17.8896C31.6965 16.419 33.4964 15.6946 35.5598 15.6946C37.7329 15.6946 39.5767 16.4409 41.0913 17.9555C42.6059 19.4701 43.3741 21.292 43.3741 23.4651C43.3741 24.826 43.001 26.1869 42.2547 27.5039C40.1255 25.3967 37.5792 24.3431 34.5939 24.3431H33.8915C33.3428 21.9505 32.1135 19.7993 30.1819 17.8896ZM33.7598 6.29979C33.7598 6.8705 33.9354 7.30951 34.2647 7.66071C34.5939 8.01192 35.033 8.16558 35.5598 8.16558C36.1305 8.16558 36.5695 7.98997 36.9207 7.66071C37.2719 7.30951 37.4256 6.8705 37.4256 6.29979V1.79994C37.4256 1.27313 37.2499 0.856068 36.8987 0.504861C36.5475 0.153653 36.1085 0 35.5598 0C35.033 0 34.6159 0.175604 34.2647 0.504861C33.9135 0.834118 33.7598 1.27313 33.7598 1.79994V6.29979ZM45.8765 11.3264C45.8765 11.8972 46.0301 12.3362 46.3594 12.6874C46.8204 13.0386 47.2813 13.2142 47.7203 13.2142C48.1154 13.2142 48.5544 13.0386 49.0154 12.6874L52.1543 9.54846C52.5055 9.15335 52.6811 8.69239 52.6811 8.14362C52.6811 7.61681 52.5055 7.1778 52.1543 6.8266C51.8031 6.47539 51.3641 6.29979 50.8592 6.29979C50.3324 6.29979 49.9154 6.47539 49.5861 6.8266L46.3594 9.96551C46.0301 10.3826 45.8765 10.8216 45.8765 11.3264ZM47.6106 37.3158C47.6106 37.8426 47.7862 38.3036 48.1593 38.6987L49.5861 40.0816C49.9154 40.4328 50.3324 40.6084 50.8592 40.6084C51.386 40.6084 51.8251 40.4328 52.1763 40.0596C52.5275 39.6865 52.7031 39.2474 52.7031 38.6987C52.7031 38.2158 52.5275 37.7768 52.1763 37.4256L50.7495 35.9988C50.3983 35.6476 49.9812 35.472 49.4983 35.472C48.9715 35.472 48.5325 35.6476 48.1813 35.9988C47.8081 36.35 47.6106 36.789 47.6106 37.3158ZM50.8373 23.4651C50.8373 23.9699 51.0348 24.387 51.408 24.7382C51.7592 25.0894 52.2202 25.265 52.747 25.265H57.2249C57.7297 25.265 58.1468 25.0894 58.498 24.7601C58.8492 24.4309 59.0029 23.9919 59.0029 23.4651C59.0029 22.9382 58.8273 22.4992 58.498 22.148C58.1687 21.7968 57.7297 21.5993 57.2249 21.5993H52.747C52.2202 21.5993 51.7812 21.7749 51.408 22.148C51.0129 22.5212 50.8373 22.9602 50.8373 23.4651Z" fill="black"/>
<rect x="9" y="40" width="25" height="6" fill="white"/>
<path d="M11.0465 48.8686C11.0232 49.008 11 49.101 11 49.1707C11 49.5656 11.1162 49.9374 11.3717 50.2859C11.6041 50.6576 11.9526 50.9132 12.4405 51.0526C12.5334 51.0526 12.6263 51.0758 12.7657 51.099C12.9051 51.1223 13.0213 51.1455 13.091 51.1455C14.0436 51.1455 14.6244 50.6344 14.8567 49.6121L15.182 48.2181C15.3214 47.7302 15.2749 47.2423 15.0194 46.7544C14.7406 46.2897 14.3688 45.9645 13.8345 45.8018C13.2536 45.6624 12.7425 45.7089 12.2546 45.9877C11.7667 46.2665 11.4647 46.6615 11.302 47.2191L11.0929 48.5898C11.0929 48.6595 11.0697 48.7525 11.0465 48.8686Z" fill="black"/>
<path d="M13.2536 40.9693C12.9051 41.341 12.7193 41.7824 12.7193 42.34C12.7193 42.8512 12.9284 43.2926 13.3001 43.6643C13.6486 44.0361 14.09 44.2219 14.6244 44.2219C15.182 44.2219 15.6467 44.0593 15.9952 43.6876C16.3437 43.3158 16.5295 42.8744 16.5295 42.34C16.5295 41.7824 16.3669 41.3178 15.9952 40.9693C15.6234 40.6208 15.182 40.4349 14.6244 40.4349C14.0668 40.4349 13.6021 40.5975 13.2536 40.9693Z" fill="black"/>
<path d="M16.6225 55.7225C16.5528 56.0013 16.5295 56.1639 16.5295 56.2568C16.5295 56.6518 16.6689 57.0235 16.9013 57.3953C17.1568 57.767 17.5286 58.0226 18.0397 58.162C18.2256 58.2084 18.4347 58.2317 18.5973 58.2317C19.5963 58.2317 20.2236 57.767 20.456 56.8144L20.758 55.4437C20.9207 54.8628 20.851 54.3285 20.5722 53.8638C20.2934 53.3991 19.8751 53.0971 19.3408 53.0042C18.8529 52.8415 18.365 52.888 17.8771 53.1668C17.4124 53.4224 17.0871 53.8173 16.9245 54.3517L16.6225 55.7225Z" fill="black"/>
<path d="M18.8993 48.1484C18.5508 48.4969 18.365 48.9616 18.365 49.4959C18.365 50.0303 18.5508 50.4717 18.9226 50.8435C19.2943 51.2152 19.7357 51.4011 20.2701 51.4011C20.8277 51.4011 21.2692 51.2384 21.6409 50.8667C21.9894 50.495 22.1753 50.0535 22.1753 49.4959C22.1753 48.9616 22.0126 48.5201 21.6409 48.1484C21.2692 47.7999 20.8277 47.614 20.2701 47.614C19.7125 47.614 19.2711 47.7767 18.8993 48.1484Z" fill="black"/>
<path d="M19.8751 43.5946C19.8287 43.7805 19.8054 43.9896 19.8054 44.2219C19.7822 44.5704 19.8751 44.9422 20.1539 45.3139C20.3863 45.6856 20.7348 45.918 21.1994 46.0109C21.7338 46.1503 22.245 46.1039 22.6864 45.8715C23.1278 45.6392 23.4531 45.221 23.639 44.5704L24.243 42.4794C24.4057 41.9683 24.3592 41.4804 24.0804 41.0157C23.8016 40.5511 23.4066 40.249 22.849 40.0864C22.3379 39.9238 21.85 39.9935 21.3621 40.2723C20.8974 40.5511 20.5722 40.9693 20.4095 41.5036L19.8751 43.5946Z" fill="black"/>
<path d="M26.2411 48.8919C26.2179 49.008 26.2179 49.1242 26.2179 49.1939C26.2179 49.5889 26.3573 49.9606 26.5664 50.3323C26.7987 50.7041 27.1472 50.9596 27.6119 51.099C27.6816 51.099 27.7977 51.1223 27.9371 51.1455C28.0765 51.1687 28.1927 51.192 28.2624 51.192C29.215 51.192 29.7958 50.6808 30.0281 49.6586L30.3534 48.2646C30.516 47.7767 30.4696 47.2888 30.1908 46.8009C29.9352 46.3362 29.5402 46.0109 29.0059 45.8483C28.425 45.7089 27.9139 45.7554 27.426 46.0342C26.9381 46.313 26.6361 46.7079 26.4734 47.2655L26.2643 48.6363C26.2643 48.6828 26.2643 48.7757 26.2411 48.8919Z" fill="black"/>
<path d="M28.4715 40.9925C28.123 41.3642 27.9371 41.8057 27.9371 42.3633C27.9371 42.8976 28.1462 43.3391 28.518 43.6876C28.8665 44.0593 29.3079 44.2452 29.8655 44.2452C30.4231 44.2452 30.8645 44.0593 31.213 43.7108C31.5615 43.3623 31.7474 42.8976 31.7474 42.3633C31.7474 41.8057 31.5848 41.3642 31.213 40.9925C30.8413 40.644 30.3999 40.4581 29.8423 40.4581C29.2847 40.4581 28.8432 40.6208 28.4715 40.9925Z" fill="black"/>
</svg>
