<svg width="50" height="49" viewBox="0 0 50 49" fill="none" xmlns="http://www.w3.org/2000/svg">
<path d="M0 22.8711C0 20.0937 0.868307 17.6303 2.60492 15.4567C4.34153 13.2831 6.53642 11.9065 9.18958 11.2786C9.93729 7.99401 11.6498 5.28909 14.2788 3.16379C16.9079 1.0385 19.9228 0 23.3237 0C26.6522 0 29.5948 1.0385 32.1997 3.09134C34.8046 5.14418 36.493 7.8008 37.2648 11.0371H38.0367C40.1833 11.0371 42.1852 11.5684 44.0183 12.6069C45.8514 13.6454 47.3227 15.0944 48.384 16.9058C49.4452 18.7171 50 20.7216 50 22.8711C50 24.9964 49.4935 26.9526 48.4805 28.764C47.4674 30.5753 46.0685 32.0243 44.3078 33.1111C42.547 34.1979 40.6175 34.7776 38.5191 34.8259C38.2055 34.8259 38.0367 34.681 38.0367 34.4153V31.2032C38.0367 30.9134 38.2055 30.7685 38.5191 30.7685C40.5692 30.6719 42.33 29.8508 43.7771 28.3051C45.2243 26.7594 45.9479 24.9481 45.9479 22.8469C45.9479 20.7458 45.1519 18.9345 43.5842 17.3888C42.0164 15.8431 40.1592 15.0703 38.0125 15.0703H34.1293C33.8398 15.0703 33.6951 14.9254 33.6951 14.6597L33.5022 13.259C33.2369 10.6506 32.1032 8.45288 30.1495 6.714C28.1717 4.95097 25.9045 4.08153 23.2754 4.08153C20.6464 4.08153 18.3309 4.95097 16.4013 6.714C14.4477 8.47703 13.3623 10.6506 13.1211 13.259L12.9522 14.539C12.9522 14.8288 12.7834 14.9978 12.4699 14.9978L11.1915 15.0703C9.18958 15.3118 7.5012 16.1812 6.12639 17.6544C4.75157 19.1277 4.07622 20.8665 4.07622 22.8711C4.07622 24.9722 4.79981 26.7836 6.24698 28.3292C7.69416 29.8749 9.4549 30.696 11.5051 30.7926C11.7704 30.7926 11.9151 30.9376 11.9151 31.2274V34.4395C11.9151 34.7051 11.7704 34.85 11.5051 34.85C8.27303 34.7051 5.54752 33.4734 3.30439 31.1549C1.06126 28.8364 0 26.0832 0 22.8711Z" fill="black"/>
<path d="M36.2528 38.5724C36.318 38.4711 36.4146 38.3943 36.5275 38.3538H36.6576C36.7364 38.342 36.8169 38.3478 36.8933 38.3708C36.9697 38.3938 37.0401 38.4334 37.0995 38.4869C37.159 38.5404 37.206 38.6064 37.2372 38.6802C37.2685 38.754 37.2832 38.8338 37.2803 38.914V40.7276L38.5583 39.4415C38.6095 39.3889 38.6707 39.3473 38.7383 39.319C38.8058 39.2907 38.8783 39.2764 38.9515 39.2769C39.0646 39.2697 39.1771 39.2982 39.2733 39.3585C39.3695 39.4188 39.4445 39.5079 39.4879 39.6133C39.5312 39.7187 39.5407 39.8351 39.515 39.9462C39.4894 40.0573 39.4298 40.1575 39.3446 40.2328L38.0666 41.5189H39.8689C40.0165 41.5189 40.1581 41.5779 40.2625 41.6829C40.3669 41.788 40.4256 41.9305 40.4256 42.0791C40.4256 42.2276 40.3669 42.3701 40.2625 42.4752C40.1581 42.5803 40.0165 42.6393 39.8689 42.6393H38.0666L39.3446 43.9254C39.3963 43.9773 39.4372 44.039 39.4652 44.1069C39.4931 44.1748 39.5075 44.2475 39.5075 44.321C39.5075 44.3945 39.4931 44.4672 39.4652 44.5351C39.4372 44.603 39.3963 44.6647 39.3446 44.7166C39.293 44.7686 39.2317 44.8098 39.1643 44.8379C39.0968 44.866 39.0245 44.8805 38.9515 44.8805C38.8785 44.8805 38.8062 44.866 38.7387 44.8379C38.6713 44.8098 38.61 44.7686 38.5583 44.7166L37.2803 43.4305V45.2441C37.2803 45.3927 37.2217 45.5352 37.1173 45.6403C37.0129 45.7453 36.8713 45.8043 36.7236 45.8043C36.576 45.8043 36.4344 45.7453 36.3299 45.6403C36.2255 45.5352 36.1669 45.3927 36.1669 45.2441V43.4305L34.8889 44.7166C34.8372 44.7686 34.7759 44.8098 34.7085 44.8379C34.641 44.866 34.5687 44.8805 34.4957 44.8805C34.4227 44.8805 34.3504 44.866 34.2829 44.8379C34.2155 44.8098 34.1542 44.7686 34.1026 44.7166C34.0509 44.6647 34.01 44.603 33.982 44.5351C33.9541 44.4672 33.9397 44.3945 33.9397 44.321C33.9397 44.2475 33.9541 44.1748 33.982 44.1069C34.01 44.039 34.0509 43.9773 34.1026 43.9254L35.3806 42.6393H33.5783C33.5046 42.6449 33.4304 42.6356 33.3602 42.6121C33.29 42.5886 33.2252 42.5512 33.1695 42.5022C33.1138 42.4532 33.0683 42.3936 33.0357 42.3267C33.0032 42.2599 32.9841 42.1872 32.9797 42.1128C32.9754 42.0385 32.9857 41.9641 33.0102 41.8938C33.0347 41.8235 33.0728 41.7589 33.1224 41.7036C33.172 41.6483 33.232 41.6035 33.2989 41.5718C33.3658 41.5401 33.4384 41.5221 33.5123 41.5189H35.3806L34.1026 40.2328C34.0217 40.1612 33.9639 40.0671 33.9363 39.9623C33.9088 39.8576 33.9128 39.747 33.9478 39.6446C33.9829 39.5421 34.0474 39.4525 34.1332 39.387C34.219 39.3216 34.3222 39.2832 34.4297 39.2769C34.5136 39.2666 34.5989 39.2761 34.6786 39.3047C34.7583 39.3333 34.8303 39.3801 34.8889 39.4415L36.1669 40.7276V38.914C36.1574 38.7937 36.1876 38.6736 36.2528 38.5724Z" fill="black"/>
<path d="M16.6362 42.8011C16.692 42.7143 16.7748 42.6485 16.8717 42.6138H16.9831C17.0507 42.6037 17.1197 42.6086 17.1851 42.6284C17.2506 42.6481 17.311 42.6821 17.3619 42.7279C17.4129 42.7737 17.4532 42.8303 17.48 42.8936C17.5067 42.9568 17.5193 43.0253 17.5169 43.094V44.6485L18.6123 43.5461C18.6562 43.5011 18.7087 43.4654 18.7666 43.4411C18.8245 43.4169 18.8866 43.4046 18.9493 43.4051C19.0463 43.3988 19.1427 43.4233 19.2252 43.475C19.3076 43.5267 19.3719 43.6031 19.4091 43.6934C19.4462 43.7837 19.4544 43.8835 19.4324 43.9787C19.4103 44.0739 19.3593 44.1598 19.2863 44.2244L18.1909 45.3267H19.7356C19.8622 45.3267 19.9836 45.3773 20.073 45.4674C20.1625 45.5574 20.2128 45.6795 20.2128 45.8069C20.2128 45.9343 20.1625 46.0564 20.073 46.1464C19.9836 46.2365 19.8622 46.2871 19.7356 46.2871H18.1909L19.2863 47.3894C19.3306 47.434 19.3657 47.4868 19.3896 47.545C19.4136 47.6032 19.4259 47.6656 19.4259 47.7285C19.4259 47.7915 19.4136 47.8539 19.3896 47.9121C19.3657 47.9703 19.3306 48.0231 19.2863 48.0677C19.2421 48.1122 19.1895 48.1475 19.1317 48.1716C19.0739 48.1957 19.0119 48.2081 18.9493 48.2081C18.8867 48.2081 18.8248 48.1957 18.7669 48.1716C18.7091 48.1475 18.6566 48.1122 18.6123 48.0677L17.5169 46.9653V48.5198C17.5169 48.6472 17.4666 48.7693 17.3771 48.8593C17.2876 48.9494 17.1663 49 17.0397 49C16.9131 49 16.7918 48.9494 16.7023 48.8593C16.6128 48.7693 16.5625 48.6472 16.5625 48.5198V46.9653L15.4671 48.0677C15.4228 48.1122 15.3703 48.1475 15.3125 48.1716C15.2546 48.1957 15.1927 48.2081 15.1301 48.2081C15.0675 48.2081 15.0055 48.1957 14.9477 48.1716C14.8899 48.1475 14.8373 48.1122 14.7931 48.0677C14.7488 48.0231 14.7137 47.9703 14.6898 47.9121C14.6658 47.8539 14.6535 47.7915 14.6535 47.7285C14.6535 47.6656 14.6658 47.6032 14.6898 47.545C14.7137 47.4868 14.7488 47.434 14.7931 47.3894L15.8885 46.2871H14.3438C14.2805 46.2919 14.217 46.2839 14.1568 46.2638C14.0966 46.2436 14.0411 46.2116 13.9933 46.1696C13.9456 46.1276 13.9066 46.0765 13.8787 46.0192C13.8507 45.9619 13.8344 45.8995 13.8307 45.8358C13.8269 45.7721 13.8358 45.7083 13.8568 45.6481C13.8778 45.5879 13.9105 45.5325 13.953 45.4851C13.9954 45.4377 14.0469 45.3993 14.1042 45.3721C14.1616 45.3449 14.2238 45.3295 14.2872 45.3267H15.8885L14.7931 44.2244C14.7238 44.163 14.6742 44.0823 14.6506 43.9926C14.627 43.9028 14.6304 43.808 14.6605 43.7202C14.6905 43.6324 14.7458 43.5555 14.8194 43.4994C14.8929 43.4433 14.9813 43.4105 15.0735 43.4051C15.1455 43.3962 15.2185 43.4044 15.2868 43.4289C15.3551 43.4534 15.4168 43.4935 15.4671 43.5461L16.5625 44.6485V43.094C16.5544 42.9909 16.5803 42.8879 16.6362 42.8011Z" fill="black"/>
<path d="M24.6484 22.4844C25.0581 22.4844 25.3906 22.8169 25.3906 23.2266V25.7167L26.9783 24.1291C27.0472 24.0601 27.1291 24.0055 27.2191 23.9682C27.3092 23.9309 27.4057 23.9117 27.5032 23.9117C27.6007 23.9117 27.6972 23.9309 27.7872 23.9682C27.8773 24.0055 27.9591 24.0601 28.0281 24.1291C28.097 24.198 28.1517 24.2798 28.189 24.3699C28.2263 24.4599 28.2455 24.5565 28.2455 24.6539C28.2455 24.7514 28.2263 24.8479 28.189 24.938C28.1517 25.0281 28.097 25.1099 28.0281 25.1788L25.3906 27.8157V29.9062H27.4806L30.1181 27.2688C30.2573 27.1296 30.4461 27.0514 30.6429 27.0514C30.8398 27.0514 31.0286 27.1296 31.1678 27.2688C31.307 27.408 31.3852 27.5968 31.3852 27.7937C31.3852 27.9906 31.307 28.1794 31.1678 28.3186L29.5801 29.9062H32.0703C32.2672 29.9062 32.4559 29.9844 32.5951 30.1236C32.7343 30.2628 32.8125 30.4516 32.8125 30.6484C32.8125 30.8453 32.7343 31.0341 32.5951 31.1732C32.4559 31.3124 32.2672 31.3906 32.0703 31.3906H29.5801L31.1678 32.9783C31.307 33.1175 31.3852 33.3063 31.3852 33.5032C31.3852 33.7001 31.307 33.8889 31.1678 34.0281C31.0286 34.1673 30.8398 34.2455 30.6429 34.2455C30.4461 34.2455 30.2573 34.1673 30.1181 34.0281L27.4812 31.3906H25.3906V33.4806L28.0281 36.1181C28.1673 36.2573 28.2455 36.4461 28.2455 36.6429C28.2455 36.8398 28.1673 37.0286 28.0281 37.1678C27.8889 37.307 27.7001 37.3852 27.5032 37.3852C27.3063 37.3852 27.1175 37.307 26.9783 37.1678L25.3906 35.5801V38.0703C25.3906 38.2672 25.3124 38.4559 25.1732 38.5951C25.0341 38.7343 24.8453 38.8125 24.6484 38.8125C24.4516 38.8125 24.2628 38.7343 24.1236 38.5951C23.9844 38.4559 23.9062 38.2672 23.9062 38.0703V35.5801L22.3186 37.1678C22.1794 37.307 21.9906 37.3852 21.7937 37.3852C21.5968 37.3852 21.408 37.307 21.2688 37.1678C21.1296 37.0286 21.0514 36.8398 21.0514 36.6429C21.0514 36.4461 21.1296 36.2573 21.2688 36.1181L23.9062 33.4812V31.3906H21.8162L19.1788 34.0281C19.0396 34.1673 18.8508 34.2455 18.6539 34.2455C18.4571 34.2455 18.2683 34.1673 18.1291 34.0281C17.9899 33.8889 17.9117 33.7001 17.9117 33.5032C17.9117 33.3063 17.9899 33.1175 18.1291 32.9783L19.7167 31.3906H17.2266C17.0297 31.3906 16.8409 31.3124 16.7018 31.1732C16.5626 31.0341 16.4844 30.8453 16.4844 30.6484C16.4844 30.4516 16.5626 30.2628 16.7018 30.1236C16.8409 29.9844 17.0297 29.9062 17.2266 29.9062H19.7167L18.1291 28.3186C17.9899 28.1794 17.9117 27.9906 17.9117 27.7937C17.9117 27.5968 17.9899 27.408 18.1291 27.2688C18.2683 27.1296 18.4571 27.0514 18.6539 27.0514C18.8508 27.0514 19.0396 27.1296 19.1788 27.2688L21.8157 29.9062H23.9062V27.8162L21.2688 25.1788C21.1296 25.0396 21.0514 24.8508 21.0514 24.6539C21.0514 24.4571 21.1296 24.2683 21.2688 24.1291C21.408 23.9899 21.5968 23.9117 21.7937 23.9117C21.9906 23.9117 22.1794 23.9899 22.3186 24.1291L23.9062 25.7167V23.2266C23.9062 22.8169 24.2388 22.4844 24.6484 22.4844Z" fill="black"/>
</svg>
