<svg width="59" height="46" viewBox="0 0 59 46" fill="none" xmlns="http://www.w3.org/2000/svg">
<path d="M0 35.0988C0 37.0743 0.482911 38.8962 1.44873 40.5645C2.41455 42.2327 3.73158 43.5497 5.39982 44.5156C7.06805 45.4814 8.86799 45.9643 10.8216 45.9643H34.5939C36.5475 45.9643 38.3694 45.4814 40.0377 44.5156C41.7059 43.5497 43.0449 42.2327 44.0107 40.5645C44.9765 38.8962 45.4814 37.0743 45.4814 35.0988C45.4814 33.6501 45.1741 32.1794 44.5595 30.7087C46.2277 28.6893 47.0618 26.2528 47.0618 23.4651C47.0618 21.9066 46.7545 20.4139 46.1618 18.9872C45.5692 17.5604 44.7351 16.3531 43.7034 15.3214C42.6717 14.2898 41.4644 13.4556 40.0377 12.863C38.6109 12.2484 37.1182 11.963 35.5598 11.963C32.3111 11.963 29.4795 13.2361 27.043 15.7824C25.3528 14.8166 23.3773 14.3337 21.1164 14.3337C18.0213 14.3337 15.2995 15.2995 12.9288 17.2092C10.5582 19.1189 9.02164 21.5773 8.36313 24.5626C5.90468 25.1333 3.90718 26.3845 2.3487 28.36C0.790217 30.3356 0 32.5745 0 35.0988ZM3.75353 35.0988C3.75353 33.255 4.36814 31.6745 5.59737 30.3356C6.8266 28.9966 8.36313 28.2283 10.207 28.0088L11.3045 27.943C11.5679 27.943 11.7216 27.8112 11.7216 27.5478L11.8752 26.3625C12.1825 23.9919 13.2142 21.9944 14.9702 20.4139C16.7263 18.8116 18.7896 18.0213 21.1383 18.0213C23.5529 18.0213 25.6601 18.8335 27.4381 20.4359C29.238 22.0383 30.2258 24.0138 30.4453 26.3845L30.599 27.6576C30.6429 27.899 30.7965 28.0308 31.0599 28.0308H34.5939C36.5256 28.0308 38.1938 28.7332 39.5986 30.138C41.0035 31.5428 41.7059 33.1891 41.7059 35.1208C41.7059 37.1182 41.0035 38.8084 39.6206 40.2133C38.2377 41.6181 36.5475 42.3205 34.6159 42.3205H10.8216C8.88994 42.3205 7.24365 41.6181 5.83882 40.1913C4.45594 38.7645 3.75353 37.0743 3.75353 35.0988ZM18.4603 8.16558C18.4603 8.69239 18.6359 9.15335 18.9872 9.54846L20.4359 10.9533C20.9846 11.3703 21.4456 11.5459 21.8407 11.502C22.3017 11.502 22.6968 11.3045 23.048 10.9313C23.3992 10.5582 23.5748 10.0972 23.5748 9.57041C23.5748 9.04359 23.3772 8.60458 23.0041 8.27533L21.709 6.8266C21.3139 6.47539 20.8749 6.29979 20.37 6.29979C19.8432 6.29979 19.3823 6.47539 19.0091 6.84855C18.6359 7.19975 18.4603 7.63876 18.4603 8.16558ZM30.1819 17.8896C31.6965 16.419 33.4964 15.6946 35.5598 15.6946C37.7329 15.6946 39.5767 16.4409 41.0913 17.9555C42.6059 19.4701 43.3741 21.292 43.3741 23.4651C43.3741 24.826 43.001 26.1869 42.2547 27.5039C40.1255 25.3967 37.5792 24.3431 34.5939 24.3431H33.8915C33.3428 21.9505 32.1135 19.7993 30.1819 17.8896ZM33.7598 6.29979C33.7598 6.8705 33.9354 7.30951 34.2647 7.66071C34.5939 8.01192 35.033 8.16558 35.5598 8.16558C36.1305 8.16558 36.5695 7.98997 36.9207 7.66071C37.2719 7.30951 37.4256 6.8705 37.4256 6.29979V1.79994C37.4256 1.27313 37.2499 0.856068 36.8987 0.504861C36.5475 0.153653 36.1085 0 35.5598 0C35.033 0 34.6159 0.175604 34.2647 0.504861C33.9135 0.834118 33.7598 1.27313 33.7598 1.79994V6.29979ZM45.8765 11.3264C45.8765 11.8972 46.0301 12.3362 46.3594 12.6874C46.8204 13.0386 47.2813 13.2142 47.7203 13.2142C48.1154 13.2142 48.5544 13.0386 49.0154 12.6874L52.1543 9.54846C52.5055 9.15335 52.6811 8.69239 52.6811 8.14362C52.6811 7.61681 52.5055 7.1778 52.1543 6.8266C51.8031 6.47539 51.3641 6.29979 50.8592 6.29979C50.3324 6.29979 49.9154 6.47539 49.5861 6.8266L46.3594 9.96551C46.0301 10.3826 45.8765 10.8216 45.8765 11.3264ZM47.6106 37.3158C47.6106 37.8426 47.7862 38.3036 48.1593 38.6987L49.5861 40.0816C49.9154 40.4328 50.3324 40.6084 50.8592 40.6084C51.386 40.6084 51.8251 40.4328 52.1763 40.0596C52.5275 39.6865 52.7031 39.2474 52.7031 38.6987C52.7031 38.2158 52.5275 37.7768 52.1763 37.4256L50.7495 35.9988C50.3983 35.6476 49.9812 35.472 49.4983 35.472C48.9715 35.472 48.5325 35.6476 48.1813 35.9988C47.8081 36.35 47.6106 36.789 47.6106 37.3158ZM50.8373 23.4651C50.8373 23.9699 51.0348 24.387 51.408 24.7382C51.7592 25.0894 52.2202 25.265 52.747 25.265H57.2249C57.7297 25.265 58.1468 25.0894 58.498 24.7601C58.8492 24.4309 59.0029 23.9919 59.0029 23.4651C59.0029 22.9382 58.8273 22.4992 58.498 22.148C58.1687 21.7968 57.7297 21.5993 57.2249 21.5993H52.747C52.2202 21.5993 51.7812 21.7749 51.408 22.148C51.0129 22.5212 50.8373 22.9602 50.8373 23.4651Z" fill="black"/>
</svg>
