<svg width="53" height="35" viewBox="0 0 53 35" fill="none" xmlns="http://www.w3.org/2000/svg">
<path d="M0 24.5793C0 22.2169 0.739757 20.0931 2.21927 18.2556C3.69878 16.4182 5.58397 15.225 7.89869 14.7C8.51913 11.908 9.92706 9.59331 12.1463 7.82744C14.3656 6.0377 16.919 5.15477 19.8303 5.15477C22.6461 5.15477 25.1756 6.01384 27.371 7.75585C29.5903 9.49785 31.0221 11.7171 31.6664 14.4375H32.3107C35.1265 14.4375 37.5128 15.4159 39.4935 17.3965C41.4741 19.3772 42.4764 21.7635 42.4764 24.5555C42.4764 27.3713 41.4741 29.7576 39.4935 31.7383C37.5128 33.7189 35.1265 34.7212 32.3107 34.7212H10.1896C8.80549 34.7212 7.49302 34.4587 6.25214 33.9098C5.01126 33.361 3.88969 32.6928 2.98289 31.786C2.07609 30.8792 1.3602 29.7815 0.811346 28.5406C0.262494 27.2997 0 25.9395 0 24.5793ZM3.46015 24.5793C3.46015 26.3929 4.12832 27.9679 5.41693 29.2565C6.70554 30.5451 8.30436 31.2133 10.1657 31.2133H32.3107C34.1481 31.2133 35.747 30.569 37.0594 29.2565C38.3719 27.944 39.0401 26.3929 39.0401 24.5793C39.0401 22.7658 38.3958 21.1908 37.0594 19.9022C35.747 18.6136 34.172 17.9454 32.3107 17.9454H28.9937C28.7551 17.9454 28.6357 17.8261 28.6357 17.5875L28.4687 16.4182C28.2301 14.175 27.2755 12.2898 25.629 10.8103C23.9824 9.33081 22.0257 8.59105 19.7825 8.59105C17.5394 8.59105 15.5826 9.33081 13.9122 10.8342C12.2418 12.3137 11.3111 14.1989 11.0964 16.4182L10.9293 17.4204C10.9293 17.659 10.81 17.7784 10.5475 17.7784L9.47366 17.9454C7.75551 18.0886 6.32373 18.8045 5.15443 20.0692C4.05673 21.334 3.46015 22.8373 3.46015 24.5793ZM24.579 3.7707C24.3404 3.98547 24.3881 4.15251 24.7461 4.27183C25.7722 4.72523 26.6312 5.15477 27.3233 5.5843C27.5858 5.65589 27.7767 5.63203 27.8483 5.51271C29.3039 4.15251 30.9743 3.46048 32.9072 3.46048C34.8402 3.46048 36.4867 4.10479 37.9185 5.3934C39.3264 6.68201 40.1139 8.28084 40.281 10.166L40.4957 11.6933H43.8843C45.4354 11.6933 46.7717 12.2421 47.8933 13.3637C49.0149 14.4852 49.5637 15.7977 49.5637 17.325C49.5637 18.7567 49.0626 19.9976 48.0842 21.0715C47.1058 22.1453 45.8888 22.7419 44.4331 22.9089C44.1945 22.9089 44.0752 23.0282 44.0752 23.2907V25.9873C44.0752 26.2498 44.1945 26.3691 44.4331 26.3691C46.8433 26.2259 48.8717 25.2714 50.5182 23.5294C52.1648 21.7874 53 19.7113 53 17.325C53 14.7955 52.1171 12.6478 50.3273 10.8819C48.5376 9.09218 46.3899 8.20924 43.8843 8.20924H43.5263C42.9059 5.82293 41.5934 3.86616 39.5889 2.31505C37.6083 0.763952 35.3651 0.000331451 32.9072 0.000331451C29.5664 -0.0235317 26.7744 1.24121 24.579 3.7707Z" fill="black"/>
</svg>
