<svg width="50" height="49" viewBox="0 0 50 49" fill="none" xmlns="http://www.w3.org/2000/svg">
<path d="M0 22.4565C0 25.0803 0.780067 27.4205 2.3402 29.4771C3.90034 31.5336 5.93324 32.9519 8.43891 33.7084L6.87877 37.6796C6.80786 38.0105 6.92605 38.1997 7.20971 38.1997H12.2447L9.92813 48.3642H10.59L19.8563 34.7721C19.9508 34.6775 19.9508 34.5593 19.8799 34.4411C19.809 34.323 19.6908 34.2757 19.5253 34.2757H14.3721L20.2345 23.3075C20.3999 22.9765 20.2817 22.7874 19.9035 22.7874H12.9538C12.7411 22.7874 12.552 22.9056 12.4102 23.142L9.88085 29.9262C8.20253 29.5007 6.80786 28.5788 5.69685 27.1842C4.58585 25.7895 4.04217 24.2057 4.04217 22.4328C4.04217 20.4709 4.70404 18.7689 6.05143 17.3033C7.39882 15.8614 9.05351 15.0104 11.0155 14.774L12.2683 14.6085C12.5756 14.6085 12.7411 14.4667 12.7411 14.183L12.9066 12.9775C13.1666 10.4245 14.2303 8.27344 16.145 6.54784C18.0597 4.82223 20.3054 3.94761 22.882 3.94761C25.4586 3.94761 27.7042 4.82223 29.6189 6.54784C31.5573 8.27344 32.6446 10.4245 32.9283 12.9775L33.0938 14.3485C33.0938 14.6085 33.2356 14.7504 33.5193 14.7504H37.3014C39.4525 14.7504 41.2726 15.5068 42.7855 16.996C44.2984 18.4852 45.0784 20.3054 45.0784 22.3856C45.0784 24.3948 44.3693 26.1441 42.9746 27.6097C41.5799 29.0752 39.8307 29.9026 37.7742 30.068C37.4669 30.068 37.3014 30.2099 37.3014 30.4935V33.732C37.3014 33.992 37.4669 34.1338 37.7742 34.1338C40.9181 34.0393 43.5892 32.8337 45.7876 30.5645C47.986 28.2952 49.0733 25.5767 49.0733 22.4092C49.0733 20.2817 48.5533 18.3198 47.4895 16.5232C46.4495 14.7267 45.0075 13.3084 43.211 12.2683C41.3908 11.2282 39.4289 10.7082 37.3014 10.7082H36.5686C35.7885 7.56429 34.1102 4.9877 31.5809 3.00208C29.0516 1.01645 26.1441 0 22.882 0C19.549 0 16.5705 1.04009 13.9939 3.09663C11.4173 5.15317 9.76266 7.80067 9.02987 11.0391C6.40601 11.6537 4.25491 13.0011 2.55295 15.1286C0.850982 17.256 0 19.7381 0 22.4565ZM19.2417 45.4094C19.2417 46.3313 19.6908 46.9459 20.6127 47.2295C20.6363 47.2295 20.7309 47.2295 20.8727 47.2532C21.0145 47.2768 21.1327 47.2768 21.2036 47.2768C21.6055 47.2768 21.9837 47.1586 22.3619 46.9222C22.7401 46.6858 23.0002 46.3076 23.1184 45.7876L28.437 25.2458C28.5788 24.6785 28.5316 24.1821 28.2715 23.7093C28.0115 23.2602 27.6333 22.9529 27.0896 22.7874C26.6878 22.7401 26.475 22.7165 26.475 22.7165C26.0968 22.7165 25.7186 22.8347 25.364 23.0711C25.0094 23.3075 24.7494 23.662 24.6312 24.1348L19.2889 44.7475C19.2653 44.9839 19.2417 45.1966 19.2417 45.4094ZM29.0752 38.176C29.0752 38.4833 29.1461 38.7906 29.3116 39.0743C29.6426 39.5943 30.0444 39.9489 30.5172 40.1144C30.7772 40.1853 31.0136 40.2326 31.2263 40.2326C31.4391 40.2326 31.6991 40.1853 31.9828 40.0434C32.4792 39.8307 32.8101 39.3816 32.9756 38.6961L36.3795 25.2931C36.4504 24.9622 36.4977 24.7494 36.4977 24.6549C36.4977 24.3003 36.3795 23.9457 36.1195 23.5911C35.8595 23.2365 35.5049 22.9765 35.0321 22.8347C34.6303 22.7874 34.4175 22.7638 34.4175 22.7638C34.0157 22.7638 33.6374 22.882 33.3065 23.1184C32.9756 23.3547 32.7392 23.7093 32.5974 24.1821L29.1461 37.656C29.1461 37.7032 29.1462 37.7742 29.1225 37.916C29.0752 38.0342 29.0752 38.1051 29.0752 38.176Z" fill="black"/>
</svg>
