<svg width="59" height="60" viewBox="0 0 59 60" fill="none" xmlns="http://www.w3.org/2000/svg">
<path d="M0 35.0681C0 37.5137 0.720577 39.6973 2.18357 41.6188C3.64656 43.5403 5.52443 44.8286 7.81717 45.4619L6.37602 49.1739C6.26684 49.4796 6.37602 49.6543 6.68172 49.6543H11.3327L8.21021 58.8471H8.84345L18.3638 46.4882C18.4511 46.4008 18.4511 46.2916 18.4075 46.1825C18.3638 46.0733 18.2546 46.0296 18.1018 46.0296H13.3198L18.7568 35.876C18.9097 35.5703 18.8224 35.3956 18.4511 35.3956H11.9878C11.7913 35.3956 11.6166 35.5048 11.4856 35.7232L9.14915 42.0118C7.57698 41.6188 6.26684 40.789 5.2624 39.4789C4.23612 38.1906 3.7339 36.7276 3.7339 35.0681C3.7339 33.2339 4.3453 31.6399 5.5681 30.3079C6.7909 28.9759 8.34123 28.1899 10.1754 27.9715L11.289 27.906C11.5511 27.906 11.7039 27.7968 11.7694 27.6003L11.9223 26.312C12.1625 23.9537 13.1451 21.9667 14.9138 20.3727C16.6825 18.7787 18.7568 17.9708 21.1588 17.9708C23.5389 17.9708 25.6133 18.7787 27.4038 20.3727C29.1943 21.9667 30.2206 23.9537 30.4608 26.312L30.6355 27.6003C30.6355 27.8405 30.7665 27.9715 31.0285 27.9715H34.544C36.4874 27.9715 38.1688 28.6702 39.5881 30.0677C41.0074 31.4652 41.7061 33.1247 41.7061 35.0681C41.7061 36.9678 41.0511 38.6055 39.7409 40.003C38.4308 41.4004 36.8586 42.1429 34.9808 42.252C34.6969 42.252 34.544 42.383 34.544 42.6451V45.5711C34.544 45.8112 34.6969 45.9423 34.9808 45.9423C36.9023 45.8986 38.671 45.3745 40.265 44.3701C41.859 43.3875 43.1255 42.0555 44.0644 40.4178C45.0033 38.7802 45.4619 36.9896 45.4619 35.0681C45.4619 33.4741 45.1562 32.0111 44.5229 30.6573C46.1825 28.5611 47.0122 26.1591 47.0122 23.4734C47.0122 21.399 46.4882 19.4774 45.4619 17.7087C44.4356 15.94 43.0381 14.5426 41.2694 13.5163C39.5007 12.49 37.5792 11.966 35.5048 11.966C33.9326 11.966 32.4041 12.2935 30.9193 12.9486C29.4345 13.6036 28.168 14.5207 27.0762 15.678C25.3076 14.7391 23.3423 14.2587 21.1369 14.2587C18.0363 14.2587 15.285 15.2195 12.9049 17.141C10.5248 19.0625 8.97446 21.5081 8.31939 24.4996C5.89563 25.0674 3.90859 26.3338 2.33642 28.299C0.786084 30.3079 0 32.557 0 35.0681ZM17.2065 57.3842C17.2065 57.7554 17.3157 58.1047 17.5559 58.4541C17.7961 58.8035 18.1454 59.0437 18.6258 59.1747C18.8224 59.2184 18.997 59.2402 19.1499 59.2402C20.0888 59.2402 20.6784 58.8035 20.8967 57.9082L21.1806 56.6199C21.3116 56.0522 21.2461 55.5718 21.0059 55.1351C20.7439 54.6984 20.3727 54.4363 19.8486 54.3272C19.3901 54.1743 18.9315 54.218 18.473 54.48C18.0144 54.742 17.7306 55.1132 17.5777 55.5936L17.2939 56.8819C17.2283 57.144 17.2065 57.3186 17.2065 57.3842ZM18.3638 8.23205C18.3638 8.73427 18.5385 9.17098 18.9097 9.54219L20.329 10.9833C20.6784 11.3327 21.0714 11.5074 21.53 11.5511C21.9885 11.6166 22.4252 11.4637 22.862 11.0489C23.2987 10.6558 23.517 10.1973 23.517 9.65137C23.517 9.14915 23.3423 8.71243 22.9711 8.34123L21.5955 6.90007C21.2461 6.5507 20.8094 6.37602 20.2853 6.37602C19.7395 6.37602 19.2809 6.5507 18.9097 6.90007C18.5603 7.29312 18.3638 7.72983 18.3638 8.23205ZM18.9315 51.0518C18.9315 51.554 19.1062 51.9689 19.4556 52.3183C19.805 52.6677 20.2417 52.8423 20.7221 52.8423C21.2461 52.8423 21.661 52.6677 22.0104 52.3401C22.3597 51.9907 22.5126 51.5759 22.5126 51.0518C22.5126 50.5496 22.3379 50.1347 22.0104 49.7853C21.661 49.436 21.2461 49.2831 20.7221 49.2831C20.198 49.2831 19.7831 49.4578 19.4338 49.7853C19.1062 50.1129 18.9315 50.5496 18.9315 51.0518ZM20.2853 46.0951C20.2635 46.4226 20.3509 46.772 20.591 47.1214C20.8094 47.4708 21.1369 47.6891 21.5736 47.7765C22.0759 47.9075 22.5344 47.8638 22.9711 47.6454C23.4078 47.4271 23.6917 47.0122 23.8664 46.4226L24.4341 44.4574C24.587 43.9771 24.5433 43.5185 24.2813 43.0818C24.0192 42.6451 23.648 42.3612 23.124 42.2084C22.6436 42.0555 22.185 42.121 21.7265 42.383C21.2679 42.6451 20.9841 43.0381 20.8312 43.5403L20.329 45.5055C20.3072 45.6802 20.2853 45.8768 20.2853 46.0951ZM26.312 50.7898C26.312 51.161 26.4212 51.5104 26.6395 51.8379C26.8579 52.1654 27.1854 52.4056 27.644 52.5366C27.7095 52.5366 27.8187 52.5585 27.9497 52.5803C28.0807 52.6021 28.1899 52.624 28.2554 52.624C29.1506 52.624 29.6965 52.1436 29.9149 51.1828L30.2206 49.8727C30.3734 49.4141 30.3298 48.9556 30.0677 48.497C29.8057 48.0385 29.4345 47.7546 28.9541 47.6018C28.4082 47.4708 27.906 47.5144 27.4693 47.7765C27.0326 48.0385 26.7269 48.4097 26.574 48.9337L26.3775 50.2221C26.3775 50.2439 26.3775 50.3312 26.3557 50.4622C26.3338 50.6151 26.312 50.7024 26.312 50.7898ZM27.9278 44.3264C27.9278 44.8286 28.1025 45.2435 28.4519 45.5711C28.7794 45.9204 29.1943 46.0951 29.7184 46.0951C30.2424 46.0951 30.6573 45.9204 31.0067 45.5929C31.356 45.2435 31.5089 44.8286 31.5089 44.3264C31.5089 43.8024 31.3342 43.3875 31.0067 43.0381C30.6573 42.6887 30.2424 42.5359 29.7184 42.5359C29.1943 42.5359 28.7794 42.7106 28.4301 43.0381C28.1025 43.3875 27.9278 43.8024 27.9278 44.3264ZM30.1769 17.9053C31.6399 16.5078 33.4086 15.7872 35.5266 15.7872C37.6665 15.7872 39.5007 16.5296 41.0074 18.0363C42.5141 19.5211 43.2783 21.3553 43.2783 23.4952C43.2783 24.9363 42.9289 26.2465 42.252 27.4474C40.1558 25.3512 37.601 24.3031 34.5659 24.3031H33.889C33.2557 21.7047 32.0111 19.5648 30.1769 17.9053ZM33.6706 6.39785C33.6706 6.92191 33.8453 7.35862 34.2165 7.72983C34.5877 8.10104 35.0244 8.27572 35.5266 8.27572C36.0507 8.27572 36.4874 8.10104 36.8368 7.72983C37.1862 7.35862 37.3608 6.92191 37.3608 6.39785V1.8997C37.3608 1.37565 37.1862 0.917098 36.8368 0.567728C36.4874 0.196521 36.0507 0 35.5266 0C35.0026 0 34.5659 0.174686 34.2165 0.545892C33.8671 0.917098 33.6706 1.35381 33.6706 1.87787V6.39785ZM45.8549 11.3982C45.8549 11.9223 46.0296 12.359 46.3571 12.7084C46.6628 13.0577 47.0559 13.2324 47.5581 13.2761C48.0603 13.3198 48.5189 13.1232 48.9338 12.7084L52.0781 9.56402C52.4711 9.21465 52.6458 8.77794 52.6458 8.25389C52.6458 7.72983 52.4493 7.29312 52.0781 6.94374C51.7287 6.5507 51.292 6.37602 50.768 6.37602C50.2657 6.37602 49.8509 6.57254 49.5015 6.94374L46.3571 10.0881C46.0078 10.4156 45.8549 10.8523 45.8549 11.3982ZM47.5363 37.4045C47.5363 37.9067 47.711 38.3434 48.0822 38.7147L49.5015 40.0903C49.8945 40.4615 50.3531 40.6362 50.8553 40.6362L50.899 40.6799C51.3793 40.6799 51.7724 40.4833 52.0781 40.0903C52.4711 39.7409 52.6458 39.3042 52.6458 38.7802C52.6458 38.2779 52.4493 37.8412 52.0781 37.4482L50.7243 36.0944C50.3312 35.7013 49.8945 35.5048 49.3923 35.5048C48.8682 35.5048 48.4315 35.7013 48.0822 36.0725C47.7328 36.4437 47.5363 36.9023 47.5363 37.4045ZM50.7461 23.4952C50.7461 24.0192 50.9426 24.456 51.3138 24.7835C51.6632 25.1765 52.0999 25.3512 52.624 25.3512H57.1221C57.6462 25.3512 58.0829 25.1765 58.4541 24.8053C58.8253 24.4341 59 23.9974 59 23.4952C59 22.993 58.8253 22.5344 58.4541 22.185C58.0829 21.8357 57.6462 21.661 57.1221 21.661H52.624C52.0999 21.661 51.6414 21.8357 51.292 22.185C50.9208 22.5344 50.7461 22.9711 50.7461 23.4952Z" fill="black"/>
</svg>
