<svg width="49" height="50" viewBox="0 0 49 50" fill="none" xmlns="http://www.w3.org/2000/svg">
<path d="M0 24.5C0 23.9463 0.184557 23.4619 0.576742 23.0697C0.968926 22.7006 1.45339 22.516 1.96092 22.516H6.66714C7.19774 22.516 7.63606 22.7006 8.00518 23.0927C8.35122 23.4849 8.53578 23.9463 8.53578 24.5C8.53578 25.0537 8.37429 25.5151 8.02825 25.9072C7.6822 26.2994 7.22081 26.484 6.69021 26.484H1.98399C1.45339 26.484 0.991997 26.2994 0.599812 25.9072C0.207628 25.5151 0 25.0537 0 24.5ZM6.59793 40.4873C6.59793 39.9567 6.78249 39.4953 7.12853 39.08L10.5198 35.7811C10.8658 35.412 11.3272 35.2505 11.8809 35.2505C12.4346 35.2505 12.8959 35.435 13.2651 35.7811C13.6342 36.1271 13.8187 36.5654 13.8187 37.096C13.8187 37.6497 13.6342 38.1572 13.2651 38.5725L9.98917 41.8484C9.04331 42.5866 8.09746 42.5866 7.1516 41.8484C6.78248 41.4793 6.59793 41.0179 6.59793 40.4873ZM6.59793 8.55885C6.59793 8.02825 6.78249 7.56685 7.12853 7.1516C7.58992 6.75942 8.07439 6.57486 8.60499 6.57486C9.11252 6.57486 9.57392 6.75942 9.9661 7.12853L13.2651 10.5198C13.6342 10.8658 13.8187 11.3272 13.8187 11.8809C13.8187 12.4346 13.6342 12.8959 13.2651 13.2651C12.8959 13.6342 12.4346 13.8187 11.8809 13.8187C11.3272 13.8187 10.8658 13.6342 10.5198 13.2651L7.1516 9.9661C6.78248 9.59699 6.59793 9.11252 6.59793 8.55885ZM12.4807 24.5C12.4807 22.3545 13.0113 20.3475 14.0956 18.5019C15.1798 16.6563 16.6332 15.1798 18.5019 14.0956C20.3705 13.0113 22.3545 12.4807 24.5 12.4807C26.1149 12.4807 27.6605 12.8037 29.1601 13.4496C30.6365 14.0956 31.9284 14.9492 32.9896 16.0334C34.0739 17.1177 34.9275 18.3865 35.5504 19.863C36.1733 21.3395 36.4962 22.9082 36.4962 24.5231C36.4962 26.6916 35.9656 28.6987 34.8814 30.5443C33.7971 32.3898 32.3437 33.8432 30.4981 34.9275C28.6525 36.0118 26.6455 36.5424 24.4769 36.5424C22.3084 36.5424 20.3013 36.0118 18.4557 34.9275C16.6102 33.8432 15.1568 32.3898 14.0725 30.5443C13.0344 28.6756 12.4807 26.6685 12.4807 24.5ZM16.4025 24.5C16.4025 26.7608 17.1869 28.6756 18.7787 30.2674C20.3475 31.8592 22.2622 32.6667 24.5231 32.6667C26.7839 32.6667 28.6987 31.8592 30.2905 30.2674C31.8823 28.6756 32.6897 26.7608 32.6897 24.5C32.6897 22.2853 31.8823 20.3936 30.2905 18.8018C28.6987 17.233 26.7839 16.4487 24.5231 16.4487C22.2853 16.4487 20.3705 17.233 18.8018 18.8018C17.1869 20.3936 16.4025 22.2853 16.4025 24.5ZM22.5391 42.4482C22.5391 41.8945 22.7236 41.4331 23.1158 41.064C23.508 40.6949 23.9694 40.5104 24.5 40.5104C25.0537 40.5104 25.5381 40.6949 25.9072 41.064C26.2764 41.4331 26.4609 41.8945 26.4609 42.4482V47.0391C26.4609 47.5927 26.2764 48.0772 25.8842 48.4694C25.492 48.8616 25.0306 49.0461 24.5 49.0461C23.9694 49.0461 23.4849 48.8616 23.1158 48.4694C22.7236 48.0772 22.5391 47.5927 22.5391 47.0391V42.4482ZM22.5391 6.69021V1.98399C22.5391 1.45339 22.7236 0.991997 23.1158 0.599812C23.508 0.207628 23.9694 0 24.5231 0C25.0767 0 25.5151 0.184557 25.9072 0.576742C26.2994 0.968926 26.484 1.43032 26.484 1.96092V6.69021C26.484 7.22081 26.2994 7.65913 25.9072 8.02825C25.5151 8.39736 25.0537 8.55885 24.5231 8.55885C23.9925 8.55885 23.508 8.37429 23.1389 8.02825C22.7698 7.6822 22.5391 7.22081 22.5391 6.69021ZM35.2735 37.096C35.2735 36.5654 35.4581 36.1271 35.8041 35.8041C36.1502 35.435 36.5885 35.2735 37.096 35.2735C37.6497 35.2735 38.1111 35.4581 38.4802 35.8041L41.8484 39.1031C42.2175 39.4953 42.4021 39.9797 42.4021 40.5104C42.4021 41.041 42.2175 41.5023 41.8484 41.8715C40.9256 42.5866 40.0028 42.5866 39.08 41.8715L35.8041 38.5956C35.4581 38.1803 35.2735 37.6959 35.2735 37.096ZM35.2735 11.904C35.2735 11.3272 35.4581 10.8658 35.8041 10.5428L39.08 7.1516C39.4722 6.78248 39.9336 6.59793 40.4411 6.59793C40.9948 6.59793 41.4562 6.78249 41.8253 7.17467C42.2175 7.56685 42.4021 8.02825 42.4021 8.55885C42.4021 9.13559 42.2175 9.62006 41.8484 9.98917L38.4802 13.2881C38.065 13.6572 37.6036 13.8418 37.096 13.8418C36.5654 13.8418 36.1502 13.6572 35.8041 13.2881C35.4581 12.919 35.2735 12.4576 35.2735 11.904ZM40.4873 24.5C40.4873 23.9463 40.6718 23.4849 41.041 23.0697C41.4101 22.7006 41.8484 22.516 42.3559 22.516H47.016C47.5466 22.516 48.008 22.7236 48.4002 23.1158C48.7924 23.508 49 23.9694 49 24.5C49 25.0306 48.7924 25.492 48.4002 25.8842C48.008 26.2764 47.5466 26.4609 47.016 26.4609H42.3559C41.8253 26.4609 41.3639 26.2764 41.0179 25.8842C40.6718 25.492 40.4873 25.0537 40.4873 24.5Z" fill="black"/>
</svg>
