<svg width="57" height="48" viewBox="0 0 57 48" fill="none" xmlns="http://www.w3.org/2000/svg">
<path d="M0 31.4428C0 31.9849 0.202048 32.4367 0.583694 32.7981C0.942891 33.1821 1.39189 33.3628 1.93068 33.3628H23.0784C23.5947 33.3628 24.0437 33.1821 24.4029 32.7981C24.7621 32.4141 24.9417 31.9624 24.9417 31.4428C24.9417 30.9233 24.7621 30.4715 24.4254 30.1101C24.0662 29.7487 23.6396 29.568 23.1008 29.568H1.93068C1.39189 29.568 0.942891 29.7487 0.561245 30.1101C0.179598 30.4715 0 30.9233 0 31.4428ZM0.740843 45.3346C0.740843 45.8767 0.920442 46.3285 1.30209 46.6899C1.66128 47.0739 2.11028 47.2546 2.64907 47.2546H23.8192C24.358 47.2546 24.807 47.0739 25.1887 46.6899C25.5703 46.3059 25.7499 45.8541 25.7499 45.3346C25.7499 44.8151 25.5703 44.3633 25.1887 44.0019C24.807 43.6405 24.358 43.4598 23.8192 43.4598H2.67152C2.13273 43.4598 1.68373 43.6405 1.32454 44.0019C0.942891 44.3633 0.740843 44.8151 0.740843 45.3346ZM3.81646 38.3322C3.81646 38.8744 3.99606 39.3035 4.37771 39.6649C4.75935 40.0264 5.2308 40.1845 5.79204 40.1845H26.8948C27.4336 40.1845 27.8602 40.0038 28.2194 39.6649C28.5786 39.3035 28.7357 38.8744 28.7357 38.3322C28.7357 37.7675 28.5561 37.3158 28.2194 36.9544C27.8602 36.5929 27.4336 36.4122 26.8948 36.4122H5.79204C5.2308 36.4122 4.75935 36.5929 4.37771 36.9544C4.01851 37.3158 3.81646 37.7675 3.81646 38.3322ZM9.27176 23.9887C9.27176 23.4466 9.47381 22.9948 9.85546 22.5882C10.2371 22.2268 10.7085 22.0461 11.2024 22.0461H15.7597C16.2761 22.0461 16.7026 22.2268 17.0618 22.6108C17.421 22.9948 17.5782 23.4466 17.5782 23.9887C17.5782 24.5308 17.3986 24.9826 17.0618 25.344C16.7026 25.728 16.2761 25.9087 15.7597 25.9087H11.2024C10.6636 25.9087 10.2147 25.728 9.83301 25.344C9.45136 24.96 9.27176 24.5082 9.27176 23.9887ZM15.6924 8.35765C15.6924 7.86071 15.872 7.38635 16.2312 6.97976C16.6577 6.61835 17.1292 6.43765 17.6455 6.43765C18.1394 6.43765 18.5884 6.61835 18.9701 6.97976L22.1579 10.3002C22.5171 10.6391 22.6967 11.0908 22.6967 11.6329C22.6967 12.1751 22.5171 12.6268 22.1579 12.9882C21.7987 13.3496 21.3497 13.5304 20.811 13.5304C20.2722 13.5304 19.8232 13.3496 19.4864 12.9882L16.2312 9.75812C15.872 9.35153 15.6924 8.89977 15.6924 8.35765ZM21.4171 23.7176V23.5595C21.462 21.504 22.0232 19.6066 23.0784 17.8447C24.1335 16.1054 25.5703 14.7275 27.3438 13.7111C29.1174 12.6946 31.0481 12.1976 33.1134 12.1976C34.6849 12.1976 36.1891 12.5139 37.6483 13.1464C39.0851 13.7788 40.3423 14.6146 41.375 15.6762C42.4301 16.7379 43.2607 17.9802 43.8669 19.4259C44.473 20.8715 44.7873 22.4075 44.7873 23.9887C44.7873 26.112 44.271 28.0546 43.2383 29.8616C42.2056 31.6687 40.7913 33.0918 39.0177 34.1308C37.2442 35.1925 35.2911 35.712 33.1808 35.7346H32.7318C32.5746 35.7346 32.4399 35.6894 32.3277 35.5765C32.2154 35.4635 32.1481 35.328 32.1481 35.1699V32.4141C32.1481 32.1205 32.3052 31.9624 32.642 31.9624H33.1808C35.336 31.9398 37.1993 31.1718 38.7259 29.5906C40.2525 28.032 41.0382 26.1572 41.0382 23.9661C41.0382 21.7976 40.2525 19.9454 38.7034 18.3868C37.1544 16.8508 35.2911 16.0828 33.091 16.0828C30.9807 16.0828 29.1398 16.8056 27.6132 18.2965C26.0866 19.7647 25.2785 21.5492 25.1887 23.6499C25.1887 23.7854 25.1438 23.8984 25.0315 24.0339C24.9193 24.1694 24.7397 24.2372 24.4703 24.2372H21.911C21.5742 24.2598 21.4171 24.0791 21.4171 23.7176ZM31.2276 46.0348V41.5398C31.2276 40.9976 31.4072 40.5459 31.7664 40.1845C32.1256 39.8231 32.5746 39.6424 33.1134 39.6424C33.6522 39.6424 34.1237 39.8231 34.4829 40.1845C34.8421 40.5459 35.0217 40.9976 35.0217 41.5398V46.0348C35.0217 46.5769 34.8421 47.0513 34.4604 47.4353C34.0788 47.8193 33.6298 48 33.1134 48C32.5746 48 32.1256 47.8193 31.7664 47.4353C31.4072 47.0513 31.2276 46.5995 31.2276 46.0348ZM31.2276 6.55059V1.92C31.2276 1.37788 31.4072 0.926118 31.7889 0.564706C32.1705 0.203294 32.5971 0 33.1359 0C33.6522 0 34.1012 0.180706 34.4829 0.564706C34.8645 0.948706 35.0441 1.40047 35.0441 1.92V6.528C35.0441 7.04753 34.8645 7.47671 34.4829 7.83812C34.1012 8.17694 33.6522 8.35765 33.1359 8.35765C32.5971 8.35765 32.1481 8.17694 31.7889 7.83812C31.4072 7.49929 31.2276 7.07012 31.2276 6.55059ZM43.5975 36.3219C43.5975 35.8024 43.7546 35.3732 44.1138 35.0569C44.4506 34.6955 44.8771 34.5374 45.3935 34.5374C45.9323 34.5374 46.3813 34.7181 46.7405 35.0569L49.9957 38.2645C50.3549 38.6485 50.5345 39.1228 50.5345 39.6424C50.5345 40.1619 50.3549 40.6136 49.9957 40.9751C49.0977 41.6753 48.1997 41.6753 47.3017 40.9751L44.1138 37.7449C43.7771 37.3835 43.5975 36.8866 43.5975 36.3219ZM43.5975 11.6329C43.5975 11.0682 43.7546 10.6165 44.1138 10.3002L47.3017 6.97976C47.7058 6.61835 48.1323 6.43765 48.6262 6.43765C49.165 6.43765 49.614 6.61835 49.9732 7.00235C50.3549 7.38635 50.5345 7.83812 50.5345 8.35765C50.5345 8.92235 50.3549 9.39671 49.9957 9.75812L46.7405 12.9882C46.3364 13.3496 45.8874 13.5304 45.3935 13.5304C44.8771 13.5304 44.473 13.3496 44.1138 12.9882C43.7546 12.6268 43.5975 12.1751 43.5975 11.6329ZM48.6711 23.9887C48.6711 23.4692 48.8507 22.9948 49.2324 22.5882C49.5916 22.2268 50.0181 22.0461 50.4896 22.0461H55.0469C55.5632 22.0461 56.0122 22.2494 56.4163 22.6334C56.798 23.0174 57 23.4692 57 23.9887C57 24.5082 56.798 24.96 56.4163 25.344C56.0122 25.728 55.5632 25.9087 55.0469 25.9087H50.4896C49.9732 25.9087 49.5467 25.728 49.1875 25.344C48.8507 24.9826 48.6711 24.5308 48.6711 23.9887Z" fill="black"/>
</svg>
