<svg width="60" height="49" viewBox="0 0 60 49" fill="none" xmlns="http://www.w3.org/2000/svg">
<path d="M0 41.0029C0 41.4709 0.163432 41.8779 0.510725 42.2035C0.858018 42.5291 1.28703 42.6919 1.79775 42.6919H40.0204C40.5107 42.6919 40.9193 42.5291 41.2666 42.2035C41.6139 41.8779 41.7773 41.4913 41.7773 41.0029C41.7773 40.5145 41.6139 40.1076 41.2666 39.782C40.9193 39.436 40.5107 39.2733 40.0204 39.2733H1.79775C1.28703 39.2733 0.858018 39.436 0.510725 39.782C0.163432 40.1279 0 40.5145 0 41.0029ZM5.3524 34.6134C5.3524 35.0814 5.51583 35.4884 5.86313 35.7936C6.21042 36.1599 6.619 36.343 7.08887 36.343H45.332C45.8018 36.343 46.2104 36.1802 46.5373 35.8343C46.8641 35.4884 47.0276 35.0814 47.0276 34.6134C47.0276 34.1453 46.8641 33.7384 46.5577 33.4128C46.2308 33.0872 45.8427 32.9244 45.3524 32.9244H7.10929C6.619 32.9244 6.21042 33.0872 5.88355 33.4128C5.53626 33.7587 5.3524 34.1453 5.3524 34.6134ZM5.61798 29.7297C5.61798 29.9128 5.72012 29.9942 5.94484 29.9942H8.86619C9.00919 29.9942 9.1522 29.8924 9.2952 29.6686C9.78549 28.6105 10.5005 27.7558 11.4607 27.0843C12.4208 26.4128 13.4831 26.0262 14.6476 25.9448L15.7508 25.8023C15.9755 25.8023 16.0981 25.6802 16.0981 25.436L16.2411 24.3983C16.4658 22.2006 17.3851 20.3692 19.0398 18.8837C20.6946 17.4186 22.6353 16.6657 24.8825 16.6657C27.0889 16.6657 29.0296 17.3983 30.6844 18.8634C32.3391 20.3285 33.2789 22.1395 33.5036 24.3169L33.6466 25.4971C33.6466 25.7209 33.7691 25.843 34.0347 25.843H37.3238C38.6313 25.843 39.8366 26.189 40.9193 26.9012C42.002 27.593 42.7988 28.5291 43.3299 29.689C43.4729 29.9128 43.5955 30.0145 43.7385 30.0145H46.6803C46.9459 30.0145 47.048 29.8721 46.9459 29.5465L46.5373 28.4273C48.0899 26.5145 48.8458 24.2762 48.8458 21.6919C48.8458 20.2471 48.5598 18.8837 48.0082 17.561C47.4566 16.2384 46.7007 15.1192 45.7405 14.1628C44.8008 13.2064 43.6568 12.4535 42.3289 11.8837C41.001 11.314 39.6323 11.0698 38.1614 11.0698C35.0153 11.0698 32.4004 12.2093 30.3575 14.4884C28.621 13.6337 26.8029 13.2064 24.8825 13.2064C22.0225 13.2064 19.4688 14.1017 17.2421 15.8924C15.0153 17.6831 13.5853 19.9622 12.952 22.75C9.31563 23.7064 6.86415 25.9651 5.63841 29.5669C5.61798 29.5872 5.61798 29.6483 5.61798 29.7297ZM8.92748 47.25C8.92748 47.7384 9.11134 48.1453 9.47906 48.4709C9.80592 48.8169 10.1941 49 10.6844 49H48.9683C49.4382 49 49.8468 48.8372 50.1941 48.4913C50.5414 48.1453 50.7048 47.7384 50.7048 47.25C50.7048 46.782 50.5414 46.3953 50.1941 46.0698C49.8468 45.7645 49.4382 45.6017 48.9683 45.6017H10.6844C10.1941 45.6017 9.78549 45.7645 9.4382 46.0698C9.09091 46.3953 8.92748 46.782 8.92748 47.25ZM22.3493 7.63081C22.3493 8.11919 22.5128 8.50581 22.8192 8.8314L24.1471 10.1337C24.4944 10.5 24.8825 10.6831 25.332 10.6831C25.7814 10.6831 26.19 10.5203 26.5577 10.1744C26.905 9.82849 27.0889 9.42151 27.0889 8.93314C27.0889 8.44477 26.9254 8.01744 26.5781 7.65116L25.2707 6.40988C24.9438 6.06395 24.5352 5.88081 24.0449 5.88081C23.5546 5.88081 23.1461 6.0436 22.8192 6.38954C22.5128 6.71512 22.3493 7.14244 22.3493 7.63081ZM33.2176 16.5436C34.5863 15.1599 36.2411 14.4884 38.1818 14.4884C40.1839 14.4884 41.8999 15.2006 43.3095 16.6047C44.7191 18.0087 45.4341 19.718 45.4341 21.6919C45.4341 23.0145 45.1072 24.2355 44.4331 25.3547C42.4923 23.4215 40.1226 22.4651 37.3442 22.4651H36.6496C36.0572 20.064 34.9132 18.0901 33.2176 16.5436ZM36.4862 5.90116C36.4862 6.36919 36.6496 6.77616 36.9765 7.10174C37.3034 7.42733 37.6915 7.59012 38.1818 7.59012C38.6925 7.59012 39.1215 7.42733 39.4688 7.10174C39.8161 6.77616 39.9796 6.38953 39.9796 5.90116V1.72965C39.9796 1.26163 39.7957 0.854651 39.4484 0.508721C39.0807 0.162791 38.6517 0 38.1614 0C37.6915 0 37.2829 0.162791 36.9561 0.508721C36.6292 0.854651 36.4658 1.26163 36.4658 1.72965V5.90116H36.4862ZM47.7017 10.5203C47.7017 10.968 47.8652 11.3953 48.192 11.7413C48.9479 12.4738 49.7855 12.4738 50.7048 11.7413L53.6261 8.8314C53.953 8.46512 54.1164 8.03779 54.1164 7.52907C54.1164 7.06105 53.953 6.65407 53.6261 6.32849C53.2993 6.00291 52.8907 5.84012 52.4208 5.84012C51.9305 5.84012 51.522 6.00291 51.1951 6.32849L48.2125 9.31977C47.8652 9.68605 47.7017 10.093 47.7017 10.5203ZM49.3565 34.532C49.3565 35.0203 49.5403 35.4273 49.8876 35.7529L51.1951 37.0756C51.522 37.4012 51.9305 37.564 52.38 37.564C52.809 37.564 53.2176 37.4012 53.6261 37.0756C53.953 36.7297 54.1164 36.282 54.1164 35.7733C54.1164 35.3256 53.953 34.939 53.6261 34.6337L52.2983 33.2907C51.9305 32.9651 51.522 32.8023 51.0725 32.8023C50.5822 32.8023 50.1736 32.9651 49.8468 33.311C49.5199 33.6366 49.3565 34.0436 49.3565 34.532ZM52.38 21.6919C52.38 22.1802 52.5638 22.5872 52.9111 22.9128C53.2176 23.2587 53.6261 23.4215 54.1164 23.4215H58.3044C58.7743 23.4215 59.1828 23.2587 59.5097 22.9128C59.8366 22.5669 60 22.1599 60 21.6919C60 21.2035 59.8366 20.7965 59.5097 20.4709C59.1828 20.1453 58.7947 19.9826 58.3044 19.9826H54.1164C53.6261 19.9826 53.2176 20.1453 52.8907 20.4913C52.5434 20.8169 52.38 21.2238 52.38 21.6919Z" fill="black"/>
</svg>
